{"glyphs":{"0":{"ha":882,"x_min":60,"x_max":822,"o":"m 442 -19 q 155 119 250 -19 q 60 479 60 258 q 101 735 60 622 q 227 913 142 847 q 442 979 313 979 q 727 840 632 979 q 822 479 822 700 q 728 119 822 258 q 442 -19 633 -19 m 217 479 q 269 212 217 314 q 442 110 321 110 q 614 212 563 110 q 665 479 665 314 q 613 747 665 644 q 442 850 561 850 q 269 748 321 850 q 217 479 217 646 z "},"1":{"ha":474,"x_min":18,"x_max":369,"o":"m 219 713 q 141 676 190 686 q 18 667 92 667 l 18 789 q 150 809 101 790 q 221 864 199 828 q 250 960 243 900 l 369 960 l 369 0 l 219 0 l 219 713 z "},"2":{"ha":790,"x_min":39,"x_max":732,"o":"m 39 0 q 113 229 39 129 q 332 419 186 329 l 364 439 q 491 521 450 490 q 554 590 532 551 q 576 686 576 629 q 540 803 576 757 q 414 850 503 850 q 217 621 217 850 l 64 621 q 153 881 64 782 q 418 979 243 979 q 577 945 506 979 q 690 846 649 911 q 732 692 732 781 q 692 539 732 606 q 593 427 651 472 q 443 325 535 382 q 300 230 350 271 q 232 132 250 189 l 232 129 l 721 129 l 721 0 l 39 0 z "},"3":{"ha":836,"x_min":44,"x_max":779,"o":"m 431 -19 q 145 72 246 -19 q 44 328 44 163 l 197 328 q 249 166 197 222 q 421 110 300 110 q 577 151 531 110 q 624 274 624 193 q 432 438 624 438 l 342 438 l 342 561 l 426 561 q 547 597 503 561 q 590 708 590 633 q 550 810 590 769 q 426 850 510 850 q 224 671 224 850 l 71 671 q 112 831 71 761 q 233 940 153 900 q 428 979 313 979 q 588 948 515 979 q 703 857 660 917 q 746 715 746 797 q 601 510 746 571 l 601 507 q 779 271 779 450 q 685 57 779 133 q 431 -19 592 -19 z "},"4":{"ha":819,"x_min":36,"x_max":778,"o":"m 493 219 l 36 219 l 36 358 l 493 960 l 643 960 l 643 349 l 778 349 l 778 219 l 643 219 l 643 0 l 493 0 l 493 219 m 493 349 l 493 767 l 175 349 l 493 349 z "},"5":{"ha":807,"x_min":47,"x_max":757,"o":"m 407 -19 q 216 21 296 -19 q 93 130 136 61 q 47 281 50 199 l 200 281 q 256 158 208 206 q 399 110 303 110 q 547 166 492 110 q 601 328 601 222 q 551 475 601 426 q 408 524 500 524 q 297 502 347 524 q 214 438 247 481 l 60 438 l 163 960 l 708 960 l 708 831 l 278 831 l 225 565 l 225 563 q 449 646 306 646 q 608 605 538 646 q 718 491 679 564 q 757 328 757 418 q 711 145 757 224 q 585 24 665 67 q 407 -19 506 -19 z "},"6":{"ha":832,"x_min":61,"x_max":778,"o":"m 435 -19 q 61 478 61 -19 q 160 847 61 715 q 436 979 258 979 q 592 944 524 979 q 702 849 661 908 q 751 717 743 789 l 597 717 q 549 817 588 781 q 436 854 510 854 q 262 760 313 854 q 211 522 211 667 l 211 508 l 215 507 q 317 601 253 568 q 463 633 381 633 q 626 593 554 633 q 738 480 697 553 q 778 314 778 407 q 736 144 778 221 q 617 24 694 68 q 435 -19 539 -19 m 228 303 q 281 160 228 214 q 431 106 335 106 q 574 160 524 106 q 625 306 625 214 q 575 453 625 400 q 440 507 525 507 q 285 451 343 507 q 228 303 228 394 z "},"7":{"ha":719,"x_min":14,"x_max":689,"o":"m 157 0 q 212 314 157 151 q 351 613 267 476 q 525 828 436 750 l 525 831 l 14 831 l 14 960 l 689 960 l 689 844 q 497 615 582 754 q 363 313 411 475 q 315 0 315 151 l 157 0 z "},"8":{"ha":843,"x_min":53,"x_max":790,"o":"m 421 -19 q 155 56 257 -19 q 53 271 53 131 q 102 417 53 361 q 232 510 151 474 l 232 513 q 100 718 100 582 q 189 909 100 839 q 421 979 278 979 q 653 910 564 979 q 743 718 743 840 q 611 513 743 583 l 611 510 q 741 417 692 474 q 790 271 790 361 q 688 56 790 131 q 421 -19 585 -19 m 208 279 q 265 151 208 197 q 421 106 321 106 q 577 151 521 106 q 633 279 633 197 q 577 405 633 360 q 421 450 521 450 q 265 405 321 450 q 208 279 208 360 m 250 713 q 294 606 250 642 q 421 569 339 569 q 549 605 504 569 q 593 713 593 640 q 548 820 593 783 q 421 857 503 857 q 294 820 339 857 q 250 713 250 783 z "},"9":{"ha":835,"x_min":56,"x_max":772,"o":"m 396 -19 q 240 16 308 -19 q 131 111 172 51 q 81 243 90 171 l 236 243 q 284 142 244 179 q 397 106 324 106 q 571 199 519 106 q 622 438 622 293 l 622 451 l 618 453 q 516 359 581 392 q 371 326 451 326 q 208 367 279 326 q 96 480 136 407 q 56 646 56 553 q 97 815 56 739 q 217 935 139 892 q 399 979 294 979 q 772 482 772 979 q 674 113 772 244 q 396 -19 575 -19 m 208 654 q 258 506 208 560 q 393 453 308 453 q 548 509 490 453 q 606 657 606 565 q 552 800 606 746 q 401 854 499 854 q 259 800 310 854 q 208 654 208 746 z "},"\r":{"ha":290,"x_min":0,"x_max":0,"o":""}," ":{"ha":290,"x_min":0,"x_max":0,"o":""},"!":{"ha":311,"x_min":81,"x_max":232,"o":"m 81 151 l 232 151 l 232 0 l 81 0 l 81 151 m 81 993 l 231 993 l 231 724 l 196 271 l 117 271 l 81 724 l 81 993 z "},"\"":{"ha":464,"x_min":58,"x_max":407,"o":"m 58 993 l 188 993 l 171 646 l 75 646 l 58 993 m 278 993 l 407 993 l 390 646 l 294 646 l 278 993 z "},"#":{"ha":801,"x_min":36,"x_max":767,"o":"m 433 269 l 275 269 l 221 0 l 108 0 l 163 269 l 36 269 l 57 382 l 185 382 l 226 586 l 85 586 l 107 700 l 249 700 l 301 960 l 414 960 l 361 700 l 519 700 l 571 960 l 685 960 l 632 700 l 767 700 l 744 586 l 610 586 l 568 382 l 717 382 l 697 269 l 546 269 l 492 0 l 379 0 l 433 269 m 456 382 l 496 586 l 339 586 l 297 382 l 456 382 z "},"$":{"ha":838,"x_min":36,"x_max":792,"o":"m 386 -17 q 139 85 235 -1 q 36 317 43 171 l 178 317 q 238 172 186 225 q 386 106 290 118 l 386 438 l 382 439 q 159 535 243 476 q 75 704 75 593 q 159 894 75 822 q 386 971 243 965 l 386 1069 l 469 1069 l 469 967 q 678 872 599 950 q 767 661 758 793 l 625 661 q 469 843 607 815 l 469 547 q 649 483 583 514 q 753 398 714 453 q 792 251 792 343 q 708 62 792 138 q 469 -19 625 -14 l 469 -140 l 386 -140 l 386 -17 m 218 718 q 259 631 218 661 q 386 572 300 600 l 386 849 q 263 810 308 844 q 218 718 218 776 m 469 101 q 649 247 649 111 q 607 348 649 313 q 469 414 565 383 l 469 101 z "},"%":{"ha":1161,"x_min":29,"x_max":1132,"o":"m 788 960 l 907 960 l 374 0 l 254 0 l 788 960 m 29 704 q 91 902 29 825 q 269 979 153 979 q 446 901 383 979 q 508 704 508 824 q 447 506 508 583 q 269 428 385 428 q 92 506 156 428 q 29 704 29 583 m 156 704 q 184 577 156 622 q 269 532 213 532 q 353 577 325 532 q 382 704 382 622 q 353 831 382 786 q 269 876 325 876 q 184 831 213 876 q 156 704 156 786 m 654 256 q 716 454 654 376 q 893 532 778 532 q 1069 454 1007 532 q 1132 256 1132 376 q 1070 58 1132 135 q 893 -19 1008 -19 q 717 58 779 -19 q 654 256 654 136 m 779 256 q 808 129 779 175 q 893 83 838 83 q 978 129 949 83 q 1007 256 1007 175 q 978 382 1007 336 q 893 428 949 428 q 808 382 838 428 q 779 256 779 336 z "},"&":{"ha":864,"x_min":40,"x_max":871,"o":"m 349 -19 q 183 15 253 -19 q 76 108 113 49 q 40 242 40 167 q 100 408 40 343 q 268 535 160 474 q 181 662 208 608 q 153 778 153 715 q 182 893 153 839 q 268 980 211 947 q 404 1013 325 1013 q 535 981 481 1013 q 619 896 590 949 q 649 779 649 843 q 599 640 649 696 q 440 518 549 583 l 628 293 q 686 486 667 372 l 817 486 q 714 188 793 315 l 871 0 l 706 0 l 633 89 q 349 -19 515 -19 m 181 260 q 228 151 181 193 q 360 110 275 110 q 551 188 471 110 l 332 456 q 219 363 257 410 q 181 260 181 317 m 286 776 q 308 694 286 736 q 375 596 331 651 q 482 679 449 639 q 515 769 515 719 q 485 857 515 822 q 401 892 454 892 q 317 858 347 892 q 286 776 286 824 z "},"'":{"ha":246,"x_min":58,"x_max":188,"o":"m 58 993 l 188 993 l 171 646 l 75 646 l 58 993 z "},"(":{"ha":381,"x_min":46,"x_max":358,"o":"m 239 -169 q 100 103 154 -56 q 46 440 46 263 q 99 781 46 624 q 239 1053 153 938 l 358 1053 q 240 765 282 910 q 197 440 197 619 q 240 119 197 265 q 358 -169 282 -28 l 239 -169 z "},")":{"ha":381,"x_min":22,"x_max":335,"o":"m 22 -169 q 142 120 99 -26 q 185 444 185 267 q 142 765 185 619 q 22 1053 99 910 l 142 1053 q 281 781 226 939 q 335 444 335 622 q 281 103 335 261 q 142 -169 228 -54 l 22 -169 z "},"*":{"ha":624,"x_min":54,"x_max":569,"o":"m 118 578 l 231 724 l 54 776 l 86 864 l 261 810 l 261 993 l 364 993 l 363 810 l 538 864 l 569 776 l 393 724 l 507 578 l 426 521 l 313 674 l 199 521 l 118 578 z "},"+":{"ha":774,"x_min":67,"x_max":707,"o":"m 322 389 l 67 389 l 67 518 l 322 518 l 322 782 l 451 782 l 451 518 l 707 518 l 707 389 l 451 389 l 451 125 l 322 125 l 322 389 z "},",":{"ha":282,"x_min":65,"x_max":217,"o":"m 65 -114 q 122 -77 106 -101 q 138 0 139 -53 l 65 0 l 65 151 l 217 151 l 217 0 q 65 -189 217 -151 l 65 -114 z "},"-":{"ha":489,"x_min":58,"x_max":431,"o":"m 58 418 l 431 418 l 431 289 l 58 289 l 58 418 z "},".":{"ha":276,"x_min":63,"x_max":214,"o":"m 63 151 l 214 151 l 214 0 l 63 0 l 63 151 z "},"/":{"ha":546,"x_min":17,"x_max":528,"o":"m 401 993 l 528 993 l 143 0 l 17 0 l 401 993 z "},":":{"ha":290,"x_min":69,"x_max":221,"o":"m 69 576 l 221 576 l 221 425 l 69 425 l 69 576 m 69 151 l 221 151 l 221 0 l 69 0 l 69 151 z "},";":{"ha":290,"x_min":69,"x_max":221,"o":"m 69 576 l 221 576 l 221 425 l 69 425 l 69 576 m 69 -114 q 126 -77 110 -101 q 142 0 143 -53 l 69 0 l 69 151 l 221 151 l 221 0 q 69 -189 221 -151 l 69 -114 z "},"<":{"ha":704,"x_min":63,"x_max":631,"o":"m 63 360 l 63 504 l 631 740 l 631 611 l 175 433 l 175 431 l 631 253 l 631 124 l 63 360 z "},"=":{"ha":765,"x_min":69,"x_max":696,"o":"m 69 410 l 696 410 l 696 281 l 69 281 l 69 410 m 69 628 l 696 628 l 696 499 l 69 499 l 69 628 z "},">":{"ha":704,"x_min":74,"x_max":640,"o":"m 74 253 l 528 431 l 528 433 l 74 611 l 74 740 l 640 503 l 640 360 l 74 124 l 74 253 z "},"?":{"ha":696,"x_min":21,"x_max":672,"o":"m 239 151 l 390 151 l 390 0 l 239 0 l 239 151 m 21 669 q 60 847 21 769 q 176 968 99 924 q 361 1013 253 1013 q 524 980 454 1013 q 633 888 594 947 q 672 751 672 829 q 653 658 672 697 q 606 590 635 618 q 525 522 576 561 q 469 481 517 515 q 401 395 422 446 q 381 271 381 344 l 242 271 q 262 411 242 356 q 313 500 282 467 q 400 576 344 533 q 472 635 450 615 q 508 683 493 654 q 522 751 522 711 q 481 848 522 813 q 364 883 440 883 q 224 832 276 883 q 172 669 172 781 l 21 669 z "},"@":{"ha":1215,"x_min":40,"x_max":1171,"o":"m 603 -147 q 306 -78 433 -147 q 110 116 179 -10 q 40 408 40 242 q 113 702 40 569 q 317 913 186 835 q 617 990 449 990 q 910 919 785 990 q 1103 725 1036 847 q 1171 453 1171 603 q 1133 256 1171 332 q 1036 145 1094 179 q 914 111 978 111 q 806 140 849 111 q 738 226 764 169 l 735 226 q 542 115 676 115 q 424 149 476 115 q 340 248 371 183 q 310 400 310 313 q 344 567 310 494 q 438 678 379 639 q 569 718 497 718 q 685 685 635 718 q 756 604 736 653 l 758 604 l 772 708 l 889 708 l 844 360 q 842 319 842 332 q 863 241 842 268 q 928 214 885 214 q 1027 275 990 214 q 1064 450 1064 336 q 1009 678 1064 579 q 853 833 954 778 q 619 888 753 888 q 372 822 478 888 q 208 646 265 756 q 150 408 150 536 q 207 172 150 275 q 367 13 264 69 q 603 -44 469 -44 q 849 -1 743 -44 l 886 -87 q 756 -134 825 -121 q 603 -147 686 -147 m 428 396 q 463 272 428 318 q 567 225 497 225 q 688 285 644 225 q 731 438 731 346 q 692 564 731 519 q 593 608 654 608 q 471 549 514 608 q 428 396 428 490 z "},"A":{"ha":917,"x_min":6,"x_max":913,"o":"m 375 993 l 540 993 l 913 0 l 746 0 l 664 239 l 249 239 l 167 0 l 6 0 l 375 993 m 621 368 l 458 851 l 456 851 l 294 368 l 621 368 z "},"B":{"ha":926,"x_min":99,"x_max":879,"o":"m 99 993 l 517 993 q 755 927 669 993 q 840 743 840 861 q 686 536 840 589 l 686 533 q 825 457 771 518 q 879 290 879 396 q 789 75 879 150 q 542 0 699 0 l 99 0 l 99 993 m 531 132 q 676 176 633 132 q 719 296 719 219 q 675 417 719 374 q 551 460 631 460 l 251 460 l 251 132 l 531 132 m 513 581 q 642 616 603 581 q 681 721 681 651 q 640 824 681 788 q 524 861 600 861 l 251 861 l 251 581 l 513 581 z "},"C":{"ha":981,"x_min":50,"x_max":942,"o":"m 514 -19 q 270 47 375 -19 q 108 230 165 113 q 50 496 50 347 q 108 763 50 644 q 271 947 165 881 q 515 1013 376 1013 q 728 965 636 1013 q 875 838 821 918 q 942 656 929 757 l 782 656 q 703 815 765 749 q 513 881 640 881 q 284 771 358 881 q 210 497 210 661 q 284 222 210 332 q 513 113 358 113 q 709 184 644 113 q 782 361 774 256 l 942 361 q 876 164 931 250 q 729 29 822 78 q 514 -19 636 -19 z "},"D":{"ha":971,"x_min":99,"x_max":918,"o":"m 99 993 l 476 993 q 801 863 685 993 q 918 496 918 733 q 803 129 918 258 q 479 0 688 0 l 99 0 l 99 993 m 469 132 q 760 496 760 132 q 469 861 760 861 l 251 861 l 251 132 l 469 132 z "},"E":{"ha":860,"x_min":99,"x_max":815,"o":"m 99 993 l 801 993 l 801 861 l 251 861 l 251 579 l 733 579 l 733 447 l 251 447 l 251 132 l 815 132 l 815 0 l 99 0 l 99 993 z "},"F":{"ha":811,"x_min":99,"x_max":788,"o":"m 99 993 l 788 993 l 788 861 l 251 861 l 251 563 l 685 563 l 685 431 l 251 431 l 251 0 l 99 0 l 99 993 z "},"G":{"ha":1024,"x_min":51,"x_max":958,"o":"m 499 -19 q 258 47 358 -19 q 104 229 157 113 q 51 497 51 346 q 109 763 51 646 q 272 947 167 881 q 517 1013 378 1013 q 809 924 701 1013 q 942 686 917 835 l 782 686 q 694 831 763 781 q 515 881 625 881 q 343 826 411 881 q 243 684 275 771 q 211 497 211 597 q 279 223 211 333 q 507 113 347 113 q 656 148 589 113 q 763 247 724 183 q 803 392 803 311 l 510 392 l 510 519 l 958 519 l 958 0 l 853 0 l 815 138 l 813 138 q 683 19 758 58 q 499 -19 608 -19 z "},"H":{"ha":990,"x_min":99,"x_max":893,"o":"m 99 993 l 251 993 l 251 578 l 739 578 l 739 993 l 893 993 l 893 0 l 739 0 l 739 446 l 251 446 l 251 0 l 99 0 l 99 993 z "},"I":{"ha":350,"x_min":99,"x_max":251,"o":"m 99 993 l 251 993 l 251 0 l 99 0 l 99 993 z "},"J":{"ha":719,"x_min":25,"x_max":626,"o":"m 325 -19 q 94 73 163 -19 q 25 310 25 165 l 25 350 l 172 350 l 172 310 q 202 162 172 211 q 322 113 232 113 q 442 163 411 113 q 474 310 474 213 l 474 993 l 626 993 l 626 310 q 557 73 626 165 q 325 -19 488 -19 z "},"K":{"ha":904,"x_min":99,"x_max":925,"o":"m 99 993 l 251 993 l 251 490 l 722 993 l 893 993 l 504 579 l 925 0 l 746 0 l 410 478 l 251 310 l 251 0 l 99 0 l 99 993 z "},"L":{"ha":775,"x_min":99,"x_max":754,"o":"m 99 993 l 251 993 l 251 132 l 754 132 l 754 0 l 99 0 l 99 993 z "},"M":{"ha":1176,"x_min":99,"x_max":1078,"o":"m 99 993 l 300 993 l 586 213 l 589 213 l 876 993 l 1078 993 l 1078 0 l 928 0 l 928 771 l 925 771 l 651 0 l 525 0 l 251 771 l 249 771 l 249 0 l 99 0 l 99 993 z "},"N":{"ha":990,"x_min":99,"x_max":892,"o":"m 99 993 l 274 993 l 735 229 l 738 229 l 738 993 l 892 993 l 892 0 l 717 0 l 254 764 l 251 764 l 251 0 l 99 0 l 99 993 z "},"O":{"ha":1075,"x_min":50,"x_max":1025,"o":"m 538 -19 q 281 47 392 -19 q 110 231 171 114 q 50 497 50 349 q 110 763 50 646 q 281 947 171 881 q 538 1013 392 1013 q 794 947 683 1013 q 965 763 904 881 q 1025 497 1025 646 q 965 231 1025 349 q 794 47 904 114 q 538 -19 683 -19 m 210 497 q 291 222 210 331 q 538 113 372 113 q 784 222 703 113 q 865 497 865 331 q 784 772 865 664 q 538 881 703 881 q 291 772 372 881 q 210 497 210 664 z "},"P":{"ha":867,"x_min":99,"x_max":838,"o":"m 99 993 l 513 993 q 749 920 661 993 q 838 697 838 847 q 749 475 838 547 q 513 403 661 403 l 251 403 l 251 0 l 99 0 l 99 993 m 506 535 q 636 574 593 535 q 679 697 679 614 q 636 821 679 781 q 506 861 593 861 l 251 861 l 251 535 l 506 535 z "},"Q":{"ha":1075,"x_min":50,"x_max":1031,"o":"m 538 -19 q 281 47 392 -19 q 110 231 171 114 q 50 497 50 349 q 110 763 50 646 q 281 947 171 881 q 538 1013 392 1013 q 794 947 683 1013 q 965 763 904 881 q 1025 497 1025 646 q 996 304 1025 393 q 911 147 967 215 l 1031 28 l 942 -62 l 818 63 q 538 -19 700 -19 m 210 497 q 291 222 210 331 q 538 113 372 113 q 718 161 643 113 l 589 292 l 678 382 l 806 253 q 865 497 865 350 q 784 772 865 664 q 538 881 703 881 q 291 772 372 881 q 210 497 210 664 z "},"R":{"ha":911,"x_min":99,"x_max":864,"o":"m 99 993 l 513 993 q 763 919 676 993 q 850 707 850 844 q 799 549 850 614 q 664 464 747 483 l 664 461 q 773 393 736 447 q 822 274 810 339 q 839 121 833 208 q 847 39 843 64 q 864 10 851 14 l 864 0 l 700 0 q 688 30 690 8 q 685 101 686 51 q 673 243 683 185 q 624 345 663 301 q 507 389 586 389 l 251 389 l 251 0 l 99 0 l 99 993 m 479 521 q 640 566 585 521 q 696 696 696 611 q 645 819 696 778 q 482 861 594 861 l 251 861 l 251 521 l 479 521 z "},"S":{"ha":878,"x_min":33,"x_max":836,"o":"m 472 -19 q 249 23 346 -19 q 95 145 151 65 q 33 335 39 225 l 192 335 q 267 170 200 229 q 468 111 335 111 q 676 271 676 111 q 647 364 676 331 q 567 414 617 397 q 399 461 518 431 q 230 517 296 489 q 118 599 164 544 q 72 742 72 654 q 165 941 72 869 q 419 1013 258 1013 q 694 929 590 1013 q 808 697 797 846 l 650 697 q 582 835 638 789 q 421 882 526 882 q 280 849 328 882 q 232 750 232 815 q 261 667 232 697 q 335 620 290 636 q 464 583 379 604 q 664 522 590 551 q 787 435 738 493 q 836 279 836 378 q 744 63 836 144 q 472 -19 651 -19 z "},"T":{"ha":838,"x_min":21,"x_max":817,"o":"m 342 861 l 21 861 l 21 993 l 817 993 l 817 861 l 496 861 l 496 0 l 342 0 l 342 861 z "},"U":{"ha":960,"x_min":92,"x_max":868,"o":"m 479 -19 q 187 75 282 -19 q 92 338 92 169 l 92 993 l 244 993 l 244 338 q 303 167 244 222 q 479 113 361 113 q 656 167 599 113 q 714 338 714 222 l 714 993 l 868 993 l 868 338 q 773 75 868 169 q 479 -19 678 -19 z "},"V":{"ha":881,"x_min":10,"x_max":867,"o":"m 10 993 l 178 993 l 442 161 l 443 161 l 706 993 l 867 993 l 525 0 l 360 0 l 10 993 z "},"W":{"ha":1288,"x_min":19,"x_max":1268,"o":"m 19 993 l 179 993 l 354 211 l 357 211 l 563 993 l 724 993 l 931 211 l 933 211 l 1108 993 l 1268 993 l 1019 0 l 856 0 l 644 799 l 642 799 l 432 0 l 267 0 l 19 993 z "},"X":{"ha":835,"x_min":-6,"x_max":836,"o":"m 331 507 l 18 993 l 188 993 l 418 618 l 419 618 l 651 993 l 819 993 l 507 510 l 836 0 l 658 0 l 415 396 l 414 396 l 174 0 l -6 0 l 331 507 z "},"Y":{"ha":885,"x_min":10,"x_max":875,"o":"m 365 397 l 10 993 l 175 993 l 442 518 l 444 518 l 711 993 l 875 993 l 519 397 l 519 0 l 365 0 l 365 397 z "},"Z":{"ha":840,"x_min":31,"x_max":803,"o":"m 31 132 l 601 858 l 601 861 l 58 861 l 58 993 l 789 993 l 789 861 l 218 135 l 218 132 l 803 132 l 803 0 l 31 0 l 31 132 z "},"[":{"ha":419,"x_min":90,"x_max":390,"o":"m 90 1053 l 390 1053 l 390 924 l 240 924 l 240 -40 l 390 -40 l 390 -169 l 90 -169 l 90 1053 z "},"\\":{"ha":546,"x_min":18,"x_max":529,"o":"m 18 993 l 144 993 l 529 0 l 403 0 l 18 993 z "},"]":{"ha":419,"x_min":29,"x_max":329,"o":"m 29 -40 l 179 -40 l 179 924 l 29 924 l 29 1053 l 329 1053 l 329 -169 l 29 -169 l 29 -40 z "},"^":{"ha":661,"x_min":28,"x_max":633,"o":"m 269 993 l 393 993 l 633 611 l 490 611 l 331 871 l 329 871 l 172 611 l 28 611 l 269 993 z "},"_":{"ha":793,"x_min":35,"x_max":757,"o":"m 35 -82 l 757 -82 l 757 -211 l 35 -211 l 35 -82 z "},"`":{"ha":329,"x_min":50,"x_max":274,"o":"m 50 1007 l 203 1007 l 274 815 l 167 815 l 50 1007 z "},"a":{"ha":738,"x_min":40,"x_max":699,"o":"m 272 -19 q 103 36 167 -19 q 40 183 40 92 q 76 306 40 260 q 174 378 111 353 q 336 422 238 404 q 439 445 404 435 q 494 474 474 456 q 515 526 515 493 q 381 621 515 621 q 254 590 290 621 q 213 488 218 560 l 74 488 q 156 664 79 597 q 386 731 232 731 q 577 673 506 731 q 649 486 649 615 l 649 161 q 656 102 649 121 q 682 83 663 83 l 699 85 l 699 1 q 629 -7 664 -7 q 549 17 576 -7 q 517 100 522 42 l 514 100 q 418 12 479 43 q 272 -19 357 -19 m 182 193 q 303 90 182 90 q 457 138 399 90 q 515 276 515 186 l 515 378 q 462 352 500 364 q 360 326 424 340 q 223 277 264 307 q 182 193 182 247 z "},"b":{"ha":792,"x_min":76,"x_max":751,"o":"m 433 -19 q 301 10 356 -19 q 215 88 247 40 l 213 88 l 213 0 l 76 0 l 76 993 l 213 993 l 213 625 l 215 625 q 433 729 296 729 q 596 683 524 729 q 710 553 668 638 q 751 354 751 468 q 710 156 751 240 q 596 26 668 71 q 433 -19 524 -19 m 214 354 q 267 163 214 233 q 411 93 319 93 q 558 168 507 93 q 608 354 608 243 q 558 540 608 465 q 411 615 507 615 q 267 545 319 615 q 214 354 214 475 z "},"c":{"ha":738,"x_min":39,"x_max":706,"o":"m 388 -21 q 204 26 283 -21 q 82 159 125 74 q 39 354 39 244 q 82 549 39 464 q 203 682 125 635 q 386 729 282 729 q 544 694 475 729 q 656 595 614 658 q 706 451 697 532 l 565 451 q 517 567 558 518 q 388 617 475 617 q 231 541 282 617 q 181 354 181 465 q 231 168 181 243 q 388 93 282 93 q 518 142 476 93 q 565 263 560 190 l 706 263 q 660 117 701 182 q 547 16 618 53 q 388 -21 476 -21 z "},"d":{"ha":792,"x_min":40,"x_max":715,"o":"m 358 -19 q 196 26 268 -19 q 82 156 124 71 q 40 354 40 240 q 82 553 40 468 q 196 683 124 638 q 358 729 268 729 q 490 699 436 729 q 576 622 543 669 l 579 622 l 579 993 l 715 993 l 715 0 l 579 0 l 579 83 l 576 83 q 488 10 542 39 q 358 -19 435 -19 m 182 354 q 233 168 182 243 q 381 93 285 93 q 525 163 472 93 q 578 354 578 233 q 525 545 578 475 q 381 615 472 615 q 233 540 285 615 q 182 354 182 465 z "},"e":{"ha":765,"x_min":40,"x_max":726,"o":"m 390 -21 q 201 28 281 -21 q 81 161 122 76 q 40 356 40 246 q 83 551 40 467 q 204 683 125 636 q 390 731 283 731 q 638 633 550 731 q 726 369 726 536 q 725 318 726 329 l 181 318 q 238 156 183 222 q 393 90 293 90 q 522 131 476 90 q 579 218 567 171 l 718 218 q 606 44 688 110 q 390 -21 524 -21 m 585 425 q 530 565 585 510 q 386 619 475 619 q 243 566 300 619 q 181 425 186 513 l 585 425 z "},"f":{"ha":406,"x_min":29,"x_max":396,"o":"m 126 794 q 172 957 126 911 q 310 1003 217 1003 q 396 994 338 1003 l 396 885 q 338 889 354 889 q 279 871 294 889 q 264 797 264 853 l 264 708 l 396 708 l 396 596 l 264 596 l 264 0 l 126 0 l 126 596 l 29 596 l 29 708 l 126 708 l 126 794 z "},"g":{"ha":788,"x_min":43,"x_max":713,"o":"m 381 -254 q 154 -192 235 -254 q 63 -29 74 -131 l 204 -29 q 381 -143 229 -143 q 528 -97 479 -143 q 576 47 576 -51 l 576 143 l 574 143 q 356 36 500 36 q 196 76 267 36 q 84 194 125 115 q 43 382 43 272 q 84 571 43 493 q 195 689 125 649 q 356 729 265 729 q 574 625 493 729 l 576 625 l 576 708 l 713 708 l 713 56 q 625 -177 713 -100 q 381 -254 538 -254 m 185 382 q 235 213 185 278 q 381 149 285 149 q 524 208 474 149 q 575 382 575 268 q 524 556 575 497 q 381 615 474 615 q 235 551 285 615 q 185 382 185 486 z "},"h":{"ha":756,"x_min":76,"x_max":685,"o":"m 549 454 q 513 571 549 529 q 404 613 478 613 q 265 564 317 613 q 213 435 213 515 l 213 0 l 76 0 l 76 993 l 213 993 l 213 619 l 215 619 q 306 698 247 667 q 449 729 364 729 q 619 669 553 729 q 685 492 685 608 l 685 0 l 549 0 l 549 454 z "},"i":{"ha":289,"x_min":68,"x_max":222,"o":"m 76 708 l 213 708 l 213 0 l 76 0 l 76 708 m 68 982 l 222 982 l 222 835 l 68 835 l 68 982 z "},"j":{"ha":289,"x_min":-42,"x_max":222,"o":"m 43 -251 q -42 -243 11 -251 l -42 -131 q 13 -135 -8 -135 q 61 -112 46 -135 q 76 -32 76 -89 l 76 708 l 213 708 l 213 -37 q 167 -199 213 -147 q 43 -251 122 -251 m 68 982 l 222 982 l 222 835 l 68 835 l 68 982 z "},"k":{"ha":688,"x_min":76,"x_max":708,"o":"m 76 993 l 213 993 l 213 408 l 522 708 l 679 708 l 407 449 l 708 0 l 547 0 l 315 363 l 213 264 l 213 0 l 76 0 l 76 993 z "},"l":{"ha":289,"x_min":76,"x_max":213,"o":"m 76 993 l 213 993 l 213 0 l 76 0 l 76 993 z "},"m":{"ha":1135,"x_min":76,"x_max":1063,"o":"m 501 454 q 476 573 501 533 q 378 613 450 613 q 258 564 303 613 q 213 435 213 515 l 213 0 l 76 0 l 76 708 l 213 708 l 213 619 l 215 619 q 300 698 249 667 q 425 729 351 729 q 613 606 569 729 l 615 606 q 847 729 708 729 q 1008 668 953 729 q 1063 492 1063 607 l 1063 0 l 926 0 l 926 454 q 901 573 926 533 q 803 613 875 613 q 683 564 728 613 q 638 435 638 515 l 638 0 l 501 0 l 501 454 z "},"n":{"ha":756,"x_min":76,"x_max":685,"o":"m 549 454 q 513 571 549 529 q 404 613 478 613 q 265 564 317 613 q 213 435 213 515 l 213 0 l 76 0 l 76 708 l 213 708 l 213 619 l 215 619 q 306 698 247 667 q 449 729 364 729 q 619 669 553 729 q 685 492 685 608 l 685 0 l 549 0 l 549 454 z "},"o":{"ha":786,"x_min":39,"x_max":747,"o":"m 393 -21 q 204 26 285 -21 q 81 158 124 74 q 39 354 39 243 q 82 550 39 465 q 205 683 125 635 q 394 731 285 731 q 583 683 503 731 q 705 551 663 636 q 747 356 747 465 q 704 159 747 244 q 581 26 661 74 q 393 -21 501 -21 m 181 354 q 235 165 181 238 q 394 92 289 92 q 552 165 499 92 q 606 354 606 238 q 552 544 606 471 q 394 617 499 617 q 235 544 289 617 q 181 354 181 472 z "},"p":{"ha":792,"x_min":76,"x_max":751,"o":"m 433 -19 q 301 10 356 -19 q 215 88 247 40 l 213 88 l 213 -246 l 76 -246 l 76 708 l 213 708 l 213 625 l 215 625 q 433 729 296 729 q 596 683 524 729 q 710 553 668 638 q 751 354 751 468 q 710 156 751 240 q 596 26 668 71 q 433 -19 524 -19 m 214 354 q 267 163 214 233 q 411 93 319 93 q 558 168 507 93 q 608 354 608 243 q 558 540 608 465 q 411 615 507 615 q 267 545 319 615 q 214 354 214 475 z "},"q":{"ha":790,"x_min":40,"x_max":715,"o":"m 358 -19 q 196 26 268 -19 q 82 156 124 71 q 40 354 40 240 q 82 553 40 468 q 196 683 124 638 q 358 729 268 729 q 490 699 436 729 q 576 622 543 669 l 579 622 l 579 708 l 715 708 l 715 -246 l 579 -246 l 579 83 l 576 83 q 488 10 542 39 q 358 -19 435 -19 m 182 354 q 233 168 182 243 q 381 93 285 93 q 525 163 472 93 q 578 354 578 233 q 525 545 578 475 q 381 615 472 615 q 233 540 285 615 q 182 354 182 465 z "},"r":{"ha":483,"x_min":76,"x_max":471,"o":"m 213 0 l 76 0 l 76 708 l 213 708 l 213 574 l 215 574 q 406 725 279 725 q 471 721 440 725 l 471 590 q 425 594 446 594 q 272 531 332 594 q 213 367 213 467 l 213 0 z "},"s":{"ha":678,"x_min":29,"x_max":647,"o":"m 356 -19 q 116 51 200 -19 q 29 236 32 122 l 167 236 q 216 130 171 169 q 354 90 261 90 q 471 120 436 90 q 506 194 506 150 q 481 258 506 236 q 427 288 456 281 q 319 313 399 296 q 183 353 238 332 q 92 415 129 374 q 54 525 54 457 q 126 674 54 618 q 324 729 197 729 q 538 665 463 729 q 621 503 613 601 l 483 503 q 440 587 474 554 q 326 619 406 619 q 228 596 260 619 q 196 531 196 572 q 214 482 196 500 q 260 455 232 464 q 342 435 288 446 q 375 428 353 433 q 515 386 460 408 q 609 319 571 364 q 647 201 647 275 q 571 39 647 97 q 356 -19 494 -19 z "},"t":{"ha":432,"x_min":19,"x_max":396,"o":"m 310 -8 q 169 38 215 -8 q 122 200 122 83 l 122 596 l 19 596 l 19 708 l 122 708 l 122 936 l 258 936 l 258 708 l 394 708 l 394 596 l 258 596 l 258 196 q 276 123 258 142 q 338 104 293 104 q 396 110 364 104 l 396 0 q 310 -8 354 -8 z "},"u":{"ha":756,"x_min":71,"x_max":679,"o":"m 307 -19 q 137 41 203 -19 q 71 218 71 101 l 71 708 l 207 708 l 207 256 q 242 138 207 181 q 351 96 278 96 q 491 144 439 96 q 543 274 543 193 l 543 708 l 679 708 l 679 0 l 543 0 l 543 89 l 540 89 q 450 11 508 42 q 307 -19 392 -19 z "},"v":{"ha":678,"x_min":10,"x_max":668,"o":"m 10 708 l 156 708 l 342 140 l 343 140 l 526 708 l 668 708 l 415 0 l 263 0 l 10 708 z "},"w":{"ha":1053,"x_min":13,"x_max":1040,"o":"m 13 708 l 160 708 l 310 160 l 313 160 l 460 708 l 597 708 l 744 160 l 747 160 l 899 708 l 1040 708 l 821 0 l 681 0 l 528 546 l 525 546 l 372 0 l 232 0 l 13 708 z "},"x":{"ha":676,"x_min":-11,"x_max":689,"o":"m 256 363 l 13 708 l 168 708 l 338 456 l 340 456 l 507 708 l 663 708 l 419 363 l 689 0 l 529 0 l 338 271 l 335 271 l 147 0 l -11 0 l 256 363 z "},"y":{"ha":701,"x_min":-1,"x_max":694,"o":"m 168 -249 q 81 -239 131 -249 l 81 -128 q 139 -132 117 -132 q 226 -101 186 -132 q 285 7 265 -69 l -1 708 l 147 708 l 354 167 l 357 167 l 551 708 l 694 708 l 414 -17 q 308 -197 364 -146 q 168 -249 251 -249 z "},"z":{"ha":642,"x_min":26,"x_max":614,"o":"m 26 101 l 414 593 l 414 596 l 51 596 l 51 708 l 599 708 l 599 621 l 201 115 l 201 113 l 614 113 l 614 0 l 26 0 l 26 101 z "},"{":{"ha":433,"x_min":33,"x_max":401,"o":"m 372 -169 q 226 -149 279 -169 q 145 -68 172 -128 q 118 106 118 -8 l 118 256 q 100 347 118 315 q 33 378 82 378 l 33 507 q 100 537 82 506 q 118 628 118 568 l 118 783 q 145 955 118 897 q 226 1033 172 1013 q 372 1053 279 1053 l 401 1053 l 401 924 l 372 924 q 294 895 321 924 q 268 794 268 867 l 268 592 q 246 500 268 535 q 182 443 224 465 l 182 440 q 246 383 224 418 q 268 290 268 347 l 268 94 q 294 -11 268 18 q 372 -40 321 -40 l 401 -40 l 401 -169 l 372 -169 z "},"|":{"ha":307,"x_min":99,"x_max":208,"o":"m 99 1036 l 208 1036 l 208 -181 l 99 -181 l 99 1036 z "},"}":{"ha":433,"x_min":32,"x_max":399,"o":"m 32 -40 l 61 -40 q 139 -12 113 -40 q 165 89 165 17 l 165 293 q 187 385 165 350 q 250 442 208 419 l 250 444 q 187 502 208 467 q 165 594 165 538 l 165 789 q 139 894 165 865 q 61 924 113 924 l 32 924 l 32 1053 l 61 1053 q 208 1032 154 1053 q 288 951 261 1011 q 315 778 315 892 l 315 629 q 333 539 315 571 q 399 507 350 507 l 399 378 q 333 348 350 379 q 315 257 315 317 l 315 100 q 288 -72 315 -14 q 208 -149 261 -129 q 61 -169 154 -169 l 32 -169 l 32 -40 z "},"~":{"ha":614,"x_min":72,"x_max":543,"o":"m 72 365 q 107 498 72 449 q 206 547 142 547 q 263 538 238 547 q 319 510 289 528 q 383 486 361 486 q 425 505 413 486 q 438 547 438 524 l 543 547 q 508 415 543 464 q 411 365 474 365 q 354 375 379 365 q 297 401 329 385 q 262 419 276 413 q 232 425 247 425 q 192 407 204 425 q 179 365 179 389 l 72 365 z "}," ":{"ha":290,"x_min":0,"x_max":0,"o":""},"¡":{"ha":308,"x_min":78,"x_max":229,"o":"m 79 89 l 114 542 l 193 542 l 229 89 l 229 -181 l 79 -181 l 79 89 m 78 813 l 229 813 l 229 661 l 78 661 l 78 813 z "},"¢":{"ha":783,"x_min":64,"x_max":731,"o":"m 367 129 q 146 246 228 144 q 64 501 64 347 q 101 684 64 603 q 207 815 139 765 q 367 874 275 864 l 367 981 l 453 981 l 453 874 q 644 786 569 861 q 731 599 719 711 l 590 599 q 552 702 585 656 q 453 761 519 749 l 453 243 q 553 301 521 254 q 590 410 586 347 l 731 410 q 648 218 724 296 q 453 128 572 140 l 453 7 l 367 7 l 367 129 m 206 501 q 245 332 206 403 q 367 244 285 261 l 367 760 q 245 672 285 743 q 206 501 206 600 z "},"£":{"ha":814,"x_min":53,"x_max":779,"o":"m 579 -19 q 499 -8 533 -19 q 418 26 464 4 q 354 55 379 46 q 299 64 329 64 q 220 49 257 64 q 128 0 183 35 l 53 110 q 145 217 111 147 q 179 374 179 288 l 179 379 l 67 379 l 67 493 l 147 493 q 105 595 118 557 q 92 692 92 633 q 124 821 92 757 q 231 928 157 885 q 418 971 304 971 q 668 881 588 971 q 749 639 749 790 l 599 639 q 556 790 599 738 q 419 842 513 842 q 288 797 335 842 q 242 679 242 753 q 253 605 242 639 q 285 528 264 571 l 300 493 l 518 493 l 518 379 l 329 379 l 329 372 q 301 242 329 301 q 222 143 272 182 l 224 140 q 254 156 232 144 q 301 174 276 167 q 353 181 325 181 q 411 173 386 181 q 468 150 436 165 q 520 129 500 136 q 567 122 540 122 q 644 137 611 122 q 718 182 678 151 l 779 64 q 683 1 726 22 q 579 -19 639 -19 z "},"¤":{"ha":740,"x_min":53,"x_max":688,"o":"m 371 201 q 213 250 282 201 l 125 163 l 53 235 l 140 322 q 97 479 97 393 q 142 636 97 569 l 53 725 l 125 797 l 213 710 q 371 757 283 757 q 528 710 457 757 l 614 796 l 688 724 l 600 636 q 643 479 643 568 q 600 324 643 392 l 688 236 l 615 163 l 528 250 q 371 201 458 201 m 221 479 q 262 350 221 394 q 371 306 303 306 q 479 350 439 306 q 519 479 519 394 q 479 609 519 564 q 371 654 439 654 q 262 609 303 654 q 221 479 221 564 z "},"¥":{"ha":847,"x_min":32,"x_max":815,"o":"m 349 174 l 108 174 l 108 258 l 349 258 l 349 339 l 108 339 l 108 424 l 328 424 l 32 953 l 196 953 l 422 513 l 425 513 l 651 953 l 815 953 l 519 424 l 739 424 l 739 339 l 499 339 l 499 258 l 739 258 l 739 174 l 499 174 l 499 0 l 349 0 l 349 174 z "},"¦":{"ha":307,"x_min":99,"x_max":208,"o":"m 99 340 l 208 340 l 208 -181 l 99 -181 l 99 340 m 99 1036 l 208 1036 l 208 533 l 99 533 l 99 1036 z "},"§":{"ha":840,"x_min":58,"x_max":781,"o":"m 424 -258 q 215 -190 285 -258 q 140 -15 144 -122 l 276 -15 q 424 -149 279 -149 q 561 -47 561 -149 q 540 22 561 -7 q 492 69 519 51 q 401 122 465 88 l 329 164 l 288 188 q 160 264 204 233 q 87 338 115 294 q 58 439 58 381 q 96 557 58 510 q 201 625 133 604 q 142 778 142 689 q 212 940 142 878 q 417 1003 282 1003 q 626 935 556 1003 q 700 761 696 868 l 564 761 q 550 827 560 800 q 509 874 540 854 q 417 893 478 893 q 279 792 279 893 q 301 717 279 747 q 349 672 322 688 q 443 619 375 656 l 517 581 q 667 494 618 526 q 748 417 715 463 q 781 306 781 371 q 743 188 781 235 q 639 119 706 140 q 697 -33 697 57 q 627 -195 697 -132 q 424 -258 557 -258 m 194 460 q 218 396 194 425 q 283 341 242 367 q 406 271 324 315 l 490 225 q 544 194 526 206 q 620 225 596 200 q 644 285 644 250 q 595 376 644 335 q 440 474 546 417 l 356 519 l 300 550 q 221 520 247 546 q 194 460 194 494 z "},"¨":{"ha":513,"x_min":58,"x_max":446,"o":"m 58 983 l 213 983 l 213 835 l 58 835 l 58 983 m 292 983 l 446 983 l 446 835 l 292 835 l 292 983 z "},"©":{"ha":1171,"x_min":65,"x_max":1104,"o":"m 586 -19 q 310 43 428 -19 q 129 222 193 106 q 65 496 65 339 q 129 769 65 653 q 310 949 193 886 q 586 1013 428 1013 q 861 950 744 1013 q 1041 771 978 888 q 1104 496 1104 654 q 1041 222 1104 339 q 861 43 978 106 q 586 -19 744 -19 m 174 496 q 224 269 174 365 q 367 122 274 174 q 586 71 460 71 q 804 122 711 71 q 947 269 897 174 q 997 496 997 365 q 947 722 997 626 q 804 870 897 818 q 586 922 711 922 q 367 870 460 922 q 224 722 274 818 q 174 496 174 626 m 301 496 q 377 722 301 635 q 586 808 453 808 q 775 744 703 808 q 858 582 847 681 l 742 582 q 701 663 735 625 q 590 701 667 701 q 461 645 500 701 q 422 496 422 589 q 461 348 422 404 q 590 292 500 292 q 701 330 667 292 q 742 413 736 368 l 858 413 q 782 249 851 314 q 597 185 713 185 q 381 270 460 185 q 301 496 301 356 z "},"ª":{"ha":614,"x_min":42,"x_max":568,"o":"m 219 415 q 90 460 138 415 q 42 579 42 504 q 99 697 42 658 q 267 757 157 736 q 345 774 319 767 q 388 798 371 782 q 406 843 406 814 q 382 891 406 872 q 307 910 358 910 q 220 885 247 910 q 190 808 193 860 l 65 808 q 131 949 68 894 q 314 1003 193 1003 q 470 956 414 1003 q 526 803 526 910 l 526 557 q 532 519 526 532 q 554 507 538 507 l 568 507 l 568 433 q 501 424 531 424 q 434 444 456 424 q 407 507 413 464 l 403 507 q 327 440 375 465 q 219 415 279 415 m 172 586 q 261 515 172 515 q 365 552 325 515 q 406 650 406 589 l 406 719 q 367 699 393 708 q 292 679 340 690 q 172 586 172 654 z "},"«":{"ha":651,"x_min":60,"x_max":583,"o":"m 310 279 l 310 431 l 583 653 l 583 507 l 383 356 l 383 353 l 583 201 l 583 57 l 310 279 m 60 431 l 333 653 l 333 507 l 133 356 l 133 353 l 333 201 l 333 57 l 60 279 l 60 431 z "},"¬":{"ha":715,"x_min":54,"x_max":633,"o":"m 486 433 l 54 433 l 54 563 l 633 563 l 633 197 l 486 197 l 486 433 z "},"­":{"ha":489,"x_min":58,"x_max":431,"o":"m 58 418 l 431 418 l 431 289 l 58 289 l 58 418 z "},"®":{"ha":792,"x_min":65,"x_max":726,"o":"m 396 343 q 228 387 304 343 q 109 508 153 431 q 65 679 65 585 q 109 851 65 774 q 228 972 153 928 q 396 1015 304 1015 q 563 972 488 1015 q 683 851 639 928 q 726 679 726 774 q 683 508 726 585 q 563 387 639 431 q 396 343 488 343 m 131 679 q 165 535 131 599 q 260 436 199 472 q 396 400 321 400 q 532 436 471 400 q 627 535 593 472 q 661 679 661 599 q 627 823 661 760 q 532 922 593 886 q 396 958 471 958 q 260 922 321 958 q 165 823 199 886 q 131 679 131 760 m 257 865 l 411 865 q 509 838 475 865 q 543 757 543 810 q 522 696 543 719 q 465 664 501 672 l 465 663 q 522 623 507 656 q 540 540 536 590 q 544 513 542 525 q 551 500 547 501 l 551 496 l 457 496 q 449 532 451 501 q 435 601 447 575 q 383 626 422 626 l 349 626 l 349 496 l 257 496 l 257 865 m 386 700 q 437 710 418 700 q 456 749 456 721 q 438 786 456 776 q 386 796 419 796 l 349 796 l 349 700 l 386 700 z "},"¯":{"ha":478,"x_min":56,"x_max":422,"o":"m 56 942 l 422 942 l 422 835 l 56 835 l 56 942 z "},"°":{"ha":533,"x_min":51,"x_max":481,"o":"m 267 594 q 149 625 199 594 q 76 704 100 656 q 51 804 51 753 q 76 903 51 856 q 149 982 100 951 q 267 1013 199 1013 q 383 982 335 1013 q 456 903 432 951 q 481 804 481 856 q 456 704 481 753 q 383 625 432 656 q 267 594 335 594 m 149 804 q 181 717 149 750 q 267 683 214 683 q 351 717 319 683 q 383 804 383 750 q 351 890 383 857 q 267 924 318 924 q 181 890 214 924 q 149 804 149 857 z "},"±":{"ha":774,"x_min":67,"x_max":707,"o":"m 322 428 l 67 428 l 67 557 l 322 557 l 322 821 l 451 821 l 451 557 l 707 557 l 707 428 l 451 428 l 451 164 l 322 164 l 322 428 m 67 121 l 707 121 l 707 -8 l 67 -8 l 67 121 z "},"²":{"ha":494,"x_min":28,"x_max":454,"o":"m 28 504 q 59 624 28 578 q 163 725 90 671 l 211 758 q 301 830 272 800 q 329 904 329 860 q 310 960 329 939 q 253 982 292 982 q 158 864 158 982 l 39 864 q 94 1022 39 961 q 257 1082 150 1082 q 401 1038 347 1082 q 454 913 454 993 q 433 824 454 863 q 382 758 413 785 q 300 694 351 731 q 235 647 257 665 q 201 606 214 628 l 201 604 l 451 604 l 451 504 l 28 504 z "},"³":{"ha":518,"x_min":29,"x_max":481,"o":"m 267 501 q 91 556 153 501 q 29 711 29 611 l 150 711 q 175 629 150 657 q 258 601 200 601 q 354 679 354 601 q 250 761 354 761 l 213 761 l 213 850 l 247 850 q 338 919 338 850 q 317 973 338 954 q 258 992 297 992 q 165 906 165 992 l 46 906 q 103 1040 46 989 q 265 1092 161 1092 q 406 1049 349 1092 q 463 935 463 1007 q 379 813 463 853 l 379 811 q 481 674 481 781 q 422 547 481 592 q 267 501 364 501 z "},"´":{"ha":329,"x_min":44,"x_max":286,"o":"m 126 1007 l 286 1007 l 153 815 l 44 815 l 126 1007 z "},"µ":{"ha":789,"x_min":90,"x_max":699,"o":"m 90 708 l 226 708 l 226 256 q 262 138 226 181 q 374 96 297 96 q 510 144 458 96 q 563 274 563 193 l 563 708 l 699 708 l 699 0 l 563 0 l 563 89 l 560 89 q 476 13 531 43 q 351 -18 422 -18 q 226 19 276 -18 l 226 -246 l 90 -246 l 90 708 z "},"¶":{"ha":779,"x_min":25,"x_max":676,"o":"m 360 465 l 296 465 q 94 532 164 465 q 25 725 25 599 q 94 922 25 851 q 296 993 164 993 l 676 993 l 676 0 l 569 0 l 569 879 l 465 879 l 465 0 l 360 0 l 360 465 z "},"·":{"ha":289,"x_min":69,"x_max":221,"o":"m 69 424 l 221 424 l 221 272 l 69 272 l 69 424 z "},"¸":{"ha":414,"x_min":60,"x_max":363,"o":"m 210 -275 q 60 -232 128 -275 l 92 -193 q 186 -214 143 -214 q 237 -201 219 -214 q 254 -165 254 -187 q 201 -124 254 -124 q 146 -133 171 -124 l 125 -103 l 211 0 l 288 0 l 225 -74 l 225 -76 q 249 -75 233 -75 q 329 -98 296 -75 q 363 -167 363 -121 q 318 -248 363 -221 q 210 -275 274 -275 z "},"¹":{"ha":326,"x_min":18,"x_max":263,"o":"m 138 894 q 18 875 110 875 l 18 971 q 122 997 85 972 q 160 1069 158 1021 l 263 1069 l 263 506 l 138 506 l 138 894 z "},"º":{"ha":636,"x_min":38,"x_max":599,"o":"m 318 415 q 113 497 189 415 q 38 710 38 578 q 114 922 38 840 q 319 1003 190 1003 q 524 922 449 1003 q 599 710 599 840 q 523 497 599 579 q 318 415 447 415 m 165 710 q 203 571 165 624 q 318 518 242 518 q 433 571 394 518 q 471 710 471 624 q 432 847 471 794 q 318 900 393 900 q 203 848 242 900 q 165 710 165 796 z "},"»":{"ha":651,"x_min":69,"x_max":592,"o":"m 319 203 l 518 354 l 518 357 l 319 507 l 319 653 l 592 431 l 592 279 l 319 57 l 319 203 m 69 203 l 268 354 l 268 357 l 69 507 l 69 653 l 342 431 l 342 279 l 69 57 l 69 203 z "},"¼":{"ha":1051,"x_min":22,"x_max":1031,"o":"m 142 818 q 22 799 114 799 l 22 894 q 126 920 89 896 q 164 993 163 944 l 267 993 l 267 429 l 142 429 l 142 818 m 724 993 l 867 993 l 238 0 l 94 0 l 724 993 m 826 122 l 567 122 l 567 240 l 826 564 l 950 564 l 950 222 l 1031 222 l 1031 122 l 950 122 l 950 0 l 826 0 l 826 122 m 826 222 l 826 425 l 664 222 l 826 222 z "},"½":{"ha":1119,"x_min":24,"x_max":1075,"o":"m 143 818 q 24 799 115 799 l 24 894 q 127 920 90 896 q 165 993 164 944 l 268 993 l 268 429 l 143 429 l 143 818 m 728 993 l 871 993 l 242 0 l 99 0 l 728 993 m 649 0 q 680 120 649 74 q 783 221 711 167 l 832 254 q 922 326 893 296 q 950 400 950 356 q 931 456 950 435 q 874 478 913 478 q 779 360 779 478 l 660 360 q 715 517 660 457 q 878 578 771 578 q 1022 533 968 578 q 1075 408 1075 489 q 1054 319 1075 358 q 1003 253 1033 281 q 921 190 972 226 q 856 142 878 161 q 822 101 835 124 l 822 100 l 1072 100 l 1072 0 l 649 0 z "},"¾":{"ha":1263,"x_min":40,"x_max":1235,"o":"m 278 418 q 102 473 164 418 q 40 628 40 528 l 161 628 q 186 546 161 574 q 269 518 211 518 q 365 596 365 518 q 261 678 365 678 l 224 678 l 224 767 l 258 767 q 349 836 349 767 q 328 890 349 871 q 269 908 308 908 q 176 822 176 908 l 57 822 q 115 957 57 906 q 276 1008 172 1008 q 417 966 360 1008 q 474 851 474 924 q 390 729 474 769 l 390 728 q 492 590 492 697 q 433 463 492 508 q 278 418 375 418 m 928 993 l 1071 993 l 442 0 l 299 0 l 928 993 m 1031 122 l 771 122 l 771 240 l 1031 564 l 1154 564 l 1154 222 l 1235 222 l 1235 122 l 1154 122 l 1154 0 l 1031 0 l 1031 122 m 1031 222 l 1031 425 l 868 222 l 1031 222 z "},"¿":{"ha":697,"x_min":25,"x_max":675,"o":"m 335 -201 q 173 -168 243 -201 q 64 -76 103 -135 q 25 61 25 -17 q 44 155 25 115 q 92 224 63 194 q 172 290 121 253 q 228 332 181 297 q 296 417 275 367 q 317 542 317 468 l 456 542 q 435 401 456 457 q 384 313 415 346 q 297 235 353 279 q 226 176 247 196 q 190 129 204 157 q 175 61 175 101 q 216 -36 175 0 q 333 -72 257 -72 q 473 -21 421 -72 q 525 143 525 31 l 675 143 q 636 -35 675 43 q 521 -157 597 -112 q 335 -201 444 -201 m 307 813 l 458 813 l 458 661 l 307 661 l 307 813 z "},"À":{"ha":917,"x_min":6,"x_max":913,"o":"m 375 993 l 540 993 l 913 0 l 746 0 l 664 239 l 249 239 l 167 0 l 6 0 l 375 993 m 621 368 l 458 851 l 456 851 l 294 368 l 621 368 m 282 1292 l 435 1292 l 506 1100 l 399 1100 l 282 1292 z "},"Á":{"ha":917,"x_min":6,"x_max":913,"o":"m 375 993 l 540 993 l 913 0 l 746 0 l 664 239 l 249 239 l 167 0 l 6 0 l 375 993 m 621 368 l 458 851 l 456 851 l 294 368 l 621 368 m 474 1292 l 633 1292 l 500 1100 l 392 1100 l 474 1292 z "},"Â":{"ha":917,"x_min":6,"x_max":913,"o":"m 375 993 l 540 993 l 913 0 l 746 0 l 664 239 l 249 239 l 167 0 l 6 0 l 375 993 m 621 368 l 458 851 l 456 851 l 294 368 l 621 368 m 383 1292 l 531 1292 l 663 1100 l 532 1100 l 458 1224 l 456 1224 l 381 1100 l 251 1100 l 383 1292 z "},"Ã":{"ha":917,"x_min":6,"x_max":913,"o":"m 375 993 l 540 993 l 913 0 l 746 0 l 664 239 l 249 239 l 167 0 l 6 0 l 375 993 m 621 368 l 458 851 l 456 851 l 294 368 l 621 368 m 250 1108 q 281 1219 250 1182 q 357 1256 311 1256 q 408 1248 383 1256 q 467 1225 432 1240 q 532 1204 514 1204 q 567 1253 567 1204 l 658 1253 q 628 1142 658 1178 q 551 1106 599 1106 q 503 1113 526 1106 q 442 1136 479 1121 q 407 1151 424 1144 q 378 1157 390 1157 q 342 1108 342 1157 l 250 1108 z "},"Ä":{"ha":917,"x_min":6,"x_max":913,"o":"m 375 993 l 540 993 l 913 0 l 746 0 l 664 239 l 249 239 l 167 0 l 6 0 l 375 993 m 621 368 l 458 851 l 456 851 l 294 368 l 621 368 m 497 1267 l 651 1267 l 651 1119 l 497 1119 l 497 1267 m 264 1267 l 418 1267 l 418 1119 l 264 1119 l 264 1267 z "},"Å":{"ha":917,"x_min":6,"x_max":913,"o":"m 375 993 l 540 993 l 913 0 l 746 0 l 664 239 l 249 239 l 167 0 l 6 0 l 375 993 m 621 368 l 458 851 l 456 851 l 294 368 l 621 368 m 456 1056 q 364 1091 400 1056 q 328 1183 328 1126 q 364 1276 328 1240 q 456 1311 400 1311 q 549 1276 513 1311 q 585 1183 585 1240 q 549 1091 585 1126 q 456 1056 513 1056 m 393 1183 q 410 1135 393 1153 q 456 1117 428 1117 q 503 1135 485 1117 q 521 1183 521 1153 q 503 1231 521 1213 q 456 1250 485 1250 q 410 1231 428 1250 q 393 1183 393 1213 z "},"Æ":{"ha":1361,"x_min":6,"x_max":1317,"o":"m 374 993 l 1303 993 l 1303 861 l 753 861 l 753 579 l 1235 579 l 1235 447 l 753 447 l 753 132 l 1317 132 l 1317 0 l 600 0 l 600 239 l 244 239 l 163 0 l 6 0 l 374 993 m 599 368 l 599 857 l 456 857 l 290 368 l 599 368 z "},"Ç":{"ha":981,"x_min":50,"x_max":942,"o":"m 485 -275 q 335 -232 403 -275 l 367 -193 q 461 -214 418 -214 q 512 -201 494 -214 q 529 -165 529 -187 q 476 -124 529 -124 q 421 -133 446 -124 l 400 -103 l 471 -18 q 249 60 344 -8 q 102 242 154 129 q 50 496 50 356 q 108 763 50 644 q 271 947 165 881 q 515 1013 376 1013 q 728 965 636 1013 q 875 838 821 918 q 942 656 929 757 l 782 656 q 703 815 765 749 q 513 881 640 881 q 284 771 358 881 q 210 497 210 661 q 284 222 210 332 q 513 113 358 113 q 709 184 644 113 q 782 361 774 256 l 942 361 q 881 172 931 256 q 745 38 831 88 q 547 -18 660 -12 l 500 -74 l 500 -76 q 524 -75 508 -75 q 604 -98 571 -75 q 638 -167 638 -121 q 593 -248 638 -221 q 485 -275 549 -275 z "},"È":{"ha":860,"x_min":99,"x_max":815,"o":"m 99 993 l 801 993 l 801 861 l 251 861 l 251 579 l 733 579 l 733 447 l 251 447 l 251 132 l 815 132 l 815 0 l 99 0 l 99 993 m 278 1292 l 431 1292 l 501 1100 l 394 1100 l 278 1292 z "},"É":{"ha":860,"x_min":99,"x_max":815,"o":"m 99 993 l 801 993 l 801 861 l 251 861 l 251 579 l 733 579 l 733 447 l 251 447 l 251 132 l 815 132 l 815 0 l 99 0 l 99 993 m 468 1292 l 628 1292 l 494 1100 l 386 1100 l 468 1292 z "},"Ê":{"ha":860,"x_min":99,"x_max":815,"o":"m 99 993 l 801 993 l 801 861 l 251 861 l 251 579 l 733 579 l 733 447 l 251 447 l 251 132 l 815 132 l 815 0 l 99 0 l 99 993 m 379 1292 l 526 1292 l 658 1100 l 528 1100 l 454 1224 l 451 1224 l 376 1100 l 247 1100 l 379 1292 z "},"Ë":{"ha":860,"x_min":99,"x_max":815,"o":"m 99 993 l 801 993 l 801 861 l 251 861 l 251 579 l 733 579 l 733 447 l 251 447 l 251 132 l 815 132 l 815 0 l 99 0 l 99 993 m 492 1267 l 646 1267 l 646 1119 l 492 1119 l 492 1267 m 258 1267 l 413 1267 l 413 1119 l 258 1119 l 258 1267 z "},"Ì":{"ha":350,"x_min":0,"x_max":251,"o":"m 99 993 l 251 993 l 251 0 l 99 0 l 99 993 m 0 1292 l 153 1292 l 224 1100 l 117 1100 l 0 1292 z "},"Í":{"ha":350,"x_min":99,"x_max":351,"o":"m 99 993 l 251 993 l 251 0 l 99 0 l 99 993 m 192 1292 l 351 1292 l 218 1100 l 110 1100 l 192 1292 z "},"Î":{"ha":350,"x_min":-31,"x_max":381,"o":"m 99 993 l 251 993 l 251 0 l 99 0 l 99 993 m 101 1292 l 249 1292 l 381 1100 l 250 1100 l 176 1224 l 174 1224 l 99 1100 l -31 1100 l 101 1292 z "},"Ï":{"ha":350,"x_min":-19,"x_max":368,"o":"m 99 993 l 251 993 l 251 0 l 99 0 l 99 993 m 214 1267 l 368 1267 l 368 1119 l 214 1119 l 214 1267 m -19 1267 l 135 1267 l 135 1119 l -19 1119 l -19 1267 z "},"Ð":{"ha":1006,"x_min":17,"x_max":951,"o":"m 132 463 l 17 463 l 17 565 l 132 565 l 132 993 l 510 993 q 835 863 718 993 q 951 496 951 733 q 836 129 951 258 q 513 0 721 0 l 132 0 l 132 463 m 503 132 q 793 496 793 132 q 503 861 793 861 l 285 861 l 285 565 l 553 565 l 553 463 l 285 463 l 285 132 l 503 132 z "},"Ñ":{"ha":990,"x_min":99,"x_max":892,"o":"m 99 993 l 274 993 l 735 229 l 738 229 l 738 993 l 892 993 l 892 0 l 717 0 l 254 764 l 251 764 l 251 0 l 99 0 l 99 993 m 289 1108 q 319 1219 289 1182 q 396 1256 350 1256 q 447 1248 422 1256 q 506 1225 471 1240 q 571 1204 553 1204 q 606 1253 606 1204 l 697 1253 q 667 1142 697 1178 q 590 1106 638 1106 q 542 1113 565 1106 q 481 1136 518 1121 q 446 1151 463 1144 q 417 1157 429 1157 q 381 1108 381 1157 l 289 1108 z "},"Ò":{"ha":1075,"x_min":50,"x_max":1025,"o":"m 538 -19 q 281 47 392 -19 q 110 231 171 114 q 50 497 50 349 q 110 763 50 646 q 281 947 171 881 q 538 1013 392 1013 q 794 947 683 1013 q 965 763 904 881 q 1025 497 1025 646 q 965 231 1025 349 q 794 47 904 114 q 538 -19 683 -19 m 210 497 q 291 222 210 331 q 538 113 372 113 q 784 222 703 113 q 865 497 865 331 q 784 772 865 664 q 538 881 703 881 q 291 772 372 881 q 210 497 210 664 m 363 1292 l 515 1292 l 586 1100 l 479 1100 l 363 1292 z "},"Ó":{"ha":1075,"x_min":50,"x_max":1025,"o":"m 538 -19 q 281 47 392 -19 q 110 231 171 114 q 50 497 50 349 q 110 763 50 646 q 281 947 171 881 q 538 1013 392 1013 q 794 947 683 1013 q 965 763 904 881 q 1025 497 1025 646 q 965 231 1025 349 q 794 47 904 114 q 538 -19 683 -19 m 210 497 q 291 222 210 331 q 538 113 372 113 q 784 222 703 113 q 865 497 865 331 q 784 772 865 664 q 538 881 703 881 q 291 772 372 881 q 210 497 210 664 m 554 1292 l 714 1292 l 581 1100 l 472 1100 l 554 1292 z "},"Ô":{"ha":1075,"x_min":50,"x_max":1025,"o":"m 538 -19 q 281 47 392 -19 q 110 231 171 114 q 50 497 50 349 q 110 763 50 646 q 281 947 171 881 q 538 1013 392 1013 q 794 947 683 1013 q 965 763 904 881 q 1025 497 1025 646 q 965 231 1025 349 q 794 47 904 114 q 538 -19 683 -19 m 210 497 q 291 222 210 331 q 538 113 372 113 q 784 222 703 113 q 865 497 865 331 q 784 772 865 664 q 538 881 703 881 q 291 772 372 881 q 210 497 210 664 m 464 1292 l 611 1292 l 743 1100 l 613 1100 l 539 1224 l 536 1224 l 461 1100 l 332 1100 l 464 1292 z "},"Õ":{"ha":1075,"x_min":50,"x_max":1025,"o":"m 538 -19 q 281 47 392 -19 q 110 231 171 114 q 50 497 50 349 q 110 763 50 646 q 281 947 171 881 q 538 1013 392 1013 q 794 947 683 1013 q 965 763 904 881 q 1025 497 1025 646 q 965 231 1025 349 q 794 47 904 114 q 538 -19 683 -19 m 210 497 q 291 222 210 331 q 538 113 372 113 q 784 222 703 113 q 865 497 865 331 q 784 772 865 664 q 538 881 703 881 q 291 772 372 881 q 210 497 210 664 m 331 1108 q 361 1219 331 1182 q 438 1256 392 1256 q 488 1248 464 1256 q 547 1225 513 1240 q 613 1204 594 1204 q 647 1253 647 1204 l 739 1253 q 709 1142 739 1178 q 632 1106 679 1106 q 583 1113 607 1106 q 522 1136 560 1121 q 488 1151 504 1144 q 458 1157 471 1157 q 422 1108 422 1157 l 331 1108 z "},"Ö":{"ha":1075,"x_min":50,"x_max":1025,"o":"m 538 -19 q 281 47 392 -19 q 110 231 171 114 q 50 497 50 349 q 110 763 50 646 q 281 947 171 881 q 538 1013 392 1013 q 794 947 683 1013 q 965 763 904 881 q 1025 497 1025 646 q 965 231 1025 349 q 794 47 904 114 q 538 -19 683 -19 m 210 497 q 291 222 210 331 q 538 113 372 113 q 784 222 703 113 q 865 497 865 331 q 784 772 865 664 q 538 881 703 881 q 291 772 372 881 q 210 497 210 664 m 576 1267 l 731 1267 l 731 1119 l 576 1119 l 576 1267 m 343 1267 l 497 1267 l 497 1119 l 343 1119 l 343 1267 z "},"×":{"ha":774,"x_min":88,"x_max":686,"o":"m 88 246 l 294 453 l 88 660 l 179 751 l 388 544 l 594 751 l 686 660 l 479 453 l 686 246 l 594 153 l 388 361 l 179 153 l 88 246 z "},"Ø":{"ha":1082,"x_min":50,"x_max":1032,"o":"m 50 57 l 156 164 q 81 315 107 231 q 54 497 54 400 q 115 763 54 646 q 285 947 175 881 q 542 1013 396 1013 q 728 980 643 1013 q 878 886 814 947 l 979 989 l 1032 939 l 925 832 q 1002 681 975 765 q 1029 497 1029 596 q 969 231 1029 349 q 798 47 908 114 q 542 -19 688 -19 q 353 14 439 -19 q 204 110 268 47 l 100 6 l 50 57 m 214 497 q 263 271 214 364 l 776 786 q 542 881 690 881 q 295 772 376 881 q 214 497 214 664 m 304 210 q 542 113 390 113 q 788 222 707 113 q 869 497 869 331 q 819 725 869 633 l 304 210 z "},"Ù":{"ha":960,"x_min":92,"x_max":868,"o":"m 479 -19 q 187 75 282 -19 q 92 338 92 169 l 92 993 l 244 993 l 244 338 q 303 167 244 222 q 479 113 361 113 q 656 167 599 113 q 714 338 714 222 l 714 993 l 868 993 l 868 338 q 773 75 868 169 q 479 -19 678 -19 m 304 1292 l 457 1292 l 528 1100 l 421 1100 l 304 1292 z "},"Ú":{"ha":960,"x_min":92,"x_max":868,"o":"m 479 -19 q 187 75 282 -19 q 92 338 92 169 l 92 993 l 244 993 l 244 338 q 303 167 244 222 q 479 113 361 113 q 656 167 599 113 q 714 338 714 222 l 714 993 l 868 993 l 868 338 q 773 75 868 169 q 479 -19 678 -19 m 496 1292 l 656 1292 l 522 1100 l 414 1100 l 496 1292 z "},"Û":{"ha":960,"x_min":92,"x_max":868,"o":"m 479 -19 q 187 75 282 -19 q 92 338 92 169 l 92 993 l 244 993 l 244 338 q 303 167 244 222 q 479 113 361 113 q 656 167 599 113 q 714 338 714 222 l 714 993 l 868 993 l 868 338 q 773 75 868 169 q 479 -19 678 -19 m 406 1292 l 553 1292 l 685 1100 l 554 1100 l 481 1224 l 478 1224 l 403 1100 l 274 1100 l 406 1292 z "},"Ü":{"ha":960,"x_min":92,"x_max":868,"o":"m 479 -19 q 187 75 282 -19 q 92 338 92 169 l 92 993 l 244 993 l 244 338 q 303 167 244 222 q 479 113 361 113 q 656 167 599 113 q 714 338 714 222 l 714 993 l 868 993 l 868 338 q 773 75 868 169 q 479 -19 678 -19 m 519 1267 l 674 1267 l 674 1119 l 519 1119 l 519 1267 m 286 1267 l 440 1267 l 440 1119 l 286 1119 l 286 1267 z "},"Ý":{"ha":885,"x_min":10,"x_max":875,"o":"m 365 397 l 10 993 l 175 993 l 442 518 l 444 518 l 711 993 l 875 993 l 519 397 l 519 0 l 365 0 l 365 397 m 460 1292 l 619 1292 l 486 1100 l 378 1100 l 460 1292 z "},"Þ":{"ha":867,"x_min":99,"x_max":838,"o":"m 99 993 l 251 993 l 251 833 l 513 833 q 749 760 661 833 q 838 538 838 688 q 749 315 838 388 q 513 242 661 242 l 251 242 l 251 0 l 99 0 l 99 993 m 511 375 q 642 415 599 375 q 685 538 685 454 q 642 660 685 621 q 511 700 599 700 l 251 700 l 251 375 l 511 375 z "},"ß":{"ha":740,"x_min":76,"x_max":701,"o":"m 425 -19 q 293 0 363 -19 l 293 113 q 392 94 346 94 q 517 147 474 94 q 560 285 560 200 q 499 442 560 389 q 343 496 438 496 l 304 496 l 304 603 l 339 603 q 463 643 411 603 q 514 760 514 683 q 479 860 514 821 q 369 900 444 900 q 248 846 283 900 q 213 694 213 792 l 213 0 l 76 0 l 76 713 q 153 933 76 854 q 369 1013 231 1013 q 579 944 501 1013 q 657 765 657 876 q 501 551 657 618 l 501 549 q 649 447 596 517 q 701 267 701 378 q 627 58 701 136 q 425 -19 553 -19 z "},"à":{"ha":738,"x_min":40,"x_max":699,"o":"m 272 -19 q 103 36 167 -19 q 40 183 40 92 q 76 306 40 260 q 174 378 111 353 q 336 422 238 404 q 439 445 404 435 q 494 474 474 456 q 515 526 515 493 q 381 621 515 621 q 254 590 290 621 q 213 488 218 560 l 74 488 q 156 664 79 597 q 386 731 232 731 q 577 673 506 731 q 649 486 649 615 l 649 161 q 656 102 649 121 q 682 83 663 83 l 699 85 l 699 1 q 629 -7 664 -7 q 549 17 576 -7 q 517 100 522 42 l 514 100 q 418 12 479 43 q 272 -19 357 -19 m 182 193 q 303 90 182 90 q 457 138 399 90 q 515 276 515 186 l 515 378 q 462 352 500 364 q 360 326 424 340 q 223 277 264 307 q 182 193 182 247 m 206 1007 l 358 1007 l 429 815 l 322 815 l 206 1007 z "},"á":{"ha":738,"x_min":40,"x_max":699,"o":"m 272 -19 q 103 36 167 -19 q 40 183 40 92 q 76 306 40 260 q 174 378 111 353 q 336 422 238 404 q 439 445 404 435 q 494 474 474 456 q 515 526 515 493 q 381 621 515 621 q 254 590 290 621 q 213 488 218 560 l 74 488 q 156 664 79 597 q 386 731 232 731 q 577 673 506 731 q 649 486 649 615 l 649 161 q 656 102 649 121 q 682 83 663 83 l 699 85 l 699 1 q 629 -7 664 -7 q 549 17 576 -7 q 517 100 522 42 l 514 100 q 418 12 479 43 q 272 -19 357 -19 m 182 193 q 303 90 182 90 q 457 138 399 90 q 515 276 515 186 l 515 378 q 462 352 500 364 q 360 326 424 340 q 223 277 264 307 q 182 193 182 247 m 396 1007 l 556 1007 l 422 815 l 314 815 l 396 1007 z "},"â":{"ha":738,"x_min":40,"x_max":699,"o":"m 272 -19 q 103 36 167 -19 q 40 183 40 92 q 76 306 40 260 q 174 378 111 353 q 336 422 238 404 q 439 445 404 435 q 494 474 474 456 q 515 526 515 493 q 381 621 515 621 q 254 590 290 621 q 213 488 218 560 l 74 488 q 156 664 79 597 q 386 731 232 731 q 577 673 506 731 q 649 486 649 615 l 649 161 q 656 102 649 121 q 682 83 663 83 l 699 85 l 699 1 q 629 -7 664 -7 q 549 17 576 -7 q 517 100 522 42 l 514 100 q 418 12 479 43 q 272 -19 357 -19 m 182 193 q 303 90 182 90 q 457 138 399 90 q 515 276 515 186 l 515 378 q 462 352 500 364 q 360 326 424 340 q 223 277 264 307 q 182 193 182 247 m 306 1007 l 453 1007 l 585 815 l 454 815 l 381 939 l 378 939 l 303 815 l 174 815 l 306 1007 z "},"ã":{"ha":738,"x_min":40,"x_max":699,"o":"m 272 -19 q 103 36 167 -19 q 40 183 40 92 q 76 306 40 260 q 174 378 111 353 q 336 422 238 404 q 439 445 404 435 q 494 474 474 456 q 515 526 515 493 q 381 621 515 621 q 254 590 290 621 q 213 488 218 560 l 74 488 q 156 664 79 597 q 386 731 232 731 q 577 673 506 731 q 649 486 649 615 l 649 161 q 656 102 649 121 q 682 83 663 83 l 699 85 l 699 1 q 629 -7 664 -7 q 549 17 576 -7 q 517 100 522 42 l 514 100 q 418 12 479 43 q 272 -19 357 -19 m 182 193 q 303 90 182 90 q 457 138 399 90 q 515 276 515 186 l 515 378 q 462 352 500 364 q 360 326 424 340 q 223 277 264 307 q 182 193 182 247 m 174 824 q 204 934 174 897 q 281 971 235 971 q 331 963 307 971 q 390 940 356 956 q 456 919 438 919 q 490 968 490 919 l 582 968 q 552 857 582 893 q 475 821 522 821 q 426 828 450 821 q 365 851 403 836 q 331 866 347 860 q 301 872 314 872 q 265 824 265 872 l 174 824 z "},"ä":{"ha":738,"x_min":40,"x_max":699,"o":"m 272 -19 q 103 36 167 -19 q 40 183 40 92 q 76 306 40 260 q 174 378 111 353 q 336 422 238 404 q 439 445 404 435 q 494 474 474 456 q 515 526 515 493 q 381 621 515 621 q 254 590 290 621 q 213 488 218 560 l 74 488 q 156 664 79 597 q 386 731 232 731 q 577 673 506 731 q 649 486 649 615 l 649 161 q 656 102 649 121 q 682 83 663 83 l 699 85 l 699 1 q 629 -7 664 -7 q 549 17 576 -7 q 517 100 522 42 l 514 100 q 418 12 479 43 q 272 -19 357 -19 m 182 193 q 303 90 182 90 q 457 138 399 90 q 515 276 515 186 l 515 378 q 462 352 500 364 q 360 326 424 340 q 223 277 264 307 q 182 193 182 247 m 419 982 l 574 982 l 574 835 l 419 835 l 419 982 m 186 982 l 340 982 l 340 835 l 186 835 l 186 982 z "},"å":{"ha":738,"x_min":40,"x_max":699,"o":"m 272 -19 q 103 36 167 -19 q 40 183 40 92 q 76 306 40 260 q 174 378 111 353 q 336 422 238 404 q 439 445 404 435 q 494 474 474 456 q 515 526 515 493 q 381 621 515 621 q 254 590 290 621 q 213 488 218 560 l 74 488 q 156 664 79 597 q 386 731 232 731 q 577 673 506 731 q 649 486 649 615 l 649 161 q 656 102 649 121 q 682 83 663 83 l 699 85 l 699 1 q 629 -7 664 -7 q 549 17 576 -7 q 517 100 522 42 l 514 100 q 418 12 479 43 q 272 -19 357 -19 m 182 193 q 303 90 182 90 q 457 138 399 90 q 515 276 515 186 l 515 378 q 462 352 500 364 q 360 326 424 340 q 223 277 264 307 q 182 193 182 247 m 378 771 q 286 806 322 771 q 250 899 250 842 q 286 991 250 956 q 378 1026 322 1026 q 471 991 435 1026 q 507 899 507 956 q 471 806 507 842 q 378 771 435 771 m 315 899 q 333 850 315 868 q 378 832 350 832 q 425 850 407 832 q 443 899 443 868 q 425 947 443 928 q 378 965 407 965 q 333 947 350 965 q 315 899 315 928 z "},"æ":{"ha":1238,"x_min":40,"x_max":1199,"o":"m 281 -19 q 104 36 168 -19 q 40 183 40 92 q 76 306 40 260 q 174 378 111 353 q 336 422 238 404 q 439 445 404 435 q 494 474 474 456 q 515 526 515 493 q 381 621 515 621 q 254 591 290 621 q 213 488 218 561 l 74 488 q 154 664 79 597 q 379 731 229 731 q 517 706 457 731 q 611 631 578 682 q 721 705 657 679 q 863 731 785 731 q 1110 633 1022 731 q 1199 369 1199 536 q 1197 318 1199 329 l 653 318 q 710 156 656 222 q 865 90 765 90 q 994 131 949 90 q 1051 218 1039 171 l 1190 218 q 1078 44 1160 110 q 863 -21 996 -21 q 692 17 765 -21 q 575 124 619 56 q 448 15 525 50 q 281 -19 371 -19 m 182 193 q 301 90 182 90 q 460 140 407 90 q 514 275 514 190 l 514 317 q 513 356 513 329 l 513 375 q 460 351 497 363 q 360 326 422 340 q 223 277 264 307 q 182 193 182 247 m 1057 425 q 1002 565 1057 510 q 858 619 947 619 q 715 566 772 619 q 653 425 658 513 l 1057 425 z "},"ç":{"ha":738,"x_min":39,"x_max":706,"o":"m 367 -275 q 217 -232 285 -275 l 249 -193 q 343 -214 300 -214 q 394 -201 376 -214 q 411 -165 411 -187 q 358 -124 411 -124 q 303 -133 328 -124 l 282 -103 l 351 -19 q 186 38 257 -11 q 77 168 115 86 q 39 354 39 250 q 82 549 39 464 q 203 682 125 635 q 386 729 282 729 q 544 694 475 729 q 656 595 614 658 q 706 451 697 532 l 565 451 q 517 567 558 518 q 388 617 475 617 q 231 541 282 617 q 181 354 181 465 q 231 168 181 243 q 388 93 282 93 q 518 142 476 93 q 565 263 560 190 l 706 263 q 624 72 699 149 q 429 -18 549 -6 l 382 -74 l 382 -76 q 406 -75 390 -75 q 486 -98 453 -75 q 519 -167 519 -121 q 475 -248 519 -221 q 367 -275 431 -275 z "},"è":{"ha":765,"x_min":40,"x_max":726,"o":"m 390 -21 q 201 28 281 -21 q 81 161 122 76 q 40 356 40 246 q 83 551 40 467 q 204 683 125 636 q 390 731 283 731 q 638 633 550 731 q 726 369 726 536 q 725 318 726 329 l 181 318 q 238 156 183 222 q 393 90 293 90 q 522 131 476 90 q 579 218 567 171 l 718 218 q 606 44 688 110 q 390 -21 524 -21 m 585 425 q 530 565 585 510 q 386 619 475 619 q 243 566 300 619 q 181 425 186 513 l 585 425 m 208 1010 l 361 1010 l 432 818 l 325 818 l 208 1010 z "},"é":{"ha":765,"x_min":40,"x_max":726,"o":"m 390 -21 q 201 28 281 -21 q 81 161 122 76 q 40 356 40 246 q 83 551 40 467 q 204 683 125 636 q 390 731 283 731 q 638 633 550 731 q 726 369 726 536 q 725 318 726 329 l 181 318 q 238 156 183 222 q 393 90 293 90 q 522 131 476 90 q 579 218 567 171 l 718 218 q 606 44 688 110 q 390 -21 524 -21 m 585 425 q 530 565 585 510 q 386 619 475 619 q 243 566 300 619 q 181 425 186 513 l 585 425 m 400 1010 l 560 1010 l 426 818 l 318 818 l 400 1010 z "},"ê":{"ha":765,"x_min":40,"x_max":726,"o":"m 390 -21 q 201 28 281 -21 q 81 161 122 76 q 40 356 40 246 q 83 551 40 467 q 204 683 125 636 q 390 731 283 731 q 638 633 550 731 q 726 369 726 536 q 725 318 726 329 l 181 318 q 238 156 183 222 q 393 90 293 90 q 522 131 476 90 q 579 218 567 171 l 718 218 q 606 44 688 110 q 390 -21 524 -21 m 585 425 q 530 565 585 510 q 386 619 475 619 q 243 566 300 619 q 181 425 186 513 l 585 425 m 310 1010 l 457 1010 l 589 818 l 458 818 l 385 942 l 382 942 l 307 818 l 178 818 l 310 1010 z "},"ë":{"ha":765,"x_min":40,"x_max":726,"o":"m 390 -21 q 201 28 281 -21 q 81 161 122 76 q 40 356 40 246 q 83 551 40 467 q 204 683 125 636 q 390 731 283 731 q 638 633 550 731 q 726 369 726 536 q 725 318 726 329 l 181 318 q 238 156 183 222 q 393 90 293 90 q 522 131 476 90 q 579 218 567 171 l 718 218 q 606 44 688 110 q 390 -21 524 -21 m 585 425 q 530 565 585 510 q 386 619 475 619 q 243 566 300 619 q 181 425 186 513 l 585 425 m 422 985 l 576 985 l 576 838 l 422 838 l 422 985 m 189 985 l 343 985 l 343 838 l 189 838 l 189 985 z "},"ì":{"ha":289,"x_min":-31,"x_max":213,"o":"m 76 708 l 213 708 l 213 0 l 76 0 l 76 708 m -31 1007 l 122 1007 l 193 815 l 86 815 l -31 1007 z "},"í":{"ha":289,"x_min":76,"x_max":321,"o":"m 76 708 l 213 708 l 213 0 l 76 0 l 76 708 m 161 1007 l 321 1007 l 188 815 l 79 815 l 161 1007 z "},"î":{"ha":289,"x_min":-61,"x_max":350,"o":"m 76 708 l 213 708 l 213 0 l 76 0 l 76 708 m 71 1007 l 218 1007 l 350 815 l 219 815 l 146 939 l 143 939 l 68 815 l -61 815 l 71 1007 z "},"ï":{"ha":289,"x_min":-50,"x_max":338,"o":"m 76 708 l 213 708 l 213 0 l 76 0 l 76 708 m 183 982 l 338 982 l 338 835 l 183 835 l 183 982 m -50 982 l 104 982 l 104 835 l -50 835 l -50 982 z "},"ð":{"ha":792,"x_min":39,"x_max":746,"o":"m 386 -22 q 131 81 222 -22 q 39 357 39 183 q 84 555 39 471 q 206 684 129 639 q 375 729 283 729 q 494 699 439 729 q 585 619 550 669 q 451 825 551 725 l 235 768 l 215 850 l 376 893 q 232 993 314 943 l 413 993 q 506 928 454 971 l 683 975 l 704 893 l 576 858 q 699 664 651 774 q 746 418 746 554 q 709 203 746 303 q 592 40 672 103 q 386 -22 511 -22 m 175 357 q 231 168 175 243 q 386 93 286 93 q 503 128 453 93 q 580 224 553 164 q 607 357 607 285 q 580 489 607 429 q 503 583 553 549 q 386 618 453 618 q 231 544 286 618 q 175 357 175 471 z "},"ñ":{"ha":756,"x_min":76,"x_max":685,"o":"m 549 454 q 513 571 549 529 q 404 613 478 613 q 265 564 317 613 q 213 435 213 515 l 213 0 l 76 0 l 76 708 l 213 708 l 213 619 l 215 619 q 306 698 247 667 q 449 729 364 729 q 619 669 553 729 q 685 492 685 608 l 685 0 l 549 0 l 549 454 m 183 824 q 214 934 183 897 q 290 971 244 971 q 341 963 317 971 q 400 940 365 956 q 465 919 447 919 q 500 968 500 919 l 592 968 q 562 857 592 893 q 485 821 532 821 q 436 828 460 821 q 375 851 413 836 q 340 866 357 860 q 311 872 324 872 q 275 824 275 872 l 183 824 z "},"ò":{"ha":786,"x_min":39,"x_max":747,"o":"m 393 -21 q 204 26 285 -21 q 81 158 124 74 q 39 354 39 243 q 82 550 39 465 q 205 683 125 635 q 394 731 285 731 q 583 683 503 731 q 705 551 663 636 q 747 356 747 465 q 704 159 747 244 q 581 26 661 74 q 393 -21 501 -21 m 181 354 q 235 165 181 238 q 394 92 289 92 q 552 165 499 92 q 606 354 606 238 q 552 544 606 471 q 394 617 499 617 q 235 544 289 617 q 181 354 181 472 m 219 1010 l 372 1010 l 443 818 l 336 818 l 219 1010 z "},"ó":{"ha":786,"x_min":39,"x_max":747,"o":"m 393 -21 q 204 26 285 -21 q 81 158 124 74 q 39 354 39 243 q 82 550 39 465 q 205 683 125 635 q 394 731 285 731 q 583 683 503 731 q 705 551 663 636 q 747 356 747 465 q 704 159 747 244 q 581 26 661 74 q 393 -21 501 -21 m 181 354 q 235 165 181 238 q 394 92 289 92 q 552 165 499 92 q 606 354 606 238 q 552 544 606 471 q 394 617 499 617 q 235 544 289 617 q 181 354 181 472 m 410 1010 l 569 1010 l 436 818 l 328 818 l 410 1010 z "},"ô":{"ha":786,"x_min":39,"x_max":747,"o":"m 393 -21 q 204 26 285 -21 q 81 158 124 74 q 39 354 39 243 q 82 550 39 465 q 205 683 125 635 q 394 731 285 731 q 583 683 503 731 q 705 551 663 636 q 747 356 747 465 q 704 159 747 244 q 581 26 661 74 q 393 -21 501 -21 m 181 354 q 235 165 181 238 q 394 92 289 92 q 552 165 499 92 q 606 354 606 238 q 552 544 606 471 q 394 617 499 617 q 235 544 289 617 q 181 354 181 472 m 321 1010 l 468 1010 l 600 818 l 469 818 l 396 942 l 393 942 l 318 818 l 189 818 l 321 1010 z "},"õ":{"ha":786,"x_min":39,"x_max":747,"o":"m 393 -21 q 204 26 285 -21 q 81 158 124 74 q 39 354 39 243 q 82 550 39 465 q 205 683 125 635 q 394 731 285 731 q 583 683 503 731 q 705 551 663 636 q 747 356 747 465 q 704 159 747 244 q 581 26 661 74 q 393 -21 501 -21 m 181 354 q 235 165 181 238 q 394 92 289 92 q 552 165 499 92 q 606 354 606 238 q 552 544 606 471 q 394 617 499 617 q 235 544 289 617 q 181 354 181 472 m 188 826 q 218 937 188 900 q 294 974 249 974 q 345 966 321 974 q 404 943 369 958 q 469 922 451 922 q 504 971 504 922 l 596 971 q 566 860 596 896 q 489 824 536 824 q 440 831 464 824 q 379 854 417 839 q 344 869 361 863 q 315 875 328 875 q 279 826 279 875 l 188 826 z "},"ö":{"ha":786,"x_min":39,"x_max":747,"o":"m 393 -21 q 204 26 285 -21 q 81 158 124 74 q 39 354 39 243 q 82 550 39 465 q 205 683 125 635 q 394 731 285 731 q 583 683 503 731 q 705 551 663 636 q 747 356 747 465 q 704 159 747 244 q 581 26 661 74 q 393 -21 501 -21 m 181 354 q 235 165 181 238 q 394 92 289 92 q 552 165 499 92 q 606 354 606 238 q 552 544 606 471 q 394 617 499 617 q 235 544 289 617 q 181 354 181 472 m 433 985 l 588 985 l 588 838 l 433 838 l 433 985 m 200 985 l 354 985 l 354 838 l 200 838 l 200 985 z "},"÷":{"ha":774,"x_min":67,"x_max":707,"o":"m 311 772 l 463 772 l 463 621 l 311 621 l 311 772 m 311 289 l 463 289 l 463 138 l 311 138 l 311 289 m 67 518 l 707 518 l 707 389 l 67 389 l 67 518 z "},"ø":{"ha":799,"x_min":32,"x_max":767,"o":"m 32 36 l 113 117 q 46 354 46 215 q 89 550 46 465 q 212 683 132 635 q 401 731 292 731 q 639 646 547 731 l 717 724 l 767 672 l 688 592 q 754 356 754 494 q 711 159 754 244 q 588 26 668 74 q 400 -21 508 -21 q 160 64 253 -21 l 81 -15 l 32 36 m 188 354 q 213 217 188 278 l 550 556 q 401 617 496 617 q 242 544 296 617 q 188 354 188 472 m 250 154 q 401 92 306 92 q 559 165 506 92 q 613 354 613 238 q 588 493 613 433 l 250 154 z "},"ù":{"ha":756,"x_min":71,"x_max":679,"o":"m 307 -19 q 137 41 203 -19 q 71 218 71 101 l 71 708 l 207 708 l 207 256 q 242 138 207 181 q 351 96 278 96 q 491 144 439 96 q 543 274 543 193 l 543 708 l 679 708 l 679 0 l 543 0 l 543 89 l 540 89 q 450 11 508 42 q 307 -19 392 -19 m 189 1007 l 342 1007 l 413 815 l 306 815 l 189 1007 z "},"ú":{"ha":756,"x_min":71,"x_max":679,"o":"m 307 -19 q 137 41 203 -19 q 71 218 71 101 l 71 708 l 207 708 l 207 256 q 242 138 207 181 q 351 96 278 96 q 491 144 439 96 q 543 274 543 193 l 543 708 l 679 708 l 679 0 l 543 0 l 543 89 l 540 89 q 450 11 508 42 q 307 -19 392 -19 m 381 1007 l 540 1007 l 407 815 l 299 815 l 381 1007 z "},"û":{"ha":756,"x_min":71,"x_max":679,"o":"m 307 -19 q 137 41 203 -19 q 71 218 71 101 l 71 708 l 207 708 l 207 256 q 242 138 207 181 q 351 96 278 96 q 491 144 439 96 q 543 274 543 193 l 543 708 l 679 708 l 679 0 l 543 0 l 543 89 l 540 89 q 450 11 508 42 q 307 -19 392 -19 m 290 1007 l 438 1007 l 569 815 l 439 815 l 365 939 l 363 939 l 288 815 l 158 815 l 290 1007 z "},"ü":{"ha":756,"x_min":71,"x_max":679,"o":"m 307 -19 q 137 41 203 -19 q 71 218 71 101 l 71 708 l 207 708 l 207 256 q 242 138 207 181 q 351 96 278 96 q 491 144 439 96 q 543 274 543 193 l 543 708 l 679 708 l 679 0 l 543 0 l 543 89 l 540 89 q 450 11 508 42 q 307 -19 392 -19 m 403 982 l 557 982 l 557 835 l 403 835 l 403 982 m 169 982 l 324 982 l 324 835 l 169 835 l 169 982 z "},"ý":{"ha":701,"x_min":-1,"x_max":694,"o":"m 168 -249 q 81 -239 131 -249 l 81 -128 q 139 -132 117 -132 q 226 -101 186 -132 q 285 7 265 -69 l -1 708 l 147 708 l 354 167 l 357 167 l 551 708 l 694 708 l 414 -17 q 308 -197 364 -146 q 168 -249 251 -249 m 364 1007 l 524 1007 l 390 815 l 282 815 l 364 1007 z "},"þ":{"ha":792,"x_min":76,"x_max":751,"o":"m 433 -19 q 301 10 356 -19 q 215 88 247 40 l 213 88 l 213 -246 l 76 -246 l 76 993 l 213 993 l 213 625 l 215 625 q 433 729 296 729 q 596 683 524 729 q 710 553 668 638 q 751 354 751 468 q 710 156 751 240 q 596 26 668 71 q 433 -19 524 -19 m 214 354 q 267 163 214 233 q 411 93 319 93 q 558 168 507 93 q 608 354 608 243 q 558 540 608 465 q 411 615 507 615 q 267 545 319 615 q 214 354 214 475 z "},"ÿ":{"ha":701,"x_min":-1,"x_max":694,"o":"m 168 -249 q 81 -239 131 -249 l 81 -128 q 139 -132 117 -132 q 226 -101 186 -132 q 285 7 265 -69 l -1 708 l 147 708 l 354 167 l 357 167 l 551 708 l 694 708 l 414 -17 q 308 -197 364 -146 q 168 -249 251 -249 m 386 982 l 540 982 l 540 835 l 386 835 l 386 982 m 153 982 l 307 982 l 307 835 l 153 835 l 153 982 z "},"Ā":{"ha":917,"x_min":6,"x_max":913,"o":"m 375 993 l 540 993 l 913 0 l 746 0 l 664 239 l 249 239 l 167 0 l 6 0 l 375 993 m 621 368 l 458 851 l 456 851 l 294 368 l 621 368 m 274 1226 l 640 1226 l 640 1119 l 274 1119 l 274 1226 z "},"ā":{"ha":738,"x_min":40,"x_max":699,"o":"m 272 -19 q 103 36 167 -19 q 40 183 40 92 q 76 306 40 260 q 174 378 111 353 q 336 422 238 404 q 439 445 404 435 q 494 474 474 456 q 515 526 515 493 q 381 621 515 621 q 254 590 290 621 q 213 488 218 560 l 74 488 q 156 664 79 597 q 386 731 232 731 q 577 673 506 731 q 649 486 649 615 l 649 161 q 656 102 649 121 q 682 83 663 83 l 699 85 l 699 1 q 629 -7 664 -7 q 549 17 576 -7 q 517 100 522 42 l 514 100 q 418 12 479 43 q 272 -19 357 -19 m 182 193 q 303 90 182 90 q 457 138 399 90 q 515 276 515 186 l 515 378 q 462 352 500 364 q 360 326 424 340 q 223 277 264 307 q 182 193 182 247 m 196 942 l 563 942 l 563 835 l 196 835 l 196 942 z "},"Ă":{"ha":917,"x_min":6,"x_max":913,"o":"m 375 993 l 540 993 l 913 0 l 746 0 l 664 239 l 249 239 l 167 0 l 6 0 l 375 993 m 621 368 l 458 851 l 456 851 l 294 368 l 621 368 m 458 1086 q 325 1135 376 1086 q 271 1278 274 1185 l 364 1278 q 390 1205 367 1228 q 458 1182 414 1182 q 526 1205 503 1182 q 551 1278 549 1228 l 644 1278 q 590 1136 640 1186 q 458 1086 540 1086 z "},"ă":{"ha":738,"x_min":40,"x_max":699,"o":"m 272 -19 q 103 36 167 -19 q 40 183 40 92 q 76 306 40 260 q 174 378 111 353 q 336 422 238 404 q 439 445 404 435 q 494 474 474 456 q 515 526 515 493 q 381 621 515 621 q 254 590 290 621 q 213 488 218 560 l 74 488 q 156 664 79 597 q 386 731 232 731 q 577 673 506 731 q 649 486 649 615 l 649 161 q 656 102 649 121 q 682 83 663 83 l 699 85 l 699 1 q 629 -7 664 -7 q 549 17 576 -7 q 517 100 522 42 l 514 100 q 418 12 479 43 q 272 -19 357 -19 m 182 193 q 303 90 182 90 q 457 138 399 90 q 515 276 515 186 l 515 378 q 462 352 500 364 q 360 326 424 340 q 223 277 264 307 q 182 193 182 247 m 381 801 q 247 851 299 801 q 193 993 196 900 l 286 993 q 313 920 289 943 q 381 897 336 897 q 448 920 425 897 q 474 993 471 943 l 567 993 q 513 851 563 901 q 381 801 463 801 z "},"Ą":{"ha":917,"x_min":6,"x_max":913,"o":"m 375 993 l 540 993 l 913 0 l 746 0 l 664 239 l 249 239 l 167 0 l 6 0 l 375 993 m 621 368 l 458 851 l 456 851 l 294 368 l 621 368 m 808 -246 q 710 -217 744 -246 q 675 -140 675 -189 q 706 -58 675 -96 q 779 0 738 -21 l 875 0 q 789 -111 789 -68 q 803 -141 789 -131 q 839 -151 817 -151 q 904 -139 869 -151 l 904 -232 q 808 -246 858 -246 z "},"ą":{"ha":738,"x_min":40,"x_max":728,"o":"m 272 -19 q 103 36 167 -19 q 40 183 40 92 q 76 306 40 260 q 174 378 111 353 q 336 422 238 404 q 439 445 404 435 q 494 474 474 456 q 515 526 515 493 q 381 621 515 621 q 254 590 290 621 q 213 488 218 560 l 74 488 q 156 664 79 597 q 386 731 232 731 q 577 673 506 731 q 649 486 649 615 l 649 161 q 656 102 649 121 q 682 83 663 83 l 699 85 l 699 1 q 613 -110 613 -67 q 626 -140 613 -129 q 663 -150 640 -150 q 728 -137 693 -150 l 728 -231 q 632 -244 682 -244 q 533 -216 568 -244 q 499 -139 499 -187 q 526 -60 499 -96 q 593 -4 554 -25 q 540 28 558 3 q 517 100 522 53 l 514 100 q 418 12 479 43 q 272 -19 357 -19 m 182 193 q 303 90 182 90 q 457 138 399 90 q 515 276 515 186 l 515 378 q 462 352 500 364 q 360 326 424 340 q 223 277 264 307 q 182 193 182 247 z "},"Ć":{"ha":981,"x_min":50,"x_max":942,"o":"m 514 -19 q 270 47 375 -19 q 108 230 165 113 q 50 496 50 347 q 108 763 50 644 q 271 947 165 881 q 515 1013 376 1013 q 728 965 636 1013 q 875 838 821 918 q 942 656 929 757 l 782 656 q 703 815 765 749 q 513 881 640 881 q 284 771 358 881 q 210 497 210 661 q 284 222 210 332 q 513 113 358 113 q 709 184 644 113 q 782 361 774 256 l 942 361 q 876 164 931 250 q 729 29 822 78 q 514 -19 636 -19 m 532 1292 l 692 1292 l 558 1100 l 450 1100 l 532 1292 z "},"ć":{"ha":738,"x_min":39,"x_max":706,"o":"m 388 -21 q 204 26 283 -21 q 82 159 125 74 q 39 354 39 244 q 82 549 39 464 q 203 682 125 635 q 386 729 282 729 q 544 694 475 729 q 656 595 614 658 q 706 451 697 532 l 565 451 q 517 567 558 518 q 388 617 475 617 q 231 541 282 617 q 181 354 181 465 q 231 168 181 243 q 388 93 282 93 q 518 142 476 93 q 565 263 560 190 l 706 263 q 660 117 701 182 q 547 16 618 53 q 388 -21 476 -21 m 403 1007 l 563 1007 l 429 815 l 321 815 l 403 1007 z "},"Ĉ":{"ha":981,"x_min":50,"x_max":942,"o":"m 514 -19 q 270 47 375 -19 q 108 230 165 113 q 50 496 50 347 q 108 763 50 644 q 271 947 165 881 q 515 1013 376 1013 q 728 965 636 1013 q 875 838 821 918 q 942 656 929 757 l 782 656 q 703 815 765 749 q 513 881 640 881 q 284 771 358 881 q 210 497 210 661 q 284 222 210 332 q 513 113 358 113 q 709 184 644 113 q 782 361 774 256 l 942 361 q 876 164 931 250 q 729 29 822 78 q 514 -19 636 -19 m 442 1292 l 589 1292 l 721 1100 l 590 1100 l 517 1224 l 514 1224 l 439 1100 l 310 1100 l 442 1292 z "},"ĉ":{"ha":738,"x_min":39,"x_max":706,"o":"m 388 -21 q 204 26 283 -21 q 82 159 125 74 q 39 354 39 244 q 82 549 39 464 q 203 682 125 635 q 386 729 282 729 q 544 694 475 729 q 656 595 614 658 q 706 451 697 532 l 565 451 q 517 567 558 518 q 388 617 475 617 q 231 541 282 617 q 181 354 181 465 q 231 168 181 243 q 388 93 282 93 q 518 142 476 93 q 565 263 560 190 l 706 263 q 660 117 701 182 q 547 16 618 53 q 388 -21 476 -21 m 313 1007 l 460 1007 l 592 815 l 461 815 l 388 939 l 385 939 l 310 815 l 181 815 l 313 1007 z "},"Ċ":{"ha":981,"x_min":50,"x_max":942,"o":"m 514 -19 q 270 47 375 -19 q 108 230 165 113 q 50 496 50 347 q 108 763 50 644 q 271 947 165 881 q 515 1013 376 1013 q 728 965 636 1013 q 875 838 821 918 q 942 656 929 757 l 782 656 q 703 815 765 749 q 513 881 640 881 q 284 771 358 881 q 210 497 210 661 q 284 222 210 332 q 513 113 358 113 q 709 184 644 113 q 782 361 774 256 l 942 361 q 876 164 931 250 q 729 29 822 78 q 514 -19 636 -19 m 439 1267 l 593 1267 l 593 1119 l 439 1119 l 439 1267 z "},"ċ":{"ha":738,"x_min":39,"x_max":706,"o":"m 388 -21 q 204 26 283 -21 q 82 159 125 74 q 39 354 39 244 q 82 549 39 464 q 203 682 125 635 q 386 729 282 729 q 544 694 475 729 q 656 595 614 658 q 706 451 697 532 l 565 451 q 517 567 558 518 q 388 617 475 617 q 231 541 282 617 q 181 354 181 465 q 231 168 181 243 q 388 93 282 93 q 518 142 476 93 q 565 263 560 190 l 706 263 q 660 117 701 182 q 547 16 618 53 q 388 -21 476 -21 m 310 982 l 464 982 l 464 835 l 310 835 l 310 982 z "},"Č":{"ha":981,"x_min":50,"x_max":942,"o":"m 514 -19 q 270 47 375 -19 q 108 230 165 113 q 50 496 50 347 q 108 763 50 644 q 271 947 165 881 q 515 1013 376 1013 q 728 965 636 1013 q 875 838 821 918 q 942 656 929 757 l 782 656 q 703 815 765 749 q 513 881 640 881 q 284 771 358 881 q 210 497 210 661 q 284 222 210 332 q 513 113 358 113 q 709 184 644 113 q 782 361 774 256 l 942 361 q 876 164 931 250 q 729 29 822 78 q 514 -19 636 -19 m 310 1292 l 439 1292 l 514 1168 l 517 1168 l 590 1292 l 721 1292 l 589 1100 l 442 1100 l 310 1292 z "},"č":{"ha":738,"x_min":39,"x_max":706,"o":"m 388 -21 q 204 26 283 -21 q 82 159 125 74 q 39 354 39 244 q 82 549 39 464 q 203 682 125 635 q 386 729 282 729 q 544 694 475 729 q 656 595 614 658 q 706 451 697 532 l 565 451 q 517 567 558 518 q 388 617 475 617 q 231 541 282 617 q 181 354 181 465 q 231 168 181 243 q 388 93 282 93 q 518 142 476 93 q 565 263 560 190 l 706 263 q 660 117 701 182 q 547 16 618 53 q 388 -21 476 -21 m 181 1007 l 310 1007 l 385 883 l 388 883 l 461 1007 l 592 1007 l 460 815 l 313 815 l 181 1007 z "},"Ď":{"ha":971,"x_min":99,"x_max":918,"o":"m 99 993 l 476 993 q 801 863 685 993 q 918 496 918 733 q 803 129 918 258 q 479 0 688 0 l 99 0 l 99 993 m 469 132 q 760 496 760 132 q 469 861 760 861 l 251 861 l 251 132 l 469 132 m 192 1292 l 321 1292 l 396 1168 l 399 1168 l 472 1292 l 603 1292 l 471 1100 l 324 1100 l 192 1292 z "},"ď":{"ha":832,"x_min":40,"x_max":957,"o":"m 358 -19 q 196 26 268 -19 q 82 156 124 71 q 40 354 40 240 q 82 553 40 468 q 196 683 124 638 q 358 729 268 729 q 490 699 436 729 q 576 622 543 669 l 579 622 l 579 993 l 715 993 l 715 0 l 579 0 l 579 83 l 576 83 q 488 10 542 39 q 358 -19 435 -19 m 182 354 q 233 168 182 243 q 381 93 285 93 q 525 163 472 93 q 578 354 578 233 q 525 545 578 475 q 381 615 472 615 q 233 540 285 615 q 182 354 182 465 m 801 993 l 957 993 l 871 722 l 769 722 l 801 993 z "},"Đ":{"ha":1006,"x_min":17,"x_max":951,"o":"m 132 463 l 17 463 l 17 565 l 132 565 l 132 993 l 510 993 q 835 863 718 993 q 951 496 951 733 q 836 129 951 258 q 513 0 721 0 l 132 0 l 132 463 m 503 132 q 793 496 793 132 q 503 861 793 861 l 285 861 l 285 565 l 553 565 l 553 463 l 285 463 l 285 132 l 503 132 z "},"đ":{"ha":792,"x_min":40,"x_max":811,"o":"m 381 904 l 579 904 l 579 993 l 715 993 l 715 904 l 811 904 l 811 811 l 715 811 l 715 0 l 579 0 l 579 83 l 576 83 q 488 10 542 39 q 358 -19 435 -19 q 196 26 268 -19 q 82 156 124 71 q 40 354 40 240 q 82 553 40 468 q 196 683 124 638 q 358 729 268 729 q 490 699 436 729 q 576 622 543 669 l 579 622 l 579 811 l 381 811 l 381 904 m 182 354 q 233 168 182 243 q 381 93 285 93 q 525 163 472 93 q 578 354 578 233 q 525 545 578 475 q 381 615 472 615 q 233 540 285 615 q 182 354 182 465 z "},"Ē":{"ha":860,"x_min":99,"x_max":815,"o":"m 99 993 l 801 993 l 801 861 l 251 861 l 251 579 l 733 579 l 733 447 l 251 447 l 251 132 l 815 132 l 815 0 l 99 0 l 99 993 m 268 1226 l 635 1226 l 635 1119 l 268 1119 l 268 1226 z "},"ē":{"ha":765,"x_min":40,"x_max":726,"o":"m 390 -21 q 201 28 281 -21 q 81 161 122 76 q 40 356 40 246 q 83 551 40 467 q 204 683 125 636 q 390 731 283 731 q 638 633 550 731 q 726 369 726 536 q 725 318 726 329 l 181 318 q 238 156 183 222 q 393 90 293 90 q 522 131 476 90 q 579 218 567 171 l 718 218 q 606 44 688 110 q 390 -21 524 -21 m 585 425 q 530 565 585 510 q 386 619 475 619 q 243 566 300 619 q 181 425 186 513 l 585 425 m 200 944 l 567 944 l 567 838 l 200 838 l 200 944 z "},"Ė":{"ha":860,"x_min":99,"x_max":815,"o":"m 99 993 l 801 993 l 801 861 l 251 861 l 251 579 l 733 579 l 733 447 l 251 447 l 251 132 l 815 132 l 815 0 l 99 0 l 99 993 m 375 1267 l 529 1267 l 529 1119 l 375 1119 l 375 1267 z "},"ė":{"ha":765,"x_min":40,"x_max":726,"o":"m 390 -21 q 201 28 281 -21 q 81 161 122 76 q 40 356 40 246 q 83 551 40 467 q 204 683 125 636 q 390 731 283 731 q 638 633 550 731 q 726 369 726 536 q 725 318 726 329 l 181 318 q 238 156 183 222 q 393 90 293 90 q 522 131 476 90 q 579 218 567 171 l 718 218 q 606 44 688 110 q 390 -21 524 -21 m 585 425 q 530 565 585 510 q 386 619 475 619 q 243 566 300 619 q 181 425 186 513 l 585 425 m 307 985 l 461 985 l 461 838 l 307 838 l 307 985 z "},"Ę":{"ha":860,"x_min":99,"x_max":826,"o":"m 99 993 l 801 993 l 801 861 l 251 861 l 251 579 l 733 579 l 733 447 l 251 447 l 251 132 l 815 132 l 815 0 l 99 0 l 99 993 m 731 -246 q 632 -217 667 -246 q 597 -140 597 -189 q 628 -58 597 -96 q 701 0 660 -21 l 797 0 q 711 -111 711 -68 q 725 -141 711 -131 q 761 -151 739 -151 q 826 -139 792 -151 l 826 -232 q 731 -246 781 -246 z "},"ę":{"ha":765,"x_min":40,"x_max":726,"o":"m 440 -246 q 342 -217 376 -246 q 307 -140 307 -189 q 326 -75 307 -106 q 376 -21 346 -44 q 195 31 271 -18 q 80 165 119 81 q 40 356 40 249 q 83 551 40 467 q 204 683 125 636 q 390 731 283 731 q 638 633 550 731 q 726 369 726 536 q 725 318 726 329 l 181 318 q 238 156 183 222 q 393 90 293 90 q 522 131 476 90 q 579 218 567 171 l 718 218 q 640 74 694 133 q 497 -8 585 15 q 421 -111 421 -69 q 435 -141 421 -131 q 471 -151 449 -151 q 536 -139 501 -151 l 536 -232 q 440 -246 490 -246 m 585 425 q 530 565 585 510 q 386 619 475 619 q 243 566 300 619 q 181 425 186 513 l 585 425 z "},"Ě":{"ha":860,"x_min":99,"x_max":815,"o":"m 99 993 l 801 993 l 801 861 l 251 861 l 251 579 l 733 579 l 733 447 l 251 447 l 251 132 l 815 132 l 815 0 l 99 0 l 99 993 m 247 1292 l 376 1292 l 451 1168 l 454 1168 l 528 1292 l 658 1292 l 526 1100 l 379 1100 l 247 1292 z "},"ě":{"ha":765,"x_min":40,"x_max":726,"o":"m 390 -21 q 201 28 281 -21 q 81 161 122 76 q 40 356 40 246 q 83 551 40 467 q 204 683 125 636 q 390 731 283 731 q 638 633 550 731 q 726 369 726 536 q 725 318 726 329 l 181 318 q 238 156 183 222 q 393 90 293 90 q 522 131 476 90 q 579 218 567 171 l 718 218 q 606 44 688 110 q 390 -21 524 -21 m 585 425 q 530 565 585 510 q 386 619 475 619 q 243 566 300 619 q 181 425 186 513 l 585 425 m 178 1010 l 307 1010 l 382 886 l 385 886 l 458 1010 l 589 1010 l 457 818 l 310 818 l 178 1010 z "},"Ĝ":{"ha":1024,"x_min":51,"x_max":958,"o":"m 499 -19 q 258 47 358 -19 q 104 229 157 113 q 51 497 51 346 q 109 763 51 646 q 272 947 167 881 q 517 1013 378 1013 q 809 924 701 1013 q 942 686 917 835 l 782 686 q 694 831 763 781 q 515 881 625 881 q 343 826 411 881 q 243 684 275 771 q 211 497 211 597 q 279 223 211 333 q 507 113 347 113 q 656 148 589 113 q 763 247 724 183 q 803 392 803 311 l 510 392 l 510 519 l 958 519 l 958 0 l 853 0 l 815 138 l 813 138 q 683 19 758 58 q 499 -19 608 -19 m 438 1292 l 585 1292 l 717 1100 l 586 1100 l 513 1224 l 510 1224 l 435 1100 l 306 1100 l 438 1292 z "},"ĝ":{"ha":788,"x_min":43,"x_max":713,"o":"m 381 -254 q 154 -192 235 -254 q 63 -29 74 -131 l 204 -29 q 381 -143 229 -143 q 528 -97 479 -143 q 576 47 576 -51 l 576 143 l 574 143 q 356 36 500 36 q 196 76 267 36 q 84 194 125 115 q 43 382 43 272 q 84 571 43 493 q 195 689 125 649 q 356 729 265 729 q 574 625 493 729 l 576 625 l 576 708 l 713 708 l 713 56 q 625 -177 713 -100 q 381 -254 538 -254 m 185 382 q 235 213 185 278 q 381 149 285 149 q 524 208 474 149 q 575 382 575 268 q 524 556 575 497 q 381 615 474 615 q 235 551 285 615 q 185 382 185 486 m 301 1007 l 449 1007 l 581 815 l 450 815 l 376 939 l 374 939 l 299 815 l 169 815 l 301 1007 z "},"Ğ":{"ha":1024,"x_min":51,"x_max":958,"o":"m 499 -19 q 258 47 358 -19 q 104 229 157 113 q 51 497 51 346 q 109 763 51 646 q 272 947 167 881 q 517 1013 378 1013 q 809 924 701 1013 q 942 686 917 835 l 782 686 q 694 831 763 781 q 515 881 625 881 q 343 826 411 881 q 243 684 275 771 q 211 497 211 597 q 279 223 211 333 q 507 113 347 113 q 656 148 589 113 q 763 247 724 183 q 803 392 803 311 l 510 392 l 510 519 l 958 519 l 958 0 l 853 0 l 815 138 l 813 138 q 683 19 758 58 q 499 -19 608 -19 m 513 1086 q 379 1135 431 1086 q 325 1278 328 1185 l 418 1278 q 444 1205 421 1228 q 513 1182 468 1182 q 580 1205 557 1182 q 606 1278 603 1228 l 699 1278 q 644 1136 694 1186 q 513 1086 594 1086 z "},"ğ":{"ha":788,"x_min":43,"x_max":713,"o":"m 381 -254 q 154 -192 235 -254 q 63 -29 74 -131 l 204 -29 q 381 -143 229 -143 q 528 -97 479 -143 q 576 47 576 -51 l 576 143 l 574 143 q 356 36 500 36 q 196 76 267 36 q 84 194 125 115 q 43 382 43 272 q 84 571 43 493 q 195 689 125 649 q 356 729 265 729 q 574 625 493 729 l 576 625 l 576 708 l 713 708 l 713 56 q 625 -177 713 -100 q 381 -254 538 -254 m 185 382 q 235 213 185 278 q 381 149 285 149 q 524 208 474 149 q 575 382 575 268 q 524 556 575 497 q 381 615 474 615 q 235 551 285 615 q 185 382 185 486 m 375 801 q 242 851 293 801 q 188 993 190 900 l 281 993 q 307 920 283 943 q 375 897 331 897 q 442 920 419 897 q 468 993 465 943 l 561 993 q 507 851 557 901 q 375 801 457 801 z "},"Ġ":{"ha":1024,"x_min":51,"x_max":958,"o":"m 499 -19 q 258 47 358 -19 q 104 229 157 113 q 51 497 51 346 q 109 763 51 646 q 272 947 167 881 q 517 1013 378 1013 q 809 924 701 1013 q 942 686 917 835 l 782 686 q 694 831 763 781 q 515 881 625 881 q 343 826 411 881 q 243 684 275 771 q 211 497 211 597 q 279 223 211 333 q 507 113 347 113 q 656 148 589 113 q 763 247 724 183 q 803 392 803 311 l 510 392 l 510 519 l 958 519 l 958 0 l 853 0 l 815 138 l 813 138 q 683 19 758 58 q 499 -19 608 -19 m 435 1267 l 589 1267 l 589 1119 l 435 1119 l 435 1267 z "},"ġ":{"ha":788,"x_min":43,"x_max":713,"o":"m 381 -254 q 154 -192 235 -254 q 63 -29 74 -131 l 204 -29 q 381 -143 229 -143 q 528 -97 479 -143 q 576 47 576 -51 l 576 143 l 574 143 q 356 36 500 36 q 196 76 267 36 q 84 194 125 115 q 43 382 43 272 q 84 571 43 493 q 195 689 125 649 q 356 729 265 729 q 574 625 493 729 l 576 625 l 576 708 l 713 708 l 713 56 q 625 -177 713 -100 q 381 -254 538 -254 m 185 382 q 235 213 185 278 q 381 149 285 149 q 524 208 474 149 q 575 382 575 268 q 524 556 575 497 q 381 615 474 615 q 235 551 285 615 q 185 382 185 486 m 299 982 l 453 982 l 453 835 l 299 835 l 299 982 z "},"Ģ":{"ha":1024,"x_min":51,"x_max":958,"o":"m 499 -19 q 258 47 358 -19 q 104 229 157 113 q 51 497 51 346 q 109 763 51 646 q 272 947 167 881 q 517 1013 378 1013 q 809 924 701 1013 q 942 686 917 835 l 782 686 q 694 831 763 781 q 515 881 625 881 q 343 826 411 881 q 243 684 275 771 q 211 497 211 597 q 279 223 211 333 q 507 113 347 113 q 656 148 589 113 q 763 247 724 183 q 803 392 803 311 l 510 392 l 510 519 l 958 519 l 958 0 l 853 0 l 815 138 l 813 138 q 683 19 758 58 q 499 -19 608 -19 m 449 -272 q 504 -243 488 -262 q 521 -183 521 -224 l 449 -183 l 449 -68 l 600 -68 l 600 -183 q 449 -331 600 -299 l 449 -272 z "},"ģ":{"ha":788,"x_min":43,"x_max":713,"o":"m 381 -254 q 154 -192 235 -254 q 63 -29 74 -131 l 204 -29 q 381 -143 229 -143 q 528 -97 479 -143 q 576 47 576 -51 l 576 143 l 574 143 q 356 36 500 36 q 196 76 267 36 q 84 194 125 115 q 43 382 43 272 q 84 571 43 493 q 195 689 125 649 q 356 729 265 729 q 574 625 493 729 l 576 625 l 576 708 l 713 708 l 713 56 q 625 -177 713 -100 q 381 -254 538 -254 m 185 382 q 235 213 185 278 q 381 149 285 149 q 524 208 474 149 q 575 382 575 268 q 524 556 575 497 q 381 615 474 615 q 235 551 285 615 q 185 382 185 486 m 304 942 q 456 1103 304 1068 l 456 1038 q 399 1007 415 1028 q 383 942 382 986 l 456 942 l 456 815 l 304 815 l 304 942 z "},"Ĥ":{"ha":990,"x_min":99,"x_max":893,"o":"m 99 993 l 251 993 l 251 578 l 739 578 l 739 993 l 893 993 l 893 0 l 739 0 l 739 446 l 251 446 l 251 0 l 99 0 l 99 993 m 422 1292 l 569 1292 l 701 1100 l 571 1100 l 497 1224 l 494 1224 l 419 1100 l 290 1100 l 422 1292 z "},"ĥ":{"ha":756,"x_min":-61,"x_max":685,"o":"m 549 454 q 513 571 549 529 q 404 613 478 613 q 265 564 317 613 q 213 435 213 515 l 213 0 l 76 0 l 76 993 l 213 993 l 213 619 l 215 619 q 306 698 247 667 q 449 729 364 729 q 619 669 553 729 q 685 492 685 608 l 685 0 l 549 0 l 549 454 m 71 1232 l 218 1232 l 350 1040 l 219 1040 l 146 1164 l 143 1164 l 68 1040 l -61 1040 l 71 1232 z "},"Ħ":{"ha":1028,"x_min":22,"x_max":1000,"o":"m 22 844 l 125 844 l 125 993 l 278 993 l 278 844 l 765 844 l 765 993 l 919 993 l 919 844 l 1000 844 l 1000 740 l 919 740 l 919 0 l 765 0 l 765 446 l 278 446 l 278 0 l 125 0 l 125 740 l 22 740 l 22 844 m 765 578 l 765 740 l 278 740 l 278 578 l 765 578 z "},"ħ":{"ha":756,"x_min":-7,"x_max":685,"o":"m -7 904 l 76 904 l 76 993 l 213 993 l 213 904 l 431 904 l 431 811 l 213 811 l 213 619 l 215 619 q 306 698 247 667 q 449 729 364 729 q 619 669 553 729 q 685 492 685 608 l 685 0 l 549 0 l 549 454 q 513 571 549 529 q 404 613 478 613 q 265 564 317 613 q 213 435 213 515 l 213 0 l 76 0 l 76 811 l -7 811 l -7 904 z "},"Ĩ":{"ha":350,"x_min":-32,"x_max":376,"o":"m 99 993 l 251 993 l 251 0 l 99 0 l 99 993 m -32 1108 q -1 1219 -32 1182 q 75 1256 29 1256 q 126 1248 101 1256 q 185 1225 150 1240 q 250 1204 232 1204 q 285 1253 285 1204 l 376 1253 q 347 1142 376 1178 q 269 1106 317 1106 q 221 1113 244 1106 q 160 1136 197 1121 q 125 1151 142 1144 q 96 1157 108 1157 q 60 1108 60 1157 l -32 1108 z "},"ĩ":{"ha":289,"x_min":-62,"x_max":346,"o":"m 76 708 l 213 708 l 213 0 l 76 0 l 76 708 m -62 824 q -32 934 -62 897 q 44 971 -1 971 q 95 963 71 971 q 154 940 119 956 q 219 919 201 919 q 254 968 254 919 l 346 968 q 316 857 346 893 q 239 821 286 821 q 190 828 214 821 q 129 851 167 836 q 94 866 111 860 q 65 872 78 872 q 29 824 29 872 l -62 824 z "},"Ī":{"ha":350,"x_min":-8,"x_max":358,"o":"m 99 993 l 251 993 l 251 0 l 99 0 l 99 993 m -8 1226 l 358 1226 l 358 1119 l -8 1119 l -8 1226 z "},"ī":{"ha":289,"x_min":-39,"x_max":328,"o":"m 76 708 l 213 708 l 213 0 l 76 0 l 76 708 m -39 942 l 328 942 l 328 835 l -39 835 l -39 942 z "},"Į":{"ha":350,"x_min":33,"x_max":263,"o":"m 99 993 l 251 993 l 251 0 l 99 0 l 99 993 m 167 -246 q 68 -217 103 -246 q 33 -140 33 -189 q 65 -58 33 -96 q 138 0 96 -21 l 233 0 q 147 -111 147 -68 q 161 -141 147 -131 q 197 -151 175 -151 q 263 -139 228 -151 l 263 -232 q 167 -246 217 -246 z "},"į":{"ha":289,"x_min":-6,"x_max":224,"o":"m 76 708 l 213 708 l 213 0 l 76 0 l 76 708 m 68 982 l 222 982 l 222 835 l 68 835 l 68 982 m 128 -246 q 29 -217 64 -246 q -6 -140 -6 -189 q 26 -58 -6 -96 q 99 0 57 -21 l 194 0 q 108 -111 108 -68 q 122 -141 108 -131 q 158 -151 136 -151 q 224 -139 189 -151 l 224 -232 q 128 -246 178 -246 z "},"İ":{"ha":350,"x_min":96,"x_max":254,"o":"m 99 993 l 251 993 l 251 0 l 99 0 l 99 993 m 96 1267 l 254 1267 l 254 1119 l 96 1119 l 96 1267 z "},"ı":{"ha":289,"x_min":76,"x_max":213,"o":"m 76 708 l 213 708 l 213 0 l 76 0 l 76 708 z "},"Ĵ":{"ha":719,"x_min":25,"x_max":756,"o":"m 325 -19 q 94 73 163 -19 q 25 310 25 165 l 25 350 l 172 350 l 172 310 q 202 162 172 211 q 322 113 232 113 q 442 163 411 113 q 474 310 474 213 l 474 993 l 626 993 l 626 310 q 557 73 626 165 q 325 -19 488 -19 m 476 1292 l 624 1292 l 756 1100 l 625 1100 l 551 1224 l 549 1224 l 474 1100 l 344 1100 l 476 1292 z "},"ĵ":{"ha":289,"x_min":-61,"x_max":350,"o":"m 43 -251 q -42 -243 11 -251 l -42 -131 q 13 -135 -8 -135 q 61 -112 46 -135 q 76 -32 76 -89 l 76 708 l 213 708 l 213 -37 q 167 -199 213 -147 q 43 -251 122 -251 m 71 1007 l 218 1007 l 350 815 l 219 815 l 146 939 l 143 939 l 68 815 l -61 815 l 71 1007 z "},"Ķ":{"ha":904,"x_min":99,"x_max":925,"o":"m 99 993 l 251 993 l 251 490 l 722 993 l 893 993 l 504 579 l 925 0 l 746 0 l 410 478 l 251 310 l 251 0 l 99 0 l 99 993 m 410 -272 q 465 -243 449 -262 q 482 -183 482 -224 l 410 -183 l 410 -68 l 561 -68 l 561 -183 q 410 -331 561 -299 l 410 -272 z "},"ķ":{"ha":688,"x_min":76,"x_max":708,"o":"m 76 993 l 213 993 l 213 408 l 522 708 l 679 708 l 407 449 l 708 0 l 547 0 l 315 363 l 213 264 l 213 0 l 76 0 l 76 993 m 307 -272 q 363 -243 346 -262 q 379 -183 379 -224 l 307 -183 l 307 -68 l 458 -68 l 458 -183 q 307 -331 458 -299 l 307 -272 z "},"ĸ":{"ha":694,"x_min":76,"x_max":708,"o":"m 76 708 l 213 708 l 213 396 l 540 708 l 700 708 l 414 439 l 708 0 l 547 0 l 322 351 l 213 249 l 213 0 l 76 0 l 76 708 z "},"Ĺ":{"ha":775,"x_min":99,"x_max":754,"o":"m 99 993 l 251 993 l 251 132 l 754 132 l 754 0 l 99 0 l 99 993 m 193 1292 l 353 1292 l 219 1100 l 111 1100 l 193 1292 z "},"ĺ":{"ha":289,"x_min":76,"x_max":321,"o":"m 76 993 l 213 993 l 213 0 l 76 0 l 76 993 m 161 1232 l 321 1232 l 188 1040 l 79 1040 l 161 1232 z "},"Ļ":{"ha":775,"x_min":99,"x_max":754,"o":"m 99 993 l 251 993 l 251 132 l 754 132 l 754 0 l 99 0 l 99 993 m 351 -272 q 407 -243 390 -262 q 424 -183 424 -224 l 351 -183 l 351 -68 l 503 -68 l 503 -183 q 351 -331 503 -299 l 351 -272 z "},"ļ":{"ha":289,"x_min":69,"x_max":221,"o":"m 76 993 l 213 993 l 213 0 l 76 0 l 76 993 m 69 -272 q 125 -243 108 -262 q 142 -183 142 -224 l 69 -183 l 69 -68 l 221 -68 l 221 -183 q 69 -331 221 -299 l 69 -272 z "},"Ľ":{"ha":775,"x_min":99,"x_max":754,"o":"m 99 993 l 251 993 l 251 132 l 754 132 l 754 0 l 99 0 l 99 993 m 440 993 l 596 993 l 510 722 l 408 722 l 440 993 z "},"ľ":{"ha":329,"x_min":76,"x_max":443,"o":"m 76 993 l 213 993 l 213 0 l 76 0 l 76 993 m 288 996 l 443 996 l 357 725 l 256 725 l 288 996 z "},"Ł":{"ha":828,"x_min":39,"x_max":807,"o":"m 39 379 l 151 461 l 151 993 l 304 993 l 304 574 l 526 736 l 526 617 l 304 453 l 304 132 l 807 132 l 807 0 l 151 0 l 151 342 l 39 258 l 39 379 z "},"ł":{"ha":396,"x_min":32,"x_max":365,"o":"m 32 469 l 131 540 l 131 993 l 267 993 l 267 639 l 365 710 l 365 590 l 267 519 l 267 0 l 131 0 l 131 421 l 32 350 l 32 469 z "},"Ń":{"ha":990,"x_min":99,"x_max":892,"o":"m 99 993 l 274 993 l 735 229 l 738 229 l 738 993 l 892 993 l 892 0 l 717 0 l 254 764 l 251 764 l 251 0 l 99 0 l 99 993 m 513 1292 l 672 1292 l 539 1100 l 431 1100 l 513 1292 z "},"ń":{"ha":756,"x_min":76,"x_max":685,"o":"m 549 454 q 513 571 549 529 q 404 613 478 613 q 265 564 317 613 q 213 435 213 515 l 213 0 l 76 0 l 76 708 l 213 708 l 213 619 l 215 619 q 306 698 247 667 q 449 729 364 729 q 619 669 553 729 q 685 492 685 608 l 685 0 l 549 0 l 549 454 m 407 1007 l 567 1007 l 433 815 l 325 815 l 407 1007 z "},"Ņ":{"ha":990,"x_min":99,"x_max":892,"o":"m 99 993 l 274 993 l 735 229 l 738 229 l 738 993 l 892 993 l 892 0 l 717 0 l 254 764 l 251 764 l 251 0 l 99 0 l 99 993 m 421 -272 q 476 -243 460 -262 q 493 -183 493 -224 l 421 -183 l 421 -68 l 572 -68 l 572 -183 q 421 -331 572 -299 l 421 -272 z "},"ņ":{"ha":756,"x_min":76,"x_max":685,"o":"m 549 454 q 513 571 549 529 q 404 613 478 613 q 265 564 317 613 q 213 435 213 515 l 213 0 l 76 0 l 76 708 l 213 708 l 213 619 l 215 619 q 306 698 247 667 q 449 729 364 729 q 619 669 553 729 q 685 492 685 608 l 685 0 l 549 0 l 549 454 m 306 -272 q 361 -243 344 -262 q 378 -183 378 -224 l 306 -183 l 306 -68 l 457 -68 l 457 -183 q 306 -331 457 -299 l 306 -272 z "},"Ň":{"ha":990,"x_min":99,"x_max":892,"o":"m 99 993 l 274 993 l 735 229 l 738 229 l 738 993 l 892 993 l 892 0 l 717 0 l 254 764 l 251 764 l 251 0 l 99 0 l 99 993 m 290 1292 l 419 1292 l 494 1168 l 497 1168 l 571 1292 l 701 1292 l 569 1100 l 422 1100 l 290 1292 z "},"ň":{"ha":756,"x_min":76,"x_max":685,"o":"m 549 454 q 513 571 549 529 q 404 613 478 613 q 265 564 317 613 q 213 435 213 515 l 213 0 l 76 0 l 76 708 l 213 708 l 213 619 l 215 619 q 306 698 247 667 q 449 729 364 729 q 619 669 553 729 q 685 492 685 608 l 685 0 l 549 0 l 549 454 m 185 1007 l 314 1007 l 389 883 l 392 883 l 465 1007 l 596 1007 l 464 815 l 317 815 l 185 1007 z "},"Ŋ":{"ha":990,"x_min":99,"x_max":892,"o":"m 639 -247 q 547 -237 582 -247 l 547 -125 q 589 -126 561 -126 q 691 -102 656 -126 q 729 -21 726 -78 l 254 764 l 251 764 l 251 0 l 99 0 l 99 993 l 274 993 l 735 226 l 738 226 l 738 993 l 892 993 l 892 15 q 825 -182 892 -117 q 639 -247 758 -247 z "},"ŋ":{"ha":756,"x_min":76,"x_max":685,"o":"m 508 -237 q 413 -228 453 -237 l 413 -115 q 449 -117 425 -117 q 526 -98 503 -117 q 549 -29 549 -79 l 549 454 q 513 571 549 529 q 404 613 478 613 q 265 564 317 613 q 213 435 213 515 l 213 0 l 76 0 l 76 708 l 213 708 l 213 619 l 215 619 q 306 698 247 667 q 449 729 364 729 q 619 669 553 729 q 685 492 685 608 l 685 -42 q 640 -192 685 -147 q 508 -237 596 -237 z "},"Ō":{"ha":1075,"x_min":50,"x_max":1025,"o":"m 538 -19 q 281 47 392 -19 q 110 231 171 114 q 50 497 50 349 q 110 763 50 646 q 281 947 171 881 q 538 1013 392 1013 q 794 947 683 1013 q 965 763 904 881 q 1025 497 1025 646 q 965 231 1025 349 q 794 47 904 114 q 538 -19 683 -19 m 210 497 q 291 222 210 331 q 538 113 372 113 q 784 222 703 113 q 865 497 865 331 q 784 772 865 664 q 538 881 703 881 q 291 772 372 881 q 210 497 210 664 m 354 1226 l 721 1226 l 721 1119 l 354 1119 l 354 1226 z "},"ō":{"ha":786,"x_min":39,"x_max":747,"o":"m 393 -21 q 204 26 285 -21 q 81 158 124 74 q 39 354 39 243 q 82 550 39 465 q 205 683 125 635 q 394 731 285 731 q 583 683 503 731 q 705 551 663 636 q 747 356 747 465 q 704 159 747 244 q 581 26 661 74 q 393 -21 501 -21 m 181 354 q 235 165 181 238 q 394 92 289 92 q 552 165 499 92 q 606 354 606 238 q 552 544 606 471 q 394 617 499 617 q 235 544 289 617 q 181 354 181 472 m 210 944 l 576 944 l 576 838 l 210 838 l 210 944 z "},"Ő":{"ha":1075,"x_min":50,"x_max":1025,"o":"m 538 -19 q 281 47 392 -19 q 110 231 171 114 q 50 497 50 349 q 110 763 50 646 q 281 947 171 881 q 538 1013 392 1013 q 794 947 683 1013 q 965 763 904 881 q 1025 497 1025 646 q 965 231 1025 349 q 794 47 904 114 q 538 -19 683 -19 m 210 497 q 291 222 210 331 q 538 113 372 113 q 784 222 703 113 q 865 497 865 331 q 784 772 865 664 q 538 881 703 881 q 291 772 372 881 q 210 497 210 664 m 671 1292 l 822 1292 l 686 1100 l 581 1100 l 671 1292 m 457 1292 l 608 1292 l 478 1100 l 372 1100 l 457 1292 z "},"ő":{"ha":786,"x_min":39,"x_max":747,"o":"m 393 -21 q 204 26 285 -21 q 81 158 124 74 q 39 354 39 243 q 82 550 39 465 q 205 683 125 635 q 394 731 285 731 q 583 683 503 731 q 705 551 663 636 q 747 356 747 465 q 704 159 747 244 q 581 26 661 74 q 393 -21 501 -21 m 181 354 q 235 165 181 238 q 394 92 289 92 q 552 165 499 92 q 606 354 606 238 q 552 544 606 471 q 394 617 499 617 q 235 544 289 617 q 181 354 181 472 m 528 1010 l 679 1010 l 543 818 l 438 818 l 528 1010 m 314 1010 l 465 1010 l 335 818 l 229 818 l 314 1010 z "},"Œ":{"ha":1546,"x_min":51,"x_max":1501,"o":"m 465 -19 q 251 47 344 -19 q 104 231 157 114 q 51 497 51 349 q 104 763 51 644 q 251 947 157 881 q 465 1013 344 1013 q 656 961 575 1013 q 785 811 736 910 l 785 993 l 1488 993 l 1488 861 l 938 861 l 938 579 l 1419 579 l 1419 447 l 938 447 l 938 132 l 1501 132 l 1501 0 l 785 0 l 785 183 q 656 32 738 83 q 465 -19 575 -19 m 211 497 q 279 220 211 328 q 496 113 347 113 q 637 156 574 113 q 737 285 700 199 q 774 497 774 372 q 737 708 774 622 q 637 838 700 794 q 496 881 574 881 q 279 774 347 881 q 211 497 211 667 z "},"œ":{"ha":1332,"x_min":39,"x_max":1293,"o":"m 393 -21 q 204 26 285 -21 q 81 158 124 74 q 39 354 39 243 q 82 549 39 464 q 205 682 125 635 q 394 729 285 729 q 558 694 486 729 q 676 597 631 660 q 794 696 722 661 q 957 731 865 731 q 1205 633 1117 731 q 1293 369 1293 536 q 1292 318 1293 329 l 747 318 q 805 156 750 222 q 960 90 860 90 q 1088 131 1043 90 q 1146 218 1133 171 l 1285 218 q 1172 44 1254 110 q 957 -21 1090 -21 q 792 14 864 -21 q 676 113 721 49 q 557 14 629 49 q 393 -21 485 -21 m 181 354 q 235 165 181 238 q 394 93 289 93 q 552 165 499 93 q 606 354 606 238 q 552 544 606 471 q 394 617 499 617 q 235 544 289 617 q 181 354 181 472 m 1151 425 q 1097 565 1151 510 q 953 619 1042 619 q 810 566 867 619 q 747 425 753 513 l 1151 425 z "},"Ŕ":{"ha":911,"x_min":99,"x_max":864,"o":"m 99 993 l 513 993 q 763 919 676 993 q 850 707 850 844 q 799 549 850 614 q 664 464 747 483 l 664 461 q 773 393 736 447 q 822 274 810 339 q 839 121 833 208 q 847 39 843 64 q 864 10 851 14 l 864 0 l 700 0 q 688 30 690 8 q 685 101 686 51 q 673 243 683 185 q 624 345 663 301 q 507 389 586 389 l 251 389 l 251 0 l 99 0 l 99 993 m 479 521 q 640 566 585 521 q 696 696 696 611 q 645 819 696 778 q 482 861 594 861 l 251 861 l 251 521 l 479 521 m 456 1292 l 615 1292 l 482 1100 l 374 1100 l 456 1292 z "},"ŕ":{"ha":483,"x_min":76,"x_max":471,"o":"m 213 0 l 76 0 l 76 708 l 213 708 l 213 574 l 215 574 q 406 725 279 725 q 471 721 440 725 l 471 590 q 425 594 446 594 q 272 531 332 594 q 213 367 213 467 l 213 0 m 290 1007 l 450 1007 l 317 815 l 208 815 l 290 1007 z "},"Ŗ":{"ha":911,"x_min":99,"x_max":864,"o":"m 99 993 l 513 993 q 763 919 676 993 q 850 707 850 844 q 799 549 850 614 q 664 464 747 483 l 664 461 q 773 393 736 447 q 822 274 810 339 q 839 121 833 208 q 847 39 843 64 q 864 10 851 14 l 864 0 l 700 0 q 688 30 690 8 q 685 101 686 51 q 673 243 683 185 q 624 345 663 301 q 507 389 586 389 l 251 389 l 251 0 l 99 0 l 99 993 m 479 521 q 640 566 585 521 q 696 696 696 611 q 645 819 696 778 q 482 861 594 861 l 251 861 l 251 521 l 479 521 m 394 -272 q 450 -243 433 -262 q 467 -183 467 -224 l 394 -183 l 394 -68 l 546 -68 l 546 -183 q 394 -331 546 -299 l 394 -272 z "},"ŗ":{"ha":483,"x_min":69,"x_max":471,"o":"m 213 0 l 76 0 l 76 708 l 213 708 l 213 574 l 215 574 q 406 725 279 725 q 471 721 440 725 l 471 590 q 425 594 446 594 q 272 531 332 594 q 213 367 213 467 l 213 0 m 69 -272 q 125 -243 108 -262 q 142 -183 142 -224 l 69 -183 l 69 -68 l 221 -68 l 221 -183 q 69 -331 221 -299 l 69 -272 z "},"Ř":{"ha":911,"x_min":99,"x_max":864,"o":"m 99 993 l 513 993 q 763 919 676 993 q 850 707 850 844 q 799 549 850 614 q 664 464 747 483 l 664 461 q 773 393 736 447 q 822 274 810 339 q 839 121 833 208 q 847 39 843 64 q 864 10 851 14 l 864 0 l 700 0 q 688 30 690 8 q 685 101 686 51 q 673 243 683 185 q 624 345 663 301 q 507 389 586 389 l 251 389 l 251 0 l 99 0 l 99 993 m 479 521 q 640 566 585 521 q 696 696 696 611 q 645 819 696 778 q 482 861 594 861 l 251 861 l 251 521 l 479 521 m 233 1292 l 363 1292 l 438 1168 l 440 1168 l 514 1292 l 644 1292 l 513 1100 l 365 1100 l 233 1292 z "},"ř":{"ha":483,"x_min":68,"x_max":479,"o":"m 213 0 l 76 0 l 76 708 l 213 708 l 213 574 l 215 574 q 406 725 279 725 q 471 721 440 725 l 471 590 q 425 594 446 594 q 272 531 332 594 q 213 367 213 467 l 213 0 m 68 1007 l 197 1007 l 272 883 l 275 883 l 349 1007 l 479 1007 l 347 815 l 200 815 l 68 1007 z "},"Ś":{"ha":878,"x_min":33,"x_max":836,"o":"m 472 -19 q 249 23 346 -19 q 95 145 151 65 q 33 335 39 225 l 192 335 q 267 170 200 229 q 468 111 335 111 q 676 271 676 111 q 647 364 676 331 q 567 414 617 397 q 399 461 518 431 q 230 517 296 489 q 118 599 164 544 q 72 742 72 654 q 165 941 72 869 q 419 1013 258 1013 q 694 929 590 1013 q 808 697 797 846 l 650 697 q 582 835 638 789 q 421 882 526 882 q 280 849 328 882 q 232 750 232 815 q 261 667 232 697 q 335 620 290 636 q 464 583 379 604 q 664 522 590 551 q 787 435 738 493 q 836 279 836 378 q 744 63 836 144 q 472 -19 651 -19 m 446 1292 l 606 1292 l 472 1100 l 364 1100 l 446 1292 z "},"ś":{"ha":678,"x_min":29,"x_max":647,"o":"m 356 -19 q 116 51 200 -19 q 29 236 32 122 l 167 236 q 216 130 171 169 q 354 90 261 90 q 471 120 436 90 q 506 194 506 150 q 481 258 506 236 q 427 288 456 281 q 319 313 399 296 q 183 353 238 332 q 92 415 129 374 q 54 525 54 457 q 126 674 54 618 q 324 729 197 729 q 538 665 463 729 q 621 503 613 601 l 483 503 q 440 587 474 554 q 326 619 406 619 q 228 596 260 619 q 196 531 196 572 q 214 482 196 500 q 260 455 232 464 q 342 435 288 446 q 375 428 353 433 q 515 386 460 408 q 609 319 571 364 q 647 201 647 275 q 571 39 647 97 q 356 -19 494 -19 m 354 1007 l 514 1007 l 381 815 l 272 815 l 354 1007 z "},"Ŝ":{"ha":878,"x_min":33,"x_max":836,"o":"m 472 -19 q 249 23 346 -19 q 95 145 151 65 q 33 335 39 225 l 192 335 q 267 170 200 229 q 468 111 335 111 q 676 271 676 111 q 647 364 676 331 q 567 414 617 397 q 399 461 518 431 q 230 517 296 489 q 118 599 164 544 q 72 742 72 654 q 165 941 72 869 q 419 1013 258 1013 q 694 929 590 1013 q 808 697 797 846 l 650 697 q 582 835 638 789 q 421 882 526 882 q 280 849 328 882 q 232 750 232 815 q 261 667 232 697 q 335 620 290 636 q 464 583 379 604 q 664 522 590 551 q 787 435 738 493 q 836 279 836 378 q 744 63 836 144 q 472 -19 651 -19 m 356 1292 l 503 1292 l 635 1100 l 504 1100 l 431 1224 l 428 1224 l 353 1100 l 224 1100 l 356 1292 z "},"ŝ":{"ha":678,"x_min":29,"x_max":647,"o":"m 356 -19 q 116 51 200 -19 q 29 236 32 122 l 167 236 q 216 130 171 169 q 354 90 261 90 q 471 120 436 90 q 506 194 506 150 q 481 258 506 236 q 427 288 456 281 q 319 313 399 296 q 183 353 238 332 q 92 415 129 374 q 54 525 54 457 q 126 674 54 618 q 324 729 197 729 q 538 665 463 729 q 621 503 613 601 l 483 503 q 440 587 474 554 q 326 619 406 619 q 228 596 260 619 q 196 531 196 572 q 214 482 196 500 q 260 455 232 464 q 342 435 288 446 q 375 428 353 433 q 515 386 460 408 q 609 319 571 364 q 647 201 647 275 q 571 39 647 97 q 356 -19 494 -19 m 265 1007 l 413 1007 l 544 815 l 414 815 l 340 939 l 338 939 l 263 815 l 133 815 l 265 1007 z "},"Ş":{"ha":878,"x_min":33,"x_max":836,"o":"m 454 -275 q 304 -232 372 -275 l 336 -193 q 431 -214 388 -214 q 481 -201 464 -214 q 499 -165 499 -187 q 446 -124 499 -124 q 390 -133 415 -124 l 369 -103 l 440 -18 q 152 83 263 -11 q 33 335 42 176 l 192 335 q 267 170 200 229 q 468 111 335 111 q 676 271 676 111 q 647 364 676 331 q 567 414 617 397 q 399 461 518 431 q 230 517 296 489 q 118 599 164 544 q 72 742 72 654 q 165 941 72 869 q 419 1013 258 1013 q 694 929 590 1013 q 808 697 797 846 l 650 697 q 582 835 638 789 q 421 882 526 882 q 280 849 328 882 q 232 750 232 815 q 261 667 232 697 q 335 620 290 636 q 464 583 379 604 q 664 522 590 551 q 787 435 738 493 q 836 279 836 378 q 755 73 836 154 q 517 -18 674 -8 l 469 -74 l 469 -76 q 493 -75 478 -75 q 574 -98 540 -75 q 607 -167 607 -121 q 563 -248 607 -221 q 454 -275 518 -275 z "},"ş":{"ha":678,"x_min":29,"x_max":647,"o":"m 313 -275 q 163 -232 231 -275 l 194 -193 q 289 -214 246 -214 q 340 -201 322 -214 q 357 -165 357 -187 q 304 -124 357 -124 q 249 -133 274 -124 l 228 -103 l 300 -17 q 101 65 171 -4 q 29 236 32 133 l 167 236 q 216 130 171 169 q 354 90 261 90 q 471 120 436 90 q 506 194 506 150 q 481 258 506 236 q 427 288 456 281 q 319 313 399 296 q 183 353 238 332 q 92 415 129 374 q 54 525 54 457 q 126 674 54 618 q 324 729 197 729 q 538 665 463 729 q 621 503 613 601 l 483 503 q 440 587 474 554 q 326 619 406 619 q 228 596 260 619 q 196 531 196 572 q 214 482 196 500 q 260 455 232 464 q 342 435 288 446 q 375 428 353 433 q 515 386 460 408 q 609 319 571 364 q 647 201 647 275 q 576 43 647 101 q 374 -19 504 -15 l 328 -74 l 328 -76 q 351 -75 336 -75 q 432 -98 399 -75 q 465 -167 465 -121 q 421 -248 465 -221 q 313 -275 376 -275 z "},"Š":{"ha":878,"x_min":33,"x_max":836,"o":"m 472 -19 q 249 23 346 -19 q 95 145 151 65 q 33 335 39 225 l 192 335 q 267 170 200 229 q 468 111 335 111 q 676 271 676 111 q 647 364 676 331 q 567 414 617 397 q 399 461 518 431 q 230 517 296 489 q 118 599 164 544 q 72 742 72 654 q 165 941 72 869 q 419 1013 258 1013 q 694 929 590 1013 q 808 697 797 846 l 650 697 q 582 835 638 789 q 421 882 526 882 q 280 849 328 882 q 232 750 232 815 q 261 667 232 697 q 335 620 290 636 q 464 583 379 604 q 664 522 590 551 q 787 435 738 493 q 836 279 836 378 q 744 63 836 144 q 472 -19 651 -19 m 224 1292 l 353 1292 l 428 1168 l 431 1168 l 504 1292 l 635 1292 l 503 1100 l 356 1100 l 224 1292 z "},"š":{"ha":678,"x_min":29,"x_max":647,"o":"m 356 -19 q 116 51 200 -19 q 29 236 32 122 l 167 236 q 216 130 171 169 q 354 90 261 90 q 471 120 436 90 q 506 194 506 150 q 481 258 506 236 q 427 288 456 281 q 319 313 399 296 q 183 353 238 332 q 92 415 129 374 q 54 525 54 457 q 126 674 54 618 q 324 729 197 729 q 538 665 463 729 q 621 503 613 601 l 483 503 q 440 587 474 554 q 326 619 406 619 q 228 596 260 619 q 196 531 196 572 q 214 482 196 500 q 260 455 232 464 q 342 435 288 446 q 375 428 353 433 q 515 386 460 408 q 609 319 571 364 q 647 201 647 275 q 571 39 647 97 q 356 -19 494 -19 m 133 1007 l 263 1007 l 338 883 l 340 883 l 414 1007 l 544 1007 l 413 815 l 265 815 l 133 1007 z "},"Ţ":{"ha":838,"x_min":21,"x_max":817,"o":"m 342 861 l 21 861 l 21 993 l 817 993 l 817 861 l 496 861 l 496 0 l 342 0 l 342 861 m 388 -275 q 238 -232 306 -275 l 269 -193 q 364 -214 321 -214 q 415 -201 397 -214 q 432 -165 432 -187 q 379 -124 432 -124 q 324 -133 349 -124 l 303 -103 l 389 0 l 465 0 l 403 -74 l 403 -76 q 426 -75 411 -75 q 507 -98 474 -75 q 540 -167 540 -121 q 496 -248 540 -221 q 388 -275 451 -275 z "},"ţ":{"ha":432,"x_min":19,"x_max":407,"o":"m 269 -56 l 269 -58 q 293 -57 278 -57 q 374 -80 340 -57 q 407 -149 407 -103 q 363 -230 407 -203 q 254 -257 318 -257 q 104 -214 172 -257 l 136 -175 q 231 -196 188 -196 q 281 -183 264 -196 q 299 -147 299 -169 q 246 -106 299 -106 q 190 -115 215 -106 l 169 -85 l 239 -1 q 151 60 181 13 q 122 200 122 107 l 122 596 l 19 596 l 19 708 l 122 708 l 122 936 l 258 936 l 258 708 l 394 708 l 394 596 l 258 596 l 258 196 q 276 123 258 142 q 338 104 293 104 q 396 110 364 104 l 396 0 q 310 -8 354 -8 l 269 -56 z "},"Ť":{"ha":838,"x_min":21,"x_max":817,"o":"m 342 861 l 21 861 l 21 993 l 817 993 l 817 861 l 496 861 l 496 0 l 342 0 l 342 861 m 213 1292 l 342 1292 l 417 1168 l 419 1168 l 493 1292 l 624 1292 l 492 1100 l 344 1100 l 213 1292 z "},"ť":{"ha":432,"x_min":19,"x_max":493,"o":"m 310 -8 q 169 38 215 -8 q 122 200 122 83 l 122 596 l 19 596 l 19 708 l 122 708 l 122 936 l 258 936 l 258 708 l 394 708 l 394 596 l 258 596 l 258 196 q 276 123 258 142 q 338 104 293 104 q 396 110 364 104 l 396 0 q 310 -8 354 -8 m 347 993 l 493 993 l 411 775 l 315 775 l 347 993 z "},"Ŧ":{"ha":838,"x_min":21,"x_max":817,"o":"m 342 463 l 147 463 l 147 565 l 342 565 l 342 861 l 21 861 l 21 993 l 817 993 l 817 861 l 496 861 l 496 565 l 726 565 l 726 463 l 496 463 l 496 0 l 342 0 l 342 463 z "},"ŧ":{"ha":440,"x_min":24,"x_max":400,"o":"m 24 475 l 126 475 l 126 596 l 24 596 l 24 708 l 126 708 l 126 936 l 263 936 l 263 708 l 399 708 l 399 596 l 263 596 l 263 475 l 399 475 l 399 371 l 263 371 l 263 196 q 280 123 263 142 q 342 104 297 104 q 400 110 368 104 l 400 0 q 314 -8 358 -8 q 173 38 219 -8 q 126 200 126 83 l 126 371 l 24 371 l 24 475 z "},"Ũ":{"ha":960,"x_min":92,"x_max":868,"o":"m 479 -19 q 187 75 282 -19 q 92 338 92 169 l 92 993 l 244 993 l 244 338 q 303 167 244 222 q 479 113 361 113 q 656 167 599 113 q 714 338 714 222 l 714 993 l 868 993 l 868 338 q 773 75 868 169 q 479 -19 678 -19 m 272 1108 q 303 1219 272 1182 q 379 1256 333 1256 q 430 1248 406 1256 q 489 1225 454 1240 q 554 1204 536 1204 q 589 1253 589 1204 l 681 1253 q 651 1142 681 1178 q 574 1106 621 1106 q 525 1113 549 1106 q 464 1136 501 1121 q 429 1151 446 1144 q 400 1157 413 1157 q 364 1108 364 1157 l 272 1108 z "},"ũ":{"ha":756,"x_min":71,"x_max":679,"o":"m 307 -19 q 137 41 203 -19 q 71 218 71 101 l 71 708 l 207 708 l 207 256 q 242 138 207 181 q 351 96 278 96 q 491 144 439 96 q 543 274 543 193 l 543 708 l 679 708 l 679 0 l 543 0 l 543 89 l 540 89 q 450 11 508 42 q 307 -19 392 -19 m 157 824 q 188 934 157 897 q 264 971 218 971 q 315 963 290 971 q 374 940 339 956 q 439 919 421 919 q 474 968 474 919 l 565 968 q 535 857 565 893 q 458 821 506 821 q 410 828 433 821 q 349 851 386 836 q 314 866 331 860 q 285 872 297 872 q 249 824 249 872 l 157 824 z "},"Ū":{"ha":960,"x_min":92,"x_max":868,"o":"m 479 -19 q 187 75 282 -19 q 92 338 92 169 l 92 993 l 244 993 l 244 338 q 303 167 244 222 q 479 113 361 113 q 656 167 599 113 q 714 338 714 222 l 714 993 l 868 993 l 868 338 q 773 75 868 169 q 479 -19 678 -19 m 296 1226 l 663 1226 l 663 1119 l 296 1119 l 296 1226 z "},"ū":{"ha":756,"x_min":71,"x_max":679,"o":"m 307 -19 q 137 41 203 -19 q 71 218 71 101 l 71 708 l 207 708 l 207 256 q 242 138 207 181 q 351 96 278 96 q 491 144 439 96 q 543 274 543 193 l 543 708 l 679 708 l 679 0 l 543 0 l 543 89 l 540 89 q 450 11 508 42 q 307 -19 392 -19 m 181 942 l 547 942 l 547 835 l 181 835 l 181 942 z "},"Ŭ":{"ha":960,"x_min":92,"x_max":868,"o":"m 479 -19 q 187 75 282 -19 q 92 338 92 169 l 92 993 l 244 993 l 244 338 q 303 167 244 222 q 479 113 361 113 q 656 167 599 113 q 714 338 714 222 l 714 993 l 868 993 l 868 338 q 773 75 868 169 q 479 -19 678 -19 m 481 1086 q 347 1135 399 1086 q 293 1278 296 1185 l 386 1278 q 413 1205 389 1228 q 481 1182 436 1182 q 548 1205 525 1182 q 574 1278 571 1228 l 667 1278 q 613 1136 663 1186 q 481 1086 563 1086 z "},"ŭ":{"ha":756,"x_min":71,"x_max":679,"o":"m 307 -19 q 137 41 203 -19 q 71 218 71 101 l 71 708 l 207 708 l 207 256 q 242 138 207 181 q 351 96 278 96 q 491 144 439 96 q 543 274 543 193 l 543 708 l 679 708 l 679 0 l 543 0 l 543 89 l 540 89 q 450 11 508 42 q 307 -19 392 -19 m 365 801 q 232 851 283 801 q 178 993 181 900 l 271 993 q 297 920 274 943 q 365 897 321 897 q 433 920 410 897 q 458 993 456 943 l 551 993 q 497 851 547 901 q 365 801 447 801 z "},"Ů":{"ha":960,"x_min":92,"x_max":868,"o":"m 479 -19 q 187 75 282 -19 q 92 338 92 169 l 92 993 l 244 993 l 244 338 q 303 167 244 222 q 479 113 361 113 q 656 167 599 113 q 714 338 714 222 l 714 993 l 868 993 l 868 338 q 773 75 868 169 q 479 -19 678 -19 m 478 1056 q 386 1091 422 1056 q 350 1183 350 1126 q 386 1276 350 1240 q 478 1311 422 1311 q 571 1276 535 1311 q 607 1183 607 1240 q 571 1091 607 1126 q 478 1056 535 1056 m 415 1183 q 433 1135 415 1153 q 478 1117 450 1117 q 525 1135 507 1117 q 543 1183 543 1153 q 525 1231 543 1213 q 478 1250 507 1250 q 433 1231 450 1250 q 415 1183 415 1213 z "},"ů":{"ha":756,"x_min":71,"x_max":679,"o":"m 307 -19 q 137 41 203 -19 q 71 218 71 101 l 71 708 l 207 708 l 207 256 q 242 138 207 181 q 351 96 278 96 q 491 144 439 96 q 543 274 543 193 l 543 708 l 679 708 l 679 0 l 543 0 l 543 89 l 540 89 q 450 11 508 42 q 307 -19 392 -19 m 363 771 q 271 806 307 771 q 235 899 235 842 q 271 991 235 956 q 363 1026 307 1026 q 456 991 419 1026 q 492 899 492 956 q 456 806 492 842 q 363 771 419 771 m 300 899 q 317 850 300 868 q 363 832 335 832 q 410 850 392 832 q 428 899 428 868 q 410 947 428 928 q 363 965 392 965 q 317 947 335 965 q 300 899 300 928 z "},"Ű":{"ha":960,"x_min":92,"x_max":868,"o":"m 479 -19 q 187 75 282 -19 q 92 338 92 169 l 92 993 l 244 993 l 244 338 q 303 167 244 222 q 479 113 361 113 q 656 167 599 113 q 714 338 714 222 l 714 993 l 868 993 l 868 338 q 773 75 868 169 q 479 -19 678 -19 m 613 1292 l 764 1292 l 628 1100 l 522 1100 l 613 1292 m 399 1292 l 550 1292 l 419 1100 l 314 1100 l 399 1292 z "},"ű":{"ha":756,"x_min":71,"x_max":679,"o":"m 307 -19 q 137 41 203 -19 q 71 218 71 101 l 71 708 l 207 708 l 207 256 q 242 138 207 181 q 351 96 278 96 q 491 144 439 96 q 543 274 543 193 l 543 708 l 679 708 l 679 0 l 543 0 l 543 89 l 540 89 q 450 11 508 42 q 307 -19 392 -19 m 497 1007 l 649 1007 l 513 815 l 407 815 l 497 1007 m 283 1007 l 435 1007 l 304 815 l 199 815 l 283 1007 z "},"Ų":{"ha":960,"x_min":92,"x_max":868,"o":"m 479 -19 q 187 75 282 -19 q 92 338 92 169 l 92 993 l 244 993 l 244 338 q 303 167 244 222 q 479 113 361 113 q 656 167 599 113 q 714 338 714 222 l 714 993 l 868 993 l 868 338 q 805 113 868 201 q 613 -6 742 24 q 533 -111 533 -72 q 547 -141 533 -131 q 583 -151 561 -151 q 649 -139 614 -151 l 649 -232 q 553 -246 603 -246 q 454 -217 489 -246 q 419 -140 419 -189 q 440 -74 419 -104 q 492 -19 460 -43 l 479 -19 z "},"ų":{"ha":756,"x_min":71,"x_max":679,"o":"m 307 -19 q 137 41 203 -19 q 71 218 71 101 l 71 708 l 207 708 l 207 256 q 242 138 207 181 q 351 96 278 96 q 491 144 439 96 q 543 274 543 193 l 543 708 l 679 708 l 679 0 l 650 0 q 564 -111 564 -68 q 578 -141 564 -131 q 614 -151 592 -151 q 679 -139 644 -151 l 679 -232 q 583 -246 633 -246 q 485 -217 519 -246 q 450 -140 450 -189 q 481 -58 450 -96 q 554 0 513 -21 l 543 0 l 543 89 l 540 89 q 450 11 508 42 q 307 -19 392 -19 z "},"Ŵ":{"ha":1288,"x_min":19,"x_max":1268,"o":"m 19 993 l 179 993 l 354 211 l 357 211 l 563 993 l 724 993 l 931 211 l 933 211 l 1108 993 l 1268 993 l 1019 0 l 856 0 l 644 799 l 642 799 l 432 0 l 267 0 l 19 993 m 569 1292 l 717 1292 l 849 1100 l 718 1100 l 644 1224 l 642 1224 l 567 1100 l 438 1100 l 569 1292 z "},"ŵ":{"ha":1053,"x_min":13,"x_max":1040,"o":"m 13 708 l 160 708 l 310 160 l 313 160 l 460 708 l 597 708 l 744 160 l 747 160 l 899 708 l 1040 708 l 821 0 l 681 0 l 528 546 l 525 546 l 372 0 l 232 0 l 13 708 m 454 1007 l 601 1007 l 733 815 l 603 815 l 529 939 l 526 939 l 451 815 l 322 815 l 454 1007 z "},"Ŷ":{"ha":885,"x_min":10,"x_max":875,"o":"m 365 397 l 10 993 l 175 993 l 442 518 l 444 518 l 711 993 l 875 993 l 519 397 l 519 0 l 365 0 l 365 397 m 371 1292 l 518 1292 l 650 1100 l 519 1100 l 446 1224 l 443 1224 l 368 1100 l 239 1100 l 371 1292 z "},"ŷ":{"ha":701,"x_min":-1,"x_max":694,"o":"m 168 -249 q 81 -239 131 -249 l 81 -128 q 139 -132 117 -132 q 226 -101 186 -132 q 285 7 265 -69 l -1 708 l 147 708 l 354 167 l 357 167 l 551 708 l 694 708 l 414 -17 q 308 -197 364 -146 q 168 -249 251 -249 m 274 1007 l 421 1007 l 553 815 l 422 815 l 349 939 l 346 939 l 271 815 l 142 815 l 274 1007 z "},"Ÿ":{"ha":885,"x_min":10,"x_max":875,"o":"m 365 397 l 10 993 l 175 993 l 442 518 l 444 518 l 711 993 l 875 993 l 519 397 l 519 0 l 365 0 l 365 397 m 483 1267 l 638 1267 l 638 1119 l 483 1119 l 483 1267 m 250 1267 l 404 1267 l 404 1119 l 250 1119 l 250 1267 z "},"Ź":{"ha":840,"x_min":31,"x_max":803,"o":"m 31 132 l 601 858 l 601 861 l 58 861 l 58 993 l 789 993 l 789 861 l 218 135 l 218 132 l 803 132 l 803 0 l 31 0 l 31 132 m 436 1292 l 596 1292 l 463 1100 l 354 1100 l 436 1292 z "},"ź":{"ha":642,"x_min":26,"x_max":614,"o":"m 26 101 l 414 593 l 414 596 l 51 596 l 51 708 l 599 708 l 599 621 l 201 115 l 201 113 l 614 113 l 614 0 l 26 0 l 26 101 m 336 1007 l 496 1007 l 363 815 l 254 815 l 336 1007 z "},"Ż":{"ha":840,"x_min":31,"x_max":803,"o":"m 31 132 l 601 858 l 601 861 l 58 861 l 58 993 l 789 993 l 789 861 l 218 135 l 218 132 l 803 132 l 803 0 l 31 0 l 31 132 m 343 1267 l 497 1267 l 497 1119 l 343 1119 l 343 1267 z "},"ż":{"ha":642,"x_min":26,"x_max":614,"o":"m 26 101 l 414 593 l 414 596 l 51 596 l 51 708 l 599 708 l 599 621 l 201 115 l 201 113 l 614 113 l 614 0 l 26 0 l 26 101 m 243 982 l 397 982 l 397 835 l 243 835 l 243 982 z "},"Ž":{"ha":840,"x_min":31,"x_max":803,"o":"m 31 132 l 601 858 l 601 861 l 58 861 l 58 993 l 789 993 l 789 861 l 218 135 l 218 132 l 803 132 l 803 0 l 31 0 l 31 132 m 215 1292 l 344 1292 l 419 1168 l 422 1168 l 496 1292 l 626 1292 l 494 1100 l 347 1100 l 215 1292 z "},"ž":{"ha":642,"x_min":26,"x_max":614,"o":"m 26 101 l 414 593 l 414 596 l 51 596 l 51 708 l 599 708 l 599 621 l 201 115 l 201 113 l 614 113 l 614 0 l 26 0 l 26 101 m 114 1007 l 243 1007 l 318 883 l 321 883 l 394 1007 l 525 1007 l 393 815 l 246 815 l 114 1007 z "},"ƒ":{"ha":664,"x_min":21,"x_max":643,"o":"m 108 -154 q 26 -144 79 -154 l 21 -35 q 85 -40 61 -40 q 155 -20 136 -40 q 185 58 174 0 l 278 526 l 171 526 l 175 639 l 300 639 l 331 794 q 407 957 353 911 q 554 1003 461 1003 q 643 994 585 1003 l 617 885 q 563 889 578 889 q 494 867 513 889 q 464 782 476 844 l 436 639 l 567 639 l 563 526 l 413 526 l 319 54 q 247 -109 297 -64 q 108 -154 196 -154 z "},"Ș":{"ha":878,"x_min":33,"x_max":836,"o":"m 472 -19 q 249 23 346 -19 q 95 145 151 65 q 33 335 39 225 l 192 335 q 267 170 200 229 q 468 111 335 111 q 676 271 676 111 q 647 364 676 331 q 567 414 617 397 q 399 461 518 431 q 230 517 296 489 q 118 599 164 544 q 72 742 72 654 q 165 941 72 869 q 419 1013 258 1013 q 694 929 590 1013 q 808 697 797 846 l 650 697 q 582 835 638 789 q 421 882 526 882 q 280 849 328 882 q 232 750 232 815 q 261 667 232 697 q 335 620 290 636 q 464 583 379 604 q 664 522 590 551 q 787 435 738 493 q 836 279 836 378 q 744 63 836 144 q 472 -19 651 -19 m 408 -272 q 464 -243 447 -262 q 481 -183 481 -224 l 408 -183 l 408 -68 l 560 -68 l 560 -183 q 408 -331 560 -299 l 408 -272 z "},"ș":{"ha":678,"x_min":29,"x_max":647,"o":"m 356 -19 q 116 51 200 -19 q 29 236 32 122 l 167 236 q 216 130 171 169 q 354 90 261 90 q 471 120 436 90 q 506 194 506 150 q 481 258 506 236 q 427 288 456 281 q 319 313 399 296 q 183 353 238 332 q 92 415 129 374 q 54 525 54 457 q 126 674 54 618 q 324 729 197 729 q 538 665 463 729 q 621 503 613 601 l 483 503 q 440 587 474 554 q 326 619 406 619 q 228 596 260 619 q 196 531 196 572 q 214 482 196 500 q 260 455 232 464 q 342 435 288 446 q 375 428 353 433 q 515 386 460 408 q 609 319 571 364 q 647 201 647 275 q 571 39 647 97 q 356 -19 494 -19 m 268 -272 q 324 -243 307 -262 q 340 -183 340 -224 l 268 -183 l 268 -68 l 419 -68 l 419 -183 q 268 -331 419 -299 l 268 -272 z "},"Ț":{"ha":838,"x_min":21,"x_max":817,"o":"m 342 861 l 21 861 l 21 993 l 817 993 l 817 861 l 496 861 l 496 0 l 342 0 l 342 861 m 343 -272 q 399 -243 382 -262 q 415 -183 415 -224 l 343 -183 l 343 -68 l 494 -68 l 494 -183 q 343 -331 494 -299 l 343 -272 z "},"ț":{"ha":432,"x_min":19,"x_max":396,"o":"m 310 -8 q 169 38 215 -8 q 122 200 122 83 l 122 596 l 19 596 l 19 708 l 122 708 l 122 936 l 258 936 l 258 708 l 394 708 l 394 596 l 258 596 l 258 196 q 276 123 258 142 q 338 104 293 104 q 396 110 364 104 l 396 0 q 310 -8 354 -8 m 210 -254 q 265 -225 249 -244 q 282 -165 282 -206 l 210 -165 l 210 -50 l 361 -50 l 361 -165 q 210 -312 361 -281 l 210 -254 z "},"ȷ":{"ha":289,"x_min":-42,"x_max":213,"o":"m 43 -251 q -42 -243 11 -251 l -42 -131 q 13 -135 -8 -135 q 61 -112 46 -135 q 76 -32 76 -89 l 76 708 l 213 708 l 213 -37 q 167 -199 213 -147 q 43 -251 122 -251 z "},"ˆ":{"ha":522,"x_min":56,"x_max":467,"o":"m 188 1007 l 335 1007 l 467 815 l 336 815 l 263 939 l 260 939 l 185 815 l 56 815 l 188 1007 z "},"ˇ":{"ha":522,"x_min":56,"x_max":467,"o":"m 56 1007 l 185 1007 l 260 883 l 263 883 l 336 1007 l 467 1007 l 335 815 l 188 815 l 56 1007 z "},"˘":{"ha":485,"x_min":56,"x_max":429,"o":"m 243 801 q 110 851 161 801 q 56 993 58 900 l 149 993 q 175 920 151 943 q 243 897 199 897 q 310 920 288 897 q 336 993 333 943 l 429 993 q 375 851 425 901 q 243 801 325 801 z "},"˙":{"ha":265,"x_min":56,"x_max":208,"o":"m 56 983 l 208 983 l 208 835 l 56 835 l 56 983 z "},"˚":{"ha":364,"x_min":53,"x_max":310,"o":"m 181 754 q 89 790 125 754 q 53 882 53 825 q 89 974 53 939 q 181 1010 125 1010 q 274 974 238 1010 q 310 882 310 939 q 274 790 310 825 q 181 754 238 754 m 118 882 q 135 833 118 851 q 181 815 153 815 q 228 833 210 815 q 246 882 246 851 q 228 930 246 911 q 181 949 210 949 q 135 930 153 949 q 118 882 118 911 z "},"˛":{"ha":340,"x_min":56,"x_max":285,"o":"m 189 -246 q 90 -217 125 -246 q 56 -140 56 -189 q 87 -58 56 -96 q 160 0 118 -21 l 256 0 q 169 -111 169 -68 q 183 -141 169 -131 q 219 -151 197 -151 q 285 -139 250 -151 l 285 -232 q 189 -246 239 -246 z "},"˜":{"ha":519,"x_min":56,"x_max":464,"o":"m 56 824 q 86 934 56 897 q 163 971 117 971 q 213 963 189 971 q 272 940 238 956 q 338 919 319 919 q 372 968 372 919 l 464 968 q 434 857 464 893 q 357 821 404 821 q 308 828 332 821 q 247 851 285 836 q 213 866 229 860 q 183 872 196 872 q 147 824 147 872 l 56 824 z "},"˝":{"ha":551,"x_min":53,"x_max":503,"o":"m 351 1007 l 503 1007 l 367 815 l 261 815 l 351 1007 m 138 1007 l 289 1007 l 158 815 l 53 815 l 138 1007 z "},"̀":{"ha":0,"x_min":50,"x_max":274,"o":"m 50 1007 l 203 1007 l 274 815 l 167 815 l 50 1007 z "},"́":{"ha":0,"x_min":44,"x_max":286,"o":"m 126 1007 l 286 1007 l 153 815 l 44 815 l 126 1007 z "},"̂":{"ha":0,"x_min":56,"x_max":467,"o":"m 188 1007 l 335 1007 l 467 815 l 336 815 l 263 939 l 260 939 l 185 815 l 56 815 l 188 1007 z "},"̃":{"ha":0,"x_min":56,"x_max":464,"o":"m 56 824 q 86 934 56 897 q 163 971 117 971 q 213 963 189 971 q 272 940 238 956 q 338 919 319 919 q 372 968 372 919 l 464 968 q 434 857 464 893 q 357 821 404 821 q 308 828 332 821 q 247 851 285 836 q 213 866 229 860 q 183 872 196 872 q 147 824 147 872 l 56 824 z "},"̄":{"ha":0,"x_min":56,"x_max":422,"o":"m 56 942 l 422 942 l 422 835 l 56 835 l 56 942 z "},"̆":{"ha":0,"x_min":56,"x_max":429,"o":"m 243 801 q 110 851 161 801 q 56 993 58 900 l 149 993 q 175 920 151 943 q 243 897 199 897 q 310 920 288 897 q 336 993 333 943 l 429 993 q 375 851 425 901 q 243 801 325 801 z "},"̇":{"ha":0,"x_min":56,"x_max":210,"o":"m 56 982 l 210 982 l 210 835 l 56 835 l 56 982 z "},"̈":{"ha":0,"x_min":58,"x_max":446,"o":"m 292 982 l 446 982 l 446 835 l 292 835 l 292 982 m 58 982 l 213 982 l 213 835 l 58 835 l 58 982 z "},"̊":{"ha":0,"x_min":53,"x_max":310,"o":"m 181 771 q 89 806 125 771 q 53 899 53 842 q 89 991 53 956 q 181 1026 125 1026 q 274 991 238 1026 q 310 899 310 956 q 274 806 310 842 q 181 771 238 771 m 118 899 q 135 850 118 868 q 181 832 153 832 q 228 850 210 832 q 246 899 246 868 q 228 947 246 928 q 181 965 210 965 q 135 947 153 965 q 118 899 118 928 z "},"̋":{"ha":0,"x_min":53,"x_max":503,"o":"m 351 1007 l 503 1007 l 367 815 l 261 815 l 351 1007 m 138 1007 l 289 1007 l 158 815 l 53 815 l 138 1007 z "},"̌":{"ha":0,"x_min":56,"x_max":467,"o":"m 56 1007 l 185 1007 l 260 883 l 263 883 l 336 1007 l 467 1007 l 335 815 l 188 815 l 56 1007 z "},"̒":{"ha":0,"x_min":60,"x_max":211,"o":"m 60 942 q 211 1103 60 1068 l 211 1038 q 154 1007 171 1028 q 139 942 138 986 l 211 942 l 211 815 l 60 815 l 60 942 z "},"̦":{"ha":0,"x_min":57,"x_max":208,"o":"m 57 -272 q 113 -243 96 -262 q 129 -183 129 -224 l 57 -183 l 57 -68 l 208 -68 l 208 -183 q 57 -331 208 -299 l 57 -272 z "},"̧":{"ha":0,"x_min":60,"x_max":363,"o":"m 210 -275 q 60 -232 128 -275 l 92 -193 q 186 -214 143 -214 q 237 -201 219 -214 q 254 -165 254 -187 q 201 -124 254 -124 q 146 -133 171 -124 l 125 -103 l 211 0 l 288 0 l 225 -74 l 225 -76 q 249 -75 233 -75 q 329 -98 296 -75 q 363 -167 363 -121 q 318 -248 363 -221 q 210 -275 274 -275 z "},"̨":{"ha":0,"x_min":56,"x_max":285,"o":"m 189 -246 q 90 -217 125 -246 q 56 -140 56 -189 q 87 -58 56 -96 q 160 0 118 -21 l 256 0 q 169 -111 169 -68 q 183 -141 169 -131 q 219 -151 197 -151 q 285 -139 250 -151 l 285 -232 q 189 -246 239 -246 z "},"̵":{"ha":0,"x_min":56,"x_max":635,"o":"m 56 565 l 635 565 l 635 463 l 56 463 l 56 565 z "},"̶":{"ha":0,"x_min":56,"x_max":763,"o":"m 56 571 l 763 571 l 763 428 l 56 428 l 56 571 z "},"̷":{"ha":0,"x_min":56,"x_max":792,"o":"m 56 38 l 740 725 l 792 674 l 106 -14 l 56 38 z "},"̸":{"ha":0,"x_min":56,"x_max":792,"o":"m 56 38 l 740 725 l 792 674 l 106 -14 l 56 38 z "},"Δ":{"ha":899,"x_min":29,"x_max":869,"o":"m 29 131 l 360 993 l 536 993 l 869 131 l 869 0 l 29 0 l 29 131 m 714 131 l 454 851 l 443 851 l 182 131 l 714 131 z "},"Ω":{"ha":1103,"x_min":50,"x_max":1053,"o":"m 50 132 l 264 132 q 124 295 176 193 q 72 528 72 397 q 133 776 72 665 q 302 949 193 886 q 551 1013 411 1013 q 801 949 692 1013 q 969 776 910 886 q 1029 528 1029 665 q 978 295 1029 397 q 839 132 926 193 l 1053 132 l 1053 0 l 642 0 l 643 115 q 813 267 753 176 q 874 506 874 358 q 788 779 874 679 q 551 879 703 879 q 315 779 400 879 q 229 506 229 679 q 290 267 229 358 q 460 115 350 176 l 460 0 l 50 0 l 50 132 z "},"μ":{"ha":761,"x_min":76,"x_max":685,"o":"m 76 708 l 213 708 l 213 256 q 248 138 213 181 q 360 96 283 96 q 497 144 444 96 q 549 274 549 193 l 549 708 l 685 708 l 685 0 l 549 0 l 549 89 l 546 89 q 463 13 517 43 q 338 -18 408 -18 q 213 19 263 -18 l 213 -246 l 76 -246 l 76 708 z "},"π":{"ha":785,"x_min":19,"x_max":743,"o":"m 132 596 l 19 596 l 19 708 l 743 708 l 743 596 l 638 596 l 638 196 q 651 122 638 140 q 700 104 664 104 q 740 110 719 104 l 740 0 q 654 -11 703 -11 q 536 34 572 -11 q 500 196 500 79 l 500 596 l 268 596 l 268 0 l 132 0 l 132 596 z "},"Ẁ":{"ha":1288,"x_min":19,"x_max":1268,"o":"m 19 993 l 179 993 l 354 211 l 357 211 l 563 993 l 724 993 l 931 211 l 933 211 l 1108 993 l 1268 993 l 1019 0 l 856 0 l 644 799 l 642 799 l 432 0 l 267 0 l 19 993 m 469 1292 l 622 1292 l 693 1100 l 586 1100 l 469 1292 z "},"ẁ":{"ha":1053,"x_min":13,"x_max":1040,"o":"m 13 708 l 160 708 l 310 160 l 313 160 l 460 708 l 597 708 l 744 160 l 747 160 l 899 708 l 1040 708 l 821 0 l 681 0 l 528 546 l 525 546 l 372 0 l 232 0 l 13 708 m 353 1007 l 506 1007 l 576 815 l 469 815 l 353 1007 z "},"Ẃ":{"ha":1288,"x_min":19,"x_max":1268,"o":"m 19 993 l 179 993 l 354 211 l 357 211 l 563 993 l 724 993 l 931 211 l 933 211 l 1108 993 l 1268 993 l 1019 0 l 856 0 l 644 799 l 642 799 l 432 0 l 267 0 l 19 993 m 660 1292 l 819 1292 l 686 1100 l 578 1100 l 660 1292 z "},"ẃ":{"ha":1053,"x_min":13,"x_max":1040,"o":"m 13 708 l 160 708 l 310 160 l 313 160 l 460 708 l 597 708 l 744 160 l 747 160 l 899 708 l 1040 708 l 821 0 l 681 0 l 528 546 l 525 546 l 372 0 l 232 0 l 13 708 m 543 1007 l 703 1007 l 569 815 l 461 815 l 543 1007 z "},"Ẅ":{"ha":1288,"x_min":19,"x_max":1268,"o":"m 19 993 l 179 993 l 354 211 l 357 211 l 563 993 l 724 993 l 931 211 l 933 211 l 1108 993 l 1268 993 l 1019 0 l 856 0 l 644 799 l 642 799 l 432 0 l 267 0 l 19 993 m 683 1267 l 838 1267 l 838 1119 l 683 1119 l 683 1267 m 450 1267 l 604 1267 l 604 1119 l 450 1119 l 450 1267 z "},"ẅ":{"ha":1053,"x_min":13,"x_max":1040,"o":"m 13 708 l 160 708 l 310 160 l 313 160 l 460 708 l 597 708 l 744 160 l 747 160 l 899 708 l 1040 708 l 821 0 l 681 0 l 528 546 l 525 546 l 372 0 l 232 0 l 13 708 m 567 982 l 721 982 l 721 835 l 567 835 l 567 982 m 333 982 l 488 982 l 488 835 l 333 835 l 333 982 z "},"Ỳ":{"ha":885,"x_min":10,"x_max":875,"o":"m 365 397 l 10 993 l 175 993 l 442 518 l 444 518 l 711 993 l 875 993 l 519 397 l 519 0 l 365 0 l 365 397 m 269 1292 l 422 1292 l 493 1100 l 386 1100 l 269 1292 z "},"ỳ":{"ha":701,"x_min":-1,"x_max":694,"o":"m 168 -249 q 81 -239 131 -249 l 81 -128 q 139 -132 117 -132 q 226 -101 186 -132 q 285 7 265 -69 l -1 708 l 147 708 l 354 167 l 357 167 l 551 708 l 694 708 l 414 -17 q 308 -197 364 -146 q 168 -249 251 -249 m 172 1007 l 325 1007 l 396 815 l 289 815 l 172 1007 z "}," ":{"ha":694,"x_min":0,"x_max":0,"o":""}," ":{"ha":1389,"x_min":0,"x_max":0,"o":""}," ":{"ha":694,"x_min":0,"x_max":0,"o":""}," ":{"ha":1389,"x_min":0,"x_max":0,"o":""}," ":{"ha":463,"x_min":0,"x_max":0,"o":""}," ":{"ha":347,"x_min":0,"x_max":0,"o":""}," ":{"ha":232,"x_min":0,"x_max":0,"o":""}," ":{"ha":1004,"x_min":0,"x_max":0,"o":""}," ":{"ha":276,"x_min":0,"x_max":0,"o":""}," ":{"ha":174,"x_min":0,"x_max":0,"o":""}," ":{"ha":58,"x_min":0,"x_max":0,"o":""},"​":{"ha":0,"x_min":0,"x_max":0,"o":""},"–":{"ha":810,"x_min":58,"x_max":753,"o":"m 58 418 l 753 418 l 753 289 l 58 289 l 58 418 z "},"—":{"ha":1503,"x_min":57,"x_max":1446,"o":"m 57 417 l 1446 417 l 1446 288 l 57 288 l 57 417 z "},"‘":{"ha":272,"x_min":57,"x_max":208,"o":"m 57 804 q 208 993 57 956 l 208 917 q 151 881 168 906 q 136 804 135 857 l 208 804 l 208 653 l 57 653 l 57 804 z "},"’":{"ha":261,"x_min":64,"x_max":215,"o":"m 64 728 q 121 765 104 740 q 136 842 138 789 l 64 842 l 64 993 l 215 993 l 215 842 q 64 653 215 690 l 64 728 z "},"‚":{"ha":282,"x_min":65,"x_max":217,"o":"m 65 -114 q 122 -77 106 -101 q 138 0 139 -53 l 65 0 l 65 151 l 217 151 l 217 0 q 65 -189 217 -151 l 65 -114 z "},"“":{"ha":493,"x_min":57,"x_max":429,"o":"m 278 806 q 429 994 278 957 l 429 918 q 372 881 389 906 q 357 806 356 857 l 429 806 l 429 654 l 278 654 l 278 806 m 57 806 q 208 994 57 957 l 208 918 q 151 881 168 906 q 136 806 135 857 l 208 806 l 208 654 l 57 654 l 57 806 z "},"”":{"ha":482,"x_min":64,"x_max":436,"o":"m 64 728 q 121 765 104 740 q 136 842 138 789 l 64 842 l 64 993 l 215 993 l 215 842 q 64 653 215 690 l 64 728 m 285 728 q 342 765 325 740 q 357 842 358 789 l 285 842 l 285 993 l 436 993 l 436 842 q 285 653 436 690 l 285 728 z "},"„":{"ha":504,"x_min":65,"x_max":439,"o":"m 288 -114 q 344 -77 328 -101 q 360 0 361 -53 l 288 0 l 288 151 l 439 151 l 439 0 q 288 -189 439 -151 l 288 -114 m 65 -114 q 122 -77 106 -101 q 138 0 139 -53 l 65 0 l 65 151 l 217 151 l 217 0 q 65 -189 217 -151 l 65 -114 z "},"†":{"ha":675,"x_min":19,"x_max":657,"o":"m 263 582 l 19 582 l 19 711 l 263 711 l 263 993 l 414 993 l 414 711 l 657 711 l 657 582 l 414 582 l 414 -246 l 263 -246 l 263 582 z "},"‡":{"ha":728,"x_min":46,"x_max":683,"o":"m 289 138 l 46 138 l 46 267 l 289 267 l 289 582 l 46 582 l 46 711 l 289 711 l 289 993 l 440 993 l 440 711 l 683 711 l 683 582 l 440 582 l 440 267 l 683 267 l 683 138 l 440 138 l 440 -246 l 289 -246 l 289 138 z "},"•":{"ha":535,"x_min":106,"x_max":431,"o":"m 106 578 l 431 578 l 431 253 l 106 253 l 106 578 z "},"…":{"ha":831,"x_min":63,"x_max":768,"o":"m 63 151 l 214 151 l 214 0 l 63 0 l 63 151 m 340 151 l 492 151 l 492 0 l 340 0 l 340 151 m 617 151 l 768 151 l 768 0 l 617 0 l 617 151 z "},"‰":{"ha":1681,"x_min":29,"x_max":1653,"o":"m 1414 -19 q 1238 58 1300 -19 q 1175 256 1175 136 q 1237 454 1175 376 q 1414 532 1299 532 q 1590 454 1528 532 q 1653 256 1653 376 q 1591 58 1653 135 q 1414 -19 1529 -19 m 29 704 q 91 902 29 825 q 269 979 153 979 q 446 901 383 979 q 508 704 508 824 q 447 506 508 583 q 269 428 385 428 q 92 506 156 428 q 29 704 29 583 m 156 704 q 184 577 156 622 q 269 532 213 532 q 353 577 325 532 q 382 704 382 622 q 353 831 382 786 q 269 876 325 876 q 184 831 213 876 q 156 704 156 786 m 788 960 l 907 960 l 374 0 l 254 0 l 788 960 m 654 256 q 716 454 654 376 q 893 532 778 532 q 1069 454 1007 532 q 1132 256 1132 376 q 1070 58 1132 135 q 893 -19 1008 -19 q 717 58 779 -19 q 654 256 654 136 m 779 256 q 808 129 779 175 q 893 83 838 83 q 978 129 949 83 q 1007 256 1007 175 q 978 382 1007 336 q 893 428 949 428 q 808 382 838 428 q 779 256 779 336 m 1300 256 q 1329 129 1300 175 q 1414 83 1358 83 q 1499 129 1469 83 q 1528 256 1528 175 q 1499 382 1528 336 q 1414 428 1469 428 q 1329 382 1358 428 q 1300 256 1300 336 z "},"‹":{"ha":406,"x_min":60,"x_max":336,"o":"m 60 279 l 60 431 l 336 653 l 336 507 l 138 356 l 138 353 l 336 204 l 336 57 l 60 279 z "},"›":{"ha":406,"x_min":69,"x_max":346,"o":"m 69 203 l 268 353 l 268 356 l 69 506 l 69 653 l 346 429 l 346 278 l 69 57 l 69 203 z "},"⁄":{"ha":290,"x_min":-243,"x_max":529,"o":"m 386 993 l 529 993 l -100 0 l -243 0 l 386 993 z "},"⁰":{"ha":557,"x_min":38,"x_max":519,"o":"m 279 501 q 99 584 160 501 q 38 794 38 667 q 99 1006 38 922 q 279 1089 161 1089 q 458 1005 397 1089 q 519 794 519 921 q 458 585 519 668 q 279 501 397 501 m 163 794 q 189 651 163 703 q 279 600 215 600 q 368 651 342 600 q 394 794 394 703 q 368 938 394 886 q 279 990 342 990 q 189 938 215 990 q 163 794 163 886 z "},"⁴":{"ha":525,"x_min":31,"x_max":494,"o":"m 290 628 l 31 628 l 31 746 l 290 1069 l 414 1069 l 414 728 l 494 728 l 494 628 l 414 628 l 414 506 l 290 506 l 290 628 m 290 728 l 290 931 l 128 728 l 290 728 z "},"⁵":{"ha":515,"x_min":29,"x_max":478,"o":"m 263 493 q 94 544 156 493 q 29 678 32 594 l 154 678 q 184 617 158 640 q 256 593 210 593 q 326 621 300 593 q 351 699 351 649 q 327 774 351 747 q 256 800 303 800 q 160 757 197 800 l 43 757 l 106 1069 l 451 1069 l 451 969 l 193 969 l 168 847 l 168 846 q 292 889 218 889 q 426 837 375 889 q 478 697 478 785 q 417 547 478 601 q 263 493 357 493 z "},"⁶":{"ha":528,"x_min":39,"x_max":493,"o":"m 275 497 q 94 577 150 497 q 39 788 39 657 q 102 1009 39 931 q 274 1088 165 1088 q 408 1044 354 1088 q 475 932 463 1000 l 351 932 q 326 977 346 961 q 271 993 306 993 q 158 840 160 993 l 158 832 l 161 831 q 219 874 183 858 q 300 890 254 890 q 440 836 386 890 q 493 699 493 782 q 433 553 493 610 q 275 497 374 497 m 169 693 q 196 621 169 649 q 269 593 222 593 q 344 621 318 593 q 371 693 371 649 q 345 767 371 739 q 274 796 319 796 q 197 767 225 796 q 169 693 169 738 z "},"⁷":{"ha":446,"x_min":14,"x_max":424,"o":"m 101 506 q 128 685 101 594 q 199 850 154 775 q 292 968 243 925 l 292 969 l 14 969 l 14 1069 l 424 1069 l 424 978 q 281 774 332 903 q 231 506 231 644 l 101 506 z "},"⁸":{"ha":526,"x_min":35,"x_max":492,"o":"m 263 500 q 99 545 163 500 q 35 672 35 590 q 142 814 35 769 l 142 815 q 61 936 61 860 q 118 1049 61 1007 q 263 1090 175 1090 q 408 1049 351 1090 q 465 936 465 1007 q 386 815 465 860 l 386 814 q 492 672 492 767 q 428 545 492 590 q 263 500 364 500 m 158 683 q 186 619 158 644 q 263 594 214 594 q 340 619 313 594 q 367 683 367 643 q 340 747 367 722 q 263 771 313 771 q 186 747 214 771 q 158 683 158 722 m 174 928 q 197 873 174 893 q 263 853 219 853 q 329 873 307 853 q 351 928 351 893 q 328 981 351 961 q 263 1001 306 1001 q 197 981 221 1001 q 174 928 174 961 z "},"⁹":{"ha":526,"x_min":36,"x_max":489,"o":"m 254 501 q 118 545 174 501 q 51 657 63 589 l 176 657 q 257 596 190 596 q 340 637 314 596 q 367 744 367 678 l 367 754 l 365 754 q 308 713 343 729 q 228 697 272 697 q 90 751 143 697 q 36 889 36 806 q 95 1035 36 979 q 253 1092 154 1092 q 433 1010 378 1092 q 489 799 489 929 q 426 579 489 657 q 254 501 363 501 m 156 894 q 182 821 156 849 q 254 793 208 793 q 333 822 304 793 q 361 896 361 851 q 333 968 361 940 q 257 996 306 996 q 182 968 208 996 q 156 894 156 940 z "},"₀":{"ha":557,"x_min":38,"x_max":519,"o":"m 279 -150 q 99 -67 160 -150 q 38 143 38 15 q 99 354 38 271 q 279 438 161 438 q 458 353 397 438 q 519 143 519 269 q 458 -67 519 17 q 279 -150 397 -150 m 163 143 q 189 0 163 51 q 279 -51 215 -51 q 368 0 342 -51 q 394 143 394 51 q 368 287 394 235 q 279 339 342 339 q 189 287 215 339 q 163 143 163 235 z "},"₁":{"ha":326,"x_min":18,"x_max":263,"o":"m 138 250 q 18 231 110 231 l 18 326 q 122 352 85 328 q 160 425 158 376 l 263 425 l 263 -139 l 138 -139 l 138 250 z "},"₂":{"ha":494,"x_min":28,"x_max":454,"o":"m 28 -139 q 59 -19 28 -65 q 163 82 90 28 l 211 115 q 301 187 272 157 q 329 261 329 217 q 310 317 329 296 q 253 339 292 339 q 158 221 158 339 l 39 221 q 94 378 39 318 q 257 439 150 439 q 401 394 347 439 q 454 269 454 350 q 433 181 454 219 q 382 115 413 142 q 300 51 351 88 q 235 3 257 22 q 201 -37 214 -15 l 201 -39 l 451 -39 l 451 -139 l 28 -139 z "},"₃":{"ha":518,"x_min":29,"x_max":481,"o":"m 267 -151 q 91 -97 153 -151 q 29 58 29 -42 l 150 58 q 175 -24 150 4 q 258 -51 200 -51 q 354 26 354 -51 q 250 108 354 108 l 213 108 l 213 197 l 247 197 q 338 267 338 197 q 317 320 338 301 q 258 339 297 339 q 165 253 165 339 l 46 253 q 103 388 46 336 q 265 439 161 439 q 406 397 349 439 q 463 282 463 354 q 379 160 463 200 l 379 158 q 481 21 481 128 q 422 -106 481 -61 q 267 -151 364 -151 z "},"₄":{"ha":525,"x_min":31,"x_max":494,"o":"m 290 -17 l 31 -17 l 31 101 l 290 425 l 414 425 l 414 83 l 494 83 l 494 -17 l 414 -17 l 414 -139 l 290 -139 l 290 -17 m 290 83 l 290 286 l 128 83 l 290 83 z "},"₅":{"ha":515,"x_min":29,"x_max":478,"o":"m 263 -151 q 94 -101 156 -151 q 29 33 32 -50 l 154 33 q 184 -28 158 -4 q 256 -51 210 -51 q 326 -24 300 -51 q 351 54 351 4 q 327 129 351 103 q 256 156 303 156 q 160 113 197 156 l 43 113 l 106 425 l 451 425 l 451 325 l 193 325 l 168 203 l 168 201 q 292 244 218 244 q 426 192 375 244 q 478 53 478 140 q 417 -97 478 -43 q 263 -151 357 -151 z "},"₆":{"ha":528,"x_min":39,"x_max":493,"o":"m 275 -151 q 94 -72 150 -151 q 39 139 39 8 q 102 360 39 282 q 274 439 165 439 q 408 395 354 439 q 475 283 463 351 l 351 283 q 326 328 346 313 q 271 344 306 344 q 158 192 160 344 l 158 183 l 161 182 q 219 226 183 210 q 300 242 254 242 q 440 188 386 242 q 493 50 493 133 q 433 -95 493 -39 q 275 -151 374 -151 m 169 44 q 196 -28 169 0 q 269 -56 222 -56 q 344 -28 318 -56 q 371 44 371 0 q 345 119 371 90 q 274 147 319 147 q 197 118 225 147 q 169 44 169 89 z "},"₇":{"ha":446,"x_min":14,"x_max":424,"o":"m 101 -139 q 128 40 101 -50 q 199 206 154 131 q 292 324 243 281 l 292 325 l 14 325 l 14 425 l 424 425 l 424 333 q 281 129 332 258 q 231 -139 231 0 l 101 -139 z "},"₈":{"ha":526,"x_min":35,"x_max":492,"o":"m 263 -151 q 99 -106 163 -151 q 35 21 35 -61 q 142 163 35 118 l 142 164 q 61 285 61 208 q 118 397 61 356 q 263 439 175 439 q 408 397 351 439 q 465 285 465 356 q 386 164 465 208 l 386 163 q 492 21 492 115 q 428 -106 492 -61 q 263 -151 364 -151 m 158 32 q 186 -32 158 -7 q 263 -57 214 -57 q 340 -33 313 -57 q 367 32 367 -8 q 340 95 367 71 q 263 119 313 119 q 186 95 214 119 q 158 32 158 71 m 174 276 q 197 222 174 242 q 263 201 219 201 q 329 222 307 201 q 351 276 351 242 q 328 330 351 310 q 263 350 306 350 q 197 330 221 350 q 174 276 174 310 z "},"₉":{"ha":526,"x_min":36,"x_max":489,"o":"m 254 -151 q 118 -108 174 -151 q 51 4 63 -64 l 176 4 q 257 -57 190 -57 q 340 -16 314 -57 q 367 92 367 25 l 367 101 l 365 101 q 308 60 343 76 q 228 44 272 44 q 90 99 143 44 q 36 236 36 153 q 95 383 36 326 q 253 439 154 439 q 433 358 378 439 q 489 146 489 276 q 426 -74 489 4 q 254 -151 363 -151 m 156 242 q 182 168 156 196 q 254 140 208 140 q 333 169 304 140 q 361 243 361 199 q 333 315 361 288 q 257 343 306 343 q 182 315 208 343 q 156 242 156 288 z "},"€":{"ha":925,"x_min":67,"x_max":871,"o":"m 525 -19 q 274 79 371 -19 q 153 349 178 178 l 67 349 l 67 435 l 144 435 q 143 476 143 449 l 143 511 l 67 511 l 67 596 l 151 596 q 272 870 176 769 q 525 971 368 971 q 767 877 679 971 q 871 629 854 783 l 721 629 q 663 782 707 722 q 524 842 619 842 q 374 776 428 842 q 301 596 319 710 l 565 596 l 565 511 l 293 511 l 293 476 q 294 435 293 449 l 565 435 l 565 349 l 303 349 q 375 174 321 239 q 524 110 429 110 q 668 175 622 110 q 721 346 714 240 l 871 346 q 769 78 856 175 q 525 -19 682 -19 z "},"™":{"ha":922,"x_min":28,"x_max":843,"o":"m 410 993 l 546 993 l 625 728 l 626 728 l 708 993 l 843 993 l 843 606 l 751 606 l 751 881 l 749 881 l 665 606 l 586 606 l 504 881 l 501 881 l 501 606 l 410 606 l 410 993 m 28 993 l 361 993 l 361 907 l 243 907 l 243 606 l 146 606 l 146 907 l 28 907 l 28 993 z "},"Ω":{"ha":1103,"x_min":50,"x_max":1053,"o":"m 50 132 l 264 132 q 124 295 176 193 q 72 528 72 397 q 133 776 72 665 q 302 949 193 886 q 551 1013 411 1013 q 801 949 692 1013 q 969 776 910 886 q 1029 528 1029 665 q 978 295 1029 397 q 839 132 926 193 l 1053 132 l 1053 0 l 642 0 l 643 115 q 813 267 753 176 q 874 506 874 358 q 788 779 874 679 q 551 879 703 879 q 315 779 400 879 q 229 506 229 679 q 290 267 229 358 q 460 115 350 176 l 460 0 l 50 0 l 50 132 z "},"⅛":{"ha":1093,"x_min":25,"x_max":1063,"o":"m 144 818 q 25 799 117 799 l 25 894 q 128 920 92 896 q 167 993 165 944 l 269 993 l 269 429 l 144 429 l 144 818 m 728 993 l 871 993 l 242 0 l 99 0 l 728 993 m 833 -12 q 669 33 733 -12 q 606 160 606 78 q 713 301 606 257 l 713 303 q 632 424 632 347 q 689 536 632 494 q 833 578 746 578 q 979 536 922 578 q 1036 424 1036 494 q 957 303 1036 347 l 957 301 q 1063 160 1063 254 q 999 33 1063 78 q 833 -12 935 -12 m 729 171 q 757 107 729 132 q 833 82 785 82 q 910 106 883 82 q 938 171 938 131 q 910 234 938 210 q 833 258 883 258 q 757 234 785 258 q 729 171 729 210 m 744 415 q 767 360 744 381 q 833 340 790 340 q 900 360 878 340 q 922 415 922 381 q 899 469 922 449 q 833 489 876 489 q 768 469 792 489 q 744 415 744 449 z "},"⅜":{"ha":1290,"x_min":40,"x_max":1253,"o":"m 278 418 q 102 473 164 418 q 40 628 40 528 l 161 628 q 186 546 161 574 q 269 518 211 518 q 365 596 365 518 q 261 678 365 678 l 224 678 l 224 767 l 258 767 q 349 836 349 767 q 328 890 349 871 q 269 908 308 908 q 176 822 176 908 l 57 822 q 115 957 57 906 q 276 1008 172 1008 q 417 966 360 1008 q 474 851 474 924 q 390 729 474 769 l 390 728 q 492 590 492 697 q 433 463 492 508 q 278 418 375 418 m 913 993 l 1056 993 l 426 0 l 283 0 l 913 993 m 1024 -12 q 860 33 924 -12 q 796 160 796 78 q 903 301 796 257 l 903 303 q 822 424 822 347 q 879 536 822 494 q 1024 578 936 578 q 1169 536 1113 578 q 1226 424 1226 494 q 1147 303 1226 347 l 1147 301 q 1253 160 1253 254 q 1189 33 1253 78 q 1024 -12 1125 -12 m 919 171 q 947 107 919 132 q 1024 82 975 82 q 1101 106 1074 82 q 1128 171 1128 131 q 1101 234 1128 210 q 1024 258 1074 258 q 947 234 975 258 q 919 171 919 210 m 935 415 q 958 360 935 381 q 1024 340 981 340 q 1090 360 1068 340 q 1113 415 1113 381 q 1090 469 1113 449 q 1024 489 1067 489 q 958 469 982 489 q 935 415 935 449 z "},"⅝":{"ha":1264,"x_min":32,"x_max":1231,"o":"m 265 417 q 97 467 158 417 q 32 601 35 518 l 157 601 q 187 540 161 564 q 258 517 213 517 q 328 544 303 517 q 354 622 354 572 q 330 697 354 671 q 258 724 306 724 q 163 681 200 724 l 46 681 l 108 993 l 454 993 l 454 893 l 196 893 l 171 771 l 171 769 q 294 813 221 813 q 429 760 378 813 q 481 621 481 708 q 420 471 481 525 q 265 417 360 417 m 890 993 l 1033 993 l 404 0 l 261 0 l 890 993 m 1001 -12 q 838 33 901 -12 q 774 160 774 78 q 881 301 774 257 l 881 303 q 800 424 800 347 q 857 536 800 494 q 1001 578 914 578 q 1147 536 1090 578 q 1204 424 1204 494 q 1125 303 1204 347 l 1125 301 q 1231 160 1231 254 q 1167 33 1231 78 q 1001 -12 1103 -12 m 897 171 q 925 107 897 132 q 1001 82 953 82 q 1078 106 1051 82 q 1106 171 1106 131 q 1078 234 1106 210 q 1001 258 1051 258 q 925 234 953 258 q 897 171 897 210 m 913 415 q 935 360 913 381 q 1001 340 958 340 q 1068 360 1046 340 q 1090 415 1090 381 q 1067 469 1090 449 q 1001 489 1044 489 q 936 469 960 489 q 913 415 913 449 z "},"⅞":{"ha":1143,"x_min":19,"x_max":1113,"o":"m 107 429 q 133 608 107 518 q 204 774 160 699 q 297 892 249 849 l 297 893 l 19 893 l 19 993 l 429 993 l 429 901 q 287 697 338 826 q 236 429 236 568 l 107 429 m 751 993 l 894 993 l 265 0 l 122 0 l 751 993 m 883 -12 q 719 33 783 -12 q 656 160 656 78 q 763 301 656 257 l 763 303 q 682 424 682 347 q 739 536 682 494 q 883 578 796 578 q 1029 536 972 578 q 1086 424 1086 494 q 1007 303 1086 347 l 1007 301 q 1113 160 1113 254 q 1049 33 1113 78 q 883 -12 985 -12 m 779 171 q 807 107 779 132 q 883 82 835 82 q 960 106 933 82 q 988 171 988 131 q 960 234 988 210 q 883 258 933 258 q 807 234 835 258 q 779 171 779 210 m 794 415 q 817 360 794 381 q 883 340 840 340 q 950 360 928 340 q 972 415 972 381 q 949 469 972 449 q 883 489 926 489 q 818 469 842 489 q 794 415 794 449 z "},"←":{"ha":1082,"x_min":58,"x_max":1018,"o":"m 58 443 l 417 831 l 499 754 l 261 500 l 1018 500 l 1018 388 l 261 388 l 499 133 l 417 56 l 58 443 z "},"↑":{"ha":833,"x_min":29,"x_max":804,"o":"m 360 757 l 107 518 l 29 601 l 417 960 l 804 601 l 726 518 l 474 757 l 474 0 l 360 0 l 360 757 z "},"→":{"ha":1082,"x_min":65,"x_max":1025,"o":"m 583 133 l 822 388 l 65 388 l 65 500 l 822 500 l 583 754 l 665 831 l 1025 443 l 665 56 l 583 133 z "},"↓":{"ha":835,"x_min":29,"x_max":806,"o":"m 29 303 l 107 386 l 361 147 l 361 904 l 474 904 l 474 147 l 728 386 l 806 303 l 418 -56 l 29 303 z "},"↔":{"ha":1610,"x_min":54,"x_max":1554,"o":"m 54 443 l 414 831 l 496 754 l 257 500 l 1351 500 l 1114 754 l 1196 831 l 1554 443 l 1196 56 l 1114 133 l 1351 388 l 257 388 l 496 133 l 414 56 l 54 443 z "},"↕":{"ha":842,"x_min":33,"x_max":808,"o":"m 33 113 l 111 196 l 364 -43 l 364 889 l 111 650 l 33 733 l 421 1092 l 808 733 l 731 650 l 478 889 l 478 -43 l 731 196 l 808 113 l 421 -246 l 33 113 z "},"↖":{"ha":826,"x_min":71,"x_max":792,"o":"m 179 633 l 179 290 l 71 289 l 71 819 l 601 819 l 600 713 l 256 713 l 792 178 l 713 97 l 179 633 z "},"↗":{"ha":826,"x_min":35,"x_max":756,"o":"m 35 178 l 571 713 l 226 713 l 226 819 l 756 819 l 756 289 l 647 290 l 647 633 l 114 97 l 35 178 z "},"↘":{"ha":838,"x_min":36,"x_max":758,"o":"m 228 182 l 572 182 l 36 717 l 115 797 l 649 261 l 649 604 l 758 606 l 758 75 l 228 75 l 228 182 z "},"↙":{"ha":838,"x_min":81,"x_max":801,"o":"m 81 606 l 189 604 l 189 261 l 722 797 l 801 717 l 265 182 l 610 182 l 611 75 l 81 75 l 81 606 z "},"∂":{"ha":743,"x_min":28,"x_max":692,"o":"m 325 -19 q 169 19 236 -19 q 65 131 101 58 q 28 301 28 203 q 69 474 28 393 q 182 605 110 556 q 344 654 254 654 q 469 627 418 654 q 553 546 519 600 q 434 773 521 696 q 201 875 347 850 l 201 993 q 569 814 446 963 q 692 439 692 665 q 653 212 692 315 q 533 44 615 108 q 325 -19 450 -19 m 164 292 q 213 149 164 201 q 340 96 263 96 q 496 166 439 96 q 553 342 553 236 q 506 483 553 426 q 376 539 458 539 q 222 468 279 539 q 164 292 164 397 z "},"∅":{"ha":1158,"x_min":68,"x_max":1092,"o":"m 581 -19 q 399 10 485 -19 q 246 93 313 39 l 156 3 l 103 57 l 190 144 q 100 296 132 211 q 68 479 68 381 q 136 739 68 625 q 321 916 204 853 q 581 979 438 979 q 761 950 676 979 q 913 867 846 921 l 1004 958 l 1057 903 l 968 815 q 1060 665 1028 750 q 1092 479 1092 579 q 1024 220 1092 333 q 840 44 957 107 q 581 -19 724 -19 m 143 479 q 170 326 143 397 q 246 200 197 256 l 858 813 q 729 881 800 857 q 581 904 658 904 q 360 850 460 904 q 201 699 260 796 q 143 479 143 603 m 301 147 q 430 79 358 103 q 581 56 501 56 q 799 109 700 56 q 957 260 899 163 q 1015 479 1015 357 q 989 633 1015 561 q 914 760 963 704 l 301 147 z "},"∆":{"ha":896,"x_min":28,"x_max":868,"o":"m 28 131 l 358 993 l 535 993 l 868 131 l 868 0 l 28 0 l 28 131 m 713 131 l 453 851 l 442 851 l 181 131 l 713 131 z "},"∏":{"ha":992,"x_min":99,"x_max":894,"o":"m 99 993 l 894 993 l 894 -139 l 743 -139 l 743 864 l 249 864 l 249 -139 l 99 -139 l 99 993 z "},"∑":{"ha":832,"x_min":43,"x_max":794,"o":"m 43 -6 l 419 438 l 419 440 l 43 861 l 43 993 l 781 993 l 781 864 l 218 864 l 218 861 l 556 481 l 556 406 l 208 -7 l 208 -10 l 794 -10 l 794 -139 l 43 -139 l 43 -6 z "},"−":{"ha":774,"x_min":67,"x_max":707,"o":"m 67 518 l 707 518 l 707 389 l 67 389 l 67 518 z "},"∙":{"ha":424,"x_min":136,"x_max":288,"o":"m 136 557 l 288 557 l 288 406 l 136 406 l 136 557 z "},"√":{"ha":878,"x_min":58,"x_max":853,"o":"m 163 322 l 58 322 l 58 451 l 258 451 l 397 46 l 400 46 l 703 993 l 853 993 l 467 -139 l 331 -139 l 163 322 z "},"∞":{"ha":1029,"x_min":61,"x_max":968,"o":"m 268 178 q 166 205 213 178 q 90 288 119 232 q 61 422 61 343 q 90 558 61 503 q 166 641 119 614 q 268 668 213 668 q 403 629 347 668 q 514 525 460 590 l 517 525 q 629 630 575 592 q 763 668 683 668 q 864 641 817 668 q 940 558 911 614 q 968 422 968 503 q 940 288 968 343 q 864 205 911 232 q 763 178 817 178 q 663 202 707 178 q 594 251 618 226 q 517 335 569 275 l 514 335 q 440 254 468 282 q 367 202 413 226 q 268 178 322 178 m 182 424 q 210 332 182 364 q 288 300 239 300 q 372 332 336 300 q 454 424 408 364 q 402 488 422 465 q 352 530 382 511 q 288 549 322 549 q 210 516 239 549 q 182 424 182 483 m 575 424 q 609 381 579 418 q 674 322 639 343 q 742 300 708 300 q 819 332 790 300 q 847 424 847 364 q 819 516 847 483 q 742 549 790 549 q 678 530 708 549 q 631 490 649 511 q 575 424 613 469 z "},"∫":{"ha":519,"x_min":19,"x_max":499,"o":"m 132 -243 q 19 -229 61 -243 l 19 -106 q 69 -112 42 -112 q 158 -75 132 -112 q 183 38 183 -37 l 183 792 q 234 963 183 900 q 388 1026 285 1026 q 499 1013 457 1026 l 499 889 q 449 896 476 896 q 335 746 335 896 l 335 -8 q 284 -180 335 -117 q 132 -243 233 -243 z "},"≈":{"ha":808,"x_min":78,"x_max":736,"o":"m 78 454 q 115 582 78 531 q 238 633 153 633 q 309 626 272 633 q 403 606 346 619 q 492 587 457 593 q 557 581 526 581 q 614 596 597 581 q 631 643 631 611 l 736 643 q 699 516 736 567 q 576 465 663 465 q 509 472 543 465 q 413 492 475 478 q 330 509 371 501 q 257 517 289 517 q 201 501 217 517 q 185 454 185 486 l 78 454 m 78 218 q 115 345 78 294 q 238 396 153 396 q 315 388 271 396 q 403 369 360 379 q 492 351 457 357 q 557 344 526 344 q 615 360 599 344 q 631 407 631 375 l 736 407 q 699 279 736 331 q 576 228 661 228 q 509 234 543 228 q 413 254 475 240 q 324 274 360 267 q 257 281 289 281 q 201 265 217 281 q 185 218 185 250 l 78 218 z "},"≠":{"ha":765,"x_min":74,"x_max":700,"o":"m 251 281 l 74 281 l 74 410 l 313 410 l 354 499 l 74 499 l 74 628 l 415 628 l 483 774 l 590 774 l 522 628 l 700 628 l 700 499 l 461 499 l 419 410 l 700 410 l 700 281 l 358 281 l 290 136 l 183 136 l 251 281 z "},"≤":{"ha":692,"x_min":58,"x_max":625,"o":"m 58 375 l 58 519 l 625 740 l 625 611 l 171 449 l 171 446 l 625 285 l 625 156 l 58 375 m 58 113 l 625 113 l 625 0 l 58 0 l 58 113 z "},"≥":{"ha":692,"x_min":67,"x_max":633,"o":"m 67 285 l 521 446 l 521 449 l 67 611 l 67 740 l 633 519 l 633 375 l 67 156 l 67 285 m 67 113 l 633 113 l 633 0 l 67 0 l 67 113 z "},"≦":{"ha":781,"x_min":74,"x_max":697,"o":"m 74 581 l 74 728 l 697 949 l 697 818 l 204 656 l 204 653 l 697 492 l 697 361 l 74 581 m 74 122 l 697 122 l 697 0 l 74 0 l 74 122 m 74 325 l 697 325 l 697 203 l 74 203 l 74 325 z "},"≧":{"ha":781,"x_min":83,"x_max":707,"o":"m 83 492 l 576 653 l 576 656 l 83 818 l 83 949 l 707 728 l 707 581 l 83 361 l 83 492 m 83 122 l 707 122 l 707 0 l 83 0 l 83 122 m 83 325 l 707 325 l 707 203 l 83 203 l 83 325 z "},"①":{"ha":1171,"x_min":65,"x_max":1104,"o":"m 586 -19 q 310 43 428 -19 q 129 222 193 106 q 65 496 65 339 q 129 769 65 653 q 310 949 193 886 q 586 1013 428 1013 q 861 950 744 1013 q 1041 771 978 888 q 1104 496 1104 654 q 1041 222 1104 339 q 861 43 978 106 q 586 -19 744 -19 m 186 496 q 235 278 186 371 q 374 135 283 185 q 586 85 464 85 q 797 135 707 85 q 936 278 888 185 q 985 496 985 371 q 936 715 985 622 q 797 858 888 808 q 586 908 707 908 q 374 858 464 908 q 235 715 283 808 q 186 496 186 622 m 542 604 q 422 585 514 585 l 422 681 q 526 706 489 682 q 564 779 563 731 l 667 779 l 667 215 l 542 215 l 542 604 z "},"②":{"ha":1171,"x_min":65,"x_max":1104,"o":"m 586 -19 q 310 43 428 -19 q 129 222 193 106 q 65 496 65 339 q 129 769 65 653 q 310 949 193 886 q 586 1013 428 1013 q 861 950 744 1013 q 1041 771 978 888 q 1104 496 1104 654 q 1041 222 1104 339 q 861 43 978 106 q 586 -19 744 -19 m 186 496 q 235 278 186 371 q 374 135 283 185 q 586 85 464 85 q 797 135 707 85 q 936 278 888 185 q 985 496 985 371 q 936 715 985 622 q 797 858 888 808 q 586 908 707 908 q 374 858 464 908 q 235 715 283 808 q 186 496 186 622 m 372 215 q 403 335 372 289 q 507 436 435 382 l 556 469 q 645 541 617 511 q 674 615 674 571 q 655 672 674 650 q 597 693 636 693 q 503 575 503 693 l 383 575 q 439 733 383 672 q 601 793 494 793 q 745 749 692 793 q 799 624 799 704 q 778 535 799 574 q 726 469 757 496 q 644 406 696 442 q 580 358 601 376 q 546 317 558 339 l 546 315 l 796 315 l 796 215 l 372 215 z "},"③":{"ha":1171,"x_min":65,"x_max":1104,"o":"m 586 -19 q 310 43 428 -19 q 129 222 193 106 q 65 496 65 339 q 129 769 65 653 q 310 949 193 886 q 586 1013 428 1013 q 861 950 744 1013 q 1041 771 978 888 q 1104 496 1104 654 q 1041 222 1104 339 q 861 43 978 106 q 586 -19 744 -19 m 186 496 q 235 278 186 371 q 374 135 283 185 q 586 85 464 85 q 797 135 707 85 q 936 278 888 185 q 985 496 985 371 q 936 715 985 622 q 797 858 888 808 q 586 908 707 908 q 374 858 464 908 q 235 715 283 808 q 186 496 186 622 m 597 201 q 422 256 483 201 q 360 411 360 311 l 481 411 q 506 329 481 357 q 589 301 531 301 q 685 379 685 301 q 581 461 685 461 l 543 461 l 543 550 l 578 550 q 668 619 668 550 q 648 673 668 654 q 589 692 628 692 q 496 606 496 692 l 376 606 q 434 740 376 689 q 596 792 492 792 q 736 749 679 792 q 793 635 793 707 q 710 513 793 553 l 710 511 q 811 374 811 481 q 753 247 811 292 q 597 201 694 201 z "},"④":{"ha":1171,"x_min":65,"x_max":1104,"o":"m 586 -19 q 310 43 428 -19 q 129 222 193 106 q 65 496 65 339 q 129 769 65 653 q 310 949 193 886 q 586 1013 428 1013 q 861 950 744 1013 q 1041 771 978 888 q 1104 496 1104 654 q 1041 222 1104 339 q 861 43 978 106 q 586 -19 744 -19 m 186 496 q 235 278 186 371 q 374 135 283 185 q 586 85 464 85 q 797 135 707 85 q 936 278 888 185 q 985 496 985 371 q 936 715 985 622 q 797 858 888 808 q 586 908 707 908 q 374 858 464 908 q 235 715 283 808 q 186 496 186 622 m 603 336 l 343 336 l 343 454 l 603 778 l 726 778 l 726 436 l 807 436 l 807 336 l 726 336 l 726 214 l 603 214 l 603 336 m 603 436 l 603 639 l 440 436 l 603 436 z "},"⑤":{"ha":1171,"x_min":65,"x_max":1104,"o":"m 586 -19 q 310 43 428 -19 q 129 222 193 106 q 65 496 65 339 q 129 769 65 653 q 310 949 193 886 q 586 1013 428 1013 q 861 950 744 1013 q 1041 771 978 888 q 1104 496 1104 654 q 1041 222 1104 339 q 861 43 978 106 q 586 -19 744 -19 m 186 496 q 235 278 186 371 q 374 135 283 185 q 586 85 464 85 q 797 135 707 85 q 936 278 888 185 q 985 496 985 371 q 936 715 985 622 q 797 858 888 808 q 586 908 707 908 q 374 858 464 908 q 235 715 283 808 q 186 496 186 622 m 594 201 q 426 252 488 201 q 361 386 364 303 l 486 386 q 516 325 490 349 q 588 301 542 301 q 658 329 632 301 q 683 407 683 357 q 659 482 683 456 q 588 508 635 508 q 492 465 529 508 l 375 465 l 438 778 l 783 778 l 783 678 l 525 678 l 500 556 l 500 554 q 624 597 550 597 q 758 545 707 597 q 810 406 810 493 q 749 256 810 310 q 594 201 689 201 z "},"⑥":{"ha":1171,"x_min":65,"x_max":1104,"o":"m 586 -19 q 310 43 428 -19 q 129 222 193 106 q 65 496 65 339 q 129 769 65 653 q 310 949 193 886 q 586 1013 428 1013 q 861 950 744 1013 q 1041 771 978 888 q 1104 496 1104 654 q 1041 222 1104 339 q 861 43 978 106 q 586 -19 744 -19 m 186 496 q 235 278 186 371 q 374 135 283 185 q 586 85 464 85 q 797 135 707 85 q 936 278 888 185 q 985 496 985 371 q 936 715 985 622 q 797 858 888 808 q 586 908 707 908 q 374 858 464 908 q 235 715 283 808 q 186 496 186 622 m 596 201 q 415 281 471 201 q 360 492 360 361 q 423 713 360 635 q 594 792 486 792 q 729 748 675 792 q 796 636 783 704 l 672 636 q 647 681 667 665 q 592 697 626 697 q 479 544 481 697 l 479 536 l 482 535 q 540 578 504 563 q 621 594 575 594 q 760 540 707 594 q 814 403 814 486 q 754 258 814 314 q 596 201 694 201 m 490 397 q 517 325 490 353 q 590 297 543 297 q 665 325 639 297 q 692 397 692 353 q 666 472 692 443 q 594 500 640 500 q 518 471 546 500 q 490 397 490 442 z "},"⑦":{"ha":1171,"x_min":65,"x_max":1104,"o":"m 586 -19 q 310 43 428 -19 q 129 222 193 106 q 65 496 65 339 q 129 769 65 653 q 310 949 193 886 q 586 1013 428 1013 q 861 950 744 1013 q 1041 771 978 888 q 1104 496 1104 654 q 1041 222 1104 339 q 861 43 978 106 q 586 -19 744 -19 m 186 496 q 235 278 186 371 q 374 135 283 185 q 586 85 464 85 q 797 135 707 85 q 936 278 888 185 q 985 496 985 371 q 936 715 985 622 q 797 858 888 808 q 586 908 707 908 q 374 858 464 908 q 235 715 283 808 q 186 496 186 622 m 468 199 q 494 378 468 288 q 565 543 521 468 q 658 661 610 618 l 658 663 l 381 663 l 381 763 l 790 763 l 790 671 q 648 467 699 596 q 597 199 597 338 l 468 199 z "},"⑧":{"ha":1171,"x_min":65,"x_max":1104,"o":"m 586 -19 q 310 43 428 -19 q 129 222 193 106 q 65 496 65 339 q 129 769 65 653 q 310 949 193 886 q 586 1013 428 1013 q 861 950 744 1013 q 1041 771 978 888 q 1104 496 1104 654 q 1041 222 1104 339 q 861 43 978 106 q 586 -19 744 -19 m 186 496 q 235 278 186 371 q 374 135 283 185 q 586 85 464 85 q 797 135 707 85 q 936 278 888 185 q 985 496 985 371 q 936 715 985 622 q 797 858 888 808 q 586 908 707 908 q 374 858 464 908 q 235 715 283 808 q 186 496 186 622 m 585 201 q 421 247 485 201 q 357 374 357 292 q 464 515 357 471 l 464 517 q 383 638 383 561 q 440 750 383 708 q 585 792 497 792 q 731 750 674 792 q 788 638 788 708 q 708 517 788 561 l 708 515 q 814 374 814 468 q 750 247 814 292 q 585 201 686 201 m 481 385 q 508 321 481 346 q 585 296 536 296 q 662 320 635 296 q 689 385 689 344 q 662 448 689 424 q 585 472 635 472 q 508 448 536 472 q 481 385 481 424 m 496 629 q 519 574 496 594 q 585 554 542 554 q 651 574 629 554 q 674 629 674 594 q 651 683 674 663 q 585 703 628 703 q 519 683 543 703 q 496 629 496 663 z "},"⑨":{"ha":1171,"x_min":65,"x_max":1104,"o":"m 586 -19 q 310 43 428 -19 q 129 222 193 106 q 65 496 65 339 q 129 769 65 653 q 310 949 193 886 q 586 1013 428 1013 q 861 950 744 1013 q 1041 771 978 888 q 1104 496 1104 654 q 1041 222 1104 339 q 861 43 978 106 q 586 -19 744 -19 m 186 496 q 235 278 186 371 q 374 135 283 185 q 586 85 464 85 q 797 135 707 85 q 936 278 888 185 q 985 496 985 371 q 936 715 985 622 q 797 858 888 808 q 586 908 707 908 q 374 858 464 908 q 235 715 283 808 q 186 496 186 622 m 578 201 q 442 245 497 201 q 375 357 386 289 l 500 357 q 581 296 514 296 q 664 337 638 296 q 690 444 690 378 l 690 454 l 689 454 q 631 413 667 429 q 551 397 596 397 q 413 451 467 397 q 360 589 360 506 q 419 735 360 679 q 576 792 478 792 q 757 710 701 792 q 813 499 813 629 q 749 279 813 357 q 578 201 686 201 m 479 594 q 506 521 479 549 q 578 493 532 493 q 656 522 628 493 q 685 596 685 551 q 657 668 685 640 q 581 696 629 696 q 506 668 532 696 q 479 594 479 640 z "},"⓪":{"ha":1171,"x_min":65,"x_max":1104,"o":"m 586 -19 q 310 43 428 -19 q 129 222 193 106 q 65 496 65 339 q 129 769 65 653 q 310 949 193 886 q 586 1013 428 1013 q 861 950 744 1013 q 1041 771 978 888 q 1104 496 1104 654 q 1041 222 1104 339 q 861 43 978 106 q 586 -19 744 -19 m 186 496 q 235 278 186 371 q 374 135 283 185 q 586 85 464 85 q 797 135 707 85 q 936 278 888 185 q 985 496 985 371 q 936 715 985 622 q 797 858 888 808 q 586 908 707 908 q 374 858 464 908 q 235 715 283 808 q 186 496 186 622 m 586 203 q 406 285 467 203 q 344 496 344 368 q 406 707 344 624 q 586 790 468 790 q 765 706 704 790 q 826 496 826 622 q 765 286 826 369 q 586 203 704 203 m 469 496 q 496 353 469 404 q 586 301 522 301 q 675 353 649 301 q 701 496 701 404 q 675 640 701 588 q 586 692 649 692 q 496 640 522 692 q 469 496 469 588 z "},"▀":{"ha":1158,"x_min":82,"x_max":1075,"o":"m 82 993 l 1075 993 l 1075 496 l 82 496 l 82 993 z "},"▄":{"ha":1161,"x_min":83,"x_max":1076,"o":"m 83 497 l 1076 497 l 1076 0 l 83 0 l 83 497 z "},"█":{"ha":1190,"x_min":99,"x_max":1092,"o":"m 99 993 l 1092 993 l 1092 0 l 99 0 l 99 993 z "},"■":{"ha":1190,"x_min":99,"x_max":1092,"o":"m 99 993 l 1092 993 l 1092 0 l 99 0 l 99 993 z "},"□":{"ha":1190,"x_min":99,"x_max":1092,"o":"m 99 993 l 1092 993 l 1092 0 l 99 0 l 99 993 m 968 124 l 968 869 l 222 869 l 222 124 l 968 124 z "},"▪":{"ha":478,"x_min":76,"x_max":401,"o":"m 76 607 l 401 607 l 401 282 l 76 282 l 76 607 z "},"▫":{"ha":533,"x_min":76,"x_max":457,"o":"m 76 635 l 457 635 l 457 254 l 76 254 l 76 635 m 333 378 l 333 511 l 200 511 l 200 378 l 333 378 z "},"▲":{"ha":1147,"x_min":18,"x_max":1129,"o":"m 574 993 l 1129 0 l 18 0 l 574 993 z "},"►":{"ha":1154,"x_min":115,"x_max":1108,"o":"m 115 1051 l 1108 496 l 115 -60 l 115 1051 z "},"▼":{"ha":1149,"x_min":19,"x_max":1131,"o":"m 19 993 l 1131 993 l 575 0 l 19 993 z "},"◄":{"ha":1154,"x_min":47,"x_max":1040,"o":"m 47 496 l 1040 1051 l 1040 -60 l 47 496 z "},"◊":{"ha":815,"x_min":53,"x_max":761,"o":"m 53 497 l 333 993 l 481 993 l 761 496 l 482 0 l 333 0 l 53 497 m 407 129 l 410 129 l 611 493 l 407 864 l 404 864 l 204 499 l 407 129 z "},"○":{"ha":1171,"x_min":65,"x_max":1104,"o":"m 586 -19 q 310 43 428 -19 q 129 222 193 106 q 65 496 65 339 q 129 769 65 653 q 310 949 193 886 q 586 1013 428 1013 q 861 950 744 1013 q 1041 771 978 888 q 1104 496 1104 654 q 1041 222 1104 339 q 861 43 978 106 q 586 -19 744 -19 m 186 496 q 235 278 186 371 q 374 135 283 185 q 586 85 464 85 q 797 135 707 85 q 936 278 888 185 q 985 496 985 371 q 936 715 985 622 q 797 858 888 808 q 586 908 707 908 q 374 858 464 908 q 235 715 283 808 q 186 496 186 622 z "},"●":{"ha":1163,"x_min":64,"x_max":1097,"o":"m 582 -19 q 322 50 442 -19 q 133 238 203 119 q 64 496 64 356 q 133 755 64 636 q 322 943 203 874 q 582 1013 442 1013 q 840 943 722 1013 q 1028 755 958 874 q 1097 496 1097 636 q 1028 238 1097 356 q 840 50 958 119 q 582 -19 722 -19 z "},"⬎":{"ha":913,"x_min":32,"x_max":863,"o":"m 88 354 l 165 438 l 414 203 l 414 601 l 32 601 l 32 711 l 538 711 l 538 203 l 786 438 l 863 354 l 475 -4 l 88 354 z "},"⬏":{"ha":915,"x_min":33,"x_max":864,"o":"m 33 110 l 414 110 l 414 508 l 167 274 l 89 357 l 476 715 l 864 357 l 786 274 l 539 508 l 539 0 l 33 0 l 33 110 z "},"⬐":{"ha":914,"x_min":49,"x_max":879,"o":"m 49 349 l 126 432 l 375 197 l 375 706 l 879 706 l 879 596 l 499 596 l 499 197 l 747 432 l 824 349 l 436 -10 l 49 349 z "},"⬑":{"ha":914,"x_min":50,"x_max":881,"o":"m 375 506 l 128 272 l 50 354 l 438 713 l 825 354 l 747 272 l 500 506 l 500 108 l 881 108 l 881 -3 l 375 -3 l 375 506 z "},"⮠":{"ha":838,"x_min":49,"x_max":764,"o":"m 49 351 l 408 739 l 490 661 l 257 413 l 654 413 l 654 794 l 764 794 l 764 289 l 257 289 l 490 40 l 408 -36 l 49 351 z "},"⮡":{"ha":839,"x_min":72,"x_max":788,"o":"m 346 44 l 581 293 l 72 293 l 72 797 l 182 797 l 182 417 l 581 417 l 346 664 l 428 742 l 788 354 l 428 -33 l 346 44 z "},"⮢":{"ha":838,"x_min":51,"x_max":767,"o":"m 51 369 l 410 757 l 492 681 l 258 432 l 767 432 l 767 -74 l 657 -74 l 657 308 l 258 308 l 492 60 l 410 -18 l 51 369 z "},"⮣":{"ha":838,"x_min":71,"x_max":786,"o":"m 344 60 l 579 308 l 181 308 l 181 -74 l 71 -74 l 71 432 l 579 432 l 344 681 l 428 757 l 786 369 l 428 -18 l 344 60 z "},"⮤":{"ha":914,"x_min":49,"x_max":881,"o":"m 375 506 l 126 271 l 49 354 l 438 713 l 825 354 l 747 271 l 499 506 l 499 107 l 881 107 l 881 -3 l 375 -3 l 375 506 z "},"⮥":{"ha":915,"x_min":33,"x_max":864,"o":"m 33 110 l 414 110 l 414 508 l 167 274 l 89 357 l 476 715 l 864 357 l 786 274 l 539 508 l 539 0 l 33 0 l 33 110 z "},"⮦":{"ha":914,"x_min":49,"x_max":879,"o":"m 49 349 l 126 432 l 375 197 l 375 706 l 879 706 l 879 596 l 499 596 l 499 197 l 747 432 l 824 349 l 436 -10 l 49 349 z "},"⮧":{"ha":913,"x_min":32,"x_max":863,"o":"m 88 354 l 165 438 l 414 203 l 414 601 l 32 601 l 32 711 l 538 711 l 538 203 l 786 438 l 863 354 l 475 -4 l 88 354 z "},"ﬁ":{"ha":694,"x_min":29,"x_max":626,"o":"m 126 794 q 172 957 126 911 q 310 1003 217 1003 q 396 994 338 1003 l 396 885 q 338 889 354 889 q 279 871 294 889 q 264 797 264 853 l 264 708 l 396 708 l 396 596 l 264 596 l 264 0 l 126 0 l 126 596 l 29 596 l 29 708 l 126 708 l 126 794 m 482 708 l 618 708 l 618 0 l 482 0 l 482 708 m 472 982 l 626 982 l 626 835 l 472 835 l 472 982 z "},"ﬂ":{"ha":694,"x_min":29,"x_max":618,"o":"m 126 794 q 172 957 126 911 q 310 1003 217 1003 q 396 994 338 1003 l 396 885 q 338 889 354 889 q 279 871 294 889 q 264 797 264 853 l 264 708 l 396 708 l 396 596 l 264 596 l 264 0 l 126 0 l 126 596 l 29 596 l 29 708 l 126 708 l 126 794 m 482 993 l 618 993 l 618 0 l 482 0 l 482 993 z "},"﻿":{"ha":0,"x_min":0,"x_max":0,"o":""},"А":{"ha":917,"x_min":6,"x_max":913,"o":"m 375 993 l 540 993 l 913 0 l 746 0 l 664 239 l 249 239 l 167 0 l 6 0 l 375 993 m 621 368 l 458 851 l 456 851 l 294 368 l 621 368 z "},"Б":{"ha":878,"x_min":99,"x_max":844,"o":"m 99 993 l 763 993 l 763 861 l 251 861 l 251 625 l 514 625 q 757 545 669 625 q 844 318 844 465 q 752 85 844 171 q 500 0 660 0 l 99 0 l 99 993 m 504 132 q 636 182 588 132 q 685 318 685 232 q 640 445 685 397 q 517 493 594 493 l 251 493 l 251 132 l 504 132 z "},"В":{"ha":926,"x_min":99,"x_max":879,"o":"m 99 993 l 517 993 q 755 927 669 993 q 840 743 840 861 q 686 536 840 589 l 686 533 q 825 457 771 518 q 879 290 879 396 q 789 75 879 150 q 542 0 699 0 l 99 0 l 99 993 m 531 132 q 676 176 633 132 q 719 296 719 219 q 675 417 719 374 q 551 460 631 460 l 251 460 l 251 132 l 531 132 m 513 581 q 642 616 603 581 q 681 721 681 651 q 640 824 681 788 q 524 861 600 861 l 251 861 l 251 581 l 513 581 z "},"Г":{"ha":692,"x_min":99,"x_max":671,"o":"m 99 993 l 671 993 l 671 861 l 251 861 l 251 0 l 99 0 l 99 993 z "},"Ѓ":{"ha":692,"x_min":99,"x_max":671,"o":"m 99 993 l 671 993 l 671 861 l 251 861 l 251 0 l 99 0 l 99 993 m 410 1292 l 569 1292 l 436 1100 l 328 1100 l 410 1292 z "},"Ґ":{"ha":696,"x_min":99,"x_max":675,"o":"m 99 993 l 533 993 l 533 1131 l 675 1131 l 675 861 l 251 861 l 251 0 l 99 0 l 99 993 z "},"Ғ":{"ha":772,"x_min":11,"x_max":749,"o":"m 11 540 l 176 540 l 176 993 l 749 993 l 749 861 l 329 861 l 329 540 l 613 540 l 613 426 l 329 426 l 329 0 l 176 0 l 176 426 l 11 426 l 11 540 z "},"Д":{"ha":968,"x_min":6,"x_max":932,"o":"m 6 131 l 78 131 q 139 156 117 131 q 172 233 161 181 q 188 381 183 286 l 215 993 l 817 993 l 817 131 l 932 131 l 932 -181 l 790 -181 l 790 -1 l 149 -1 l 149 -181 l 6 -181 l 6 131 m 664 131 l 664 861 l 363 861 l 335 324 q 317 209 332 254 q 278 133 303 164 l 278 131 l 664 131 z "},"Е":{"ha":860,"x_min":99,"x_max":815,"o":"m 99 993 l 801 993 l 801 861 l 251 861 l 251 579 l 733 579 l 733 447 l 251 447 l 251 132 l 815 132 l 815 0 l 99 0 l 99 993 z "},"Ѐ":{"ha":860,"x_min":99,"x_max":815,"o":"m 99 993 l 801 993 l 801 861 l 251 861 l 251 579 l 733 579 l 733 447 l 251 447 l 251 132 l 815 132 l 815 0 l 99 0 l 99 993 m 278 1292 l 431 1292 l 501 1100 l 394 1100 l 278 1292 z "},"Ё":{"ha":860,"x_min":99,"x_max":815,"o":"m 99 993 l 801 993 l 801 861 l 251 861 l 251 579 l 733 579 l 733 447 l 251 447 l 251 132 l 815 132 l 815 0 l 99 0 l 99 993 m 492 1267 l 646 1267 l 646 1119 l 492 1119 l 492 1267 m 258 1267 l 413 1267 l 413 1119 l 258 1119 l 258 1267 z "},"Ж":{"ha":1311,"x_min":-10,"x_max":1321,"o":"m 356 494 l 17 993 l 178 993 l 478 550 l 579 550 l 579 993 l 733 993 l 733 550 l 838 550 l 1138 993 l 1294 993 l 956 494 l 1321 0 l 1142 0 l 836 417 l 733 417 l 733 0 l 579 0 l 579 417 l 476 417 l 171 0 l -10 0 l 356 494 z "},"З":{"ha":829,"x_min":36,"x_max":779,"o":"m 419 -21 q 134 55 232 -21 q 36 276 36 131 l 196 276 q 414 113 200 113 q 563 159 506 113 q 619 283 619 206 q 570 397 619 356 q 435 438 521 438 l 317 438 l 317 561 l 429 561 q 548 605 507 561 q 589 722 589 649 q 536 833 589 790 q 401 876 483 876 q 258 833 310 876 q 207 721 207 790 l 47 721 q 144 930 50 851 q 401 1008 238 1008 q 583 975 504 1008 q 705 879 661 942 q 749 732 749 817 q 707 594 749 654 q 590 503 665 533 l 590 500 q 728 419 676 476 q 779 278 779 361 q 733 124 779 192 q 606 17 688 56 q 419 -21 524 -21 z "},"И":{"ha":1022,"x_min":99,"x_max":924,"o":"m 99 993 l 251 993 l 251 233 l 254 233 l 769 993 l 924 993 l 924 0 l 769 0 l 769 758 l 767 758 l 251 0 l 99 0 l 99 993 z "},"Й":{"ha":1022,"x_min":99,"x_max":924,"o":"m 99 993 l 251 993 l 251 233 l 254 233 l 769 993 l 924 993 l 924 0 l 769 0 l 769 758 l 767 758 l 251 0 l 99 0 l 99 993 z "},"Ѝ":{"ha":1022,"x_min":99,"x_max":924,"o":"m 99 993 l 251 993 l 251 233 l 254 233 l 769 993 l 924 993 l 924 0 l 769 0 l 769 758 l 767 758 l 251 0 l 99 0 l 99 993 m 335 1292 l 488 1292 l 558 1100 l 451 1100 l 335 1292 z "},"К":{"ha":899,"x_min":99,"x_max":921,"o":"m 365 417 l 251 417 l 251 0 l 99 0 l 99 993 l 251 993 l 251 550 l 368 550 l 725 993 l 892 993 l 489 494 l 921 0 l 728 0 l 365 417 z "},"Ќ":{"ha":899,"x_min":99,"x_max":921,"o":"m 365 417 l 251 417 l 251 0 l 99 0 l 99 993 l 251 993 l 251 550 l 368 550 l 725 993 l 892 993 l 489 494 l 921 0 l 728 0 l 365 417 m 479 1292 l 639 1292 l 506 1100 l 397 1100 l 479 1292 z "},"Л":{"ha":929,"x_min":3,"x_max":831,"o":"m 104 -21 q 47 -17 76 -21 q 3 -4 18 -12 l 3 128 q 81 114 42 114 q 163 147 136 114 q 193 263 190 179 l 224 993 l 831 993 l 831 0 l 678 0 l 678 861 l 369 861 l 340 265 q 274 44 333 108 q 104 -21 214 -21 z "},"М":{"ha":1176,"x_min":99,"x_max":1078,"o":"m 99 993 l 300 993 l 586 213 l 589 213 l 876 993 l 1078 993 l 1078 0 l 928 0 l 928 771 l 925 771 l 651 0 l 525 0 l 251 771 l 249 771 l 249 0 l 99 0 l 99 993 z "},"Н":{"ha":990,"x_min":99,"x_max":893,"o":"m 99 993 l 251 993 l 251 578 l 739 578 l 739 993 l 893 993 l 893 0 l 739 0 l 739 446 l 251 446 l 251 0 l 99 0 l 99 993 z "},"О":{"ha":1075,"x_min":50,"x_max":1025,"o":"m 538 -19 q 281 47 392 -19 q 110 231 171 114 q 50 497 50 349 q 110 763 50 646 q 281 947 171 881 q 538 1013 392 1013 q 794 947 683 1013 q 965 763 904 881 q 1025 497 1025 646 q 965 231 1025 349 q 794 47 904 114 q 538 -19 683 -19 m 210 497 q 291 222 210 331 q 538 113 372 113 q 784 222 703 113 q 865 497 865 331 q 784 772 865 664 q 538 881 703 881 q 291 772 372 881 q 210 497 210 664 z "},"П":{"ha":967,"x_min":99,"x_max":868,"o":"m 99 993 l 868 993 l 868 0 l 714 0 l 714 861 l 251 861 l 251 0 l 99 0 l 99 993 z "},"Р":{"ha":867,"x_min":99,"x_max":838,"o":"m 99 993 l 513 993 q 749 920 661 993 q 838 697 838 847 q 749 475 838 547 q 513 403 661 403 l 251 403 l 251 0 l 99 0 l 99 993 m 506 535 q 636 574 593 535 q 679 697 679 614 q 636 821 679 781 q 506 861 593 861 l 251 861 l 251 535 l 506 535 z "},"С":{"ha":981,"x_min":50,"x_max":942,"o":"m 514 -19 q 270 47 375 -19 q 108 230 165 113 q 50 496 50 347 q 108 763 50 644 q 271 947 165 881 q 515 1013 376 1013 q 728 965 636 1013 q 875 838 821 918 q 942 656 929 757 l 782 656 q 703 815 765 749 q 513 881 640 881 q 284 771 358 881 q 210 497 210 661 q 284 222 210 332 q 513 113 358 113 q 709 184 644 113 q 782 361 774 256 l 942 361 q 876 164 931 250 q 729 29 822 78 q 514 -19 636 -19 z "},"Т":{"ha":838,"x_min":21,"x_max":817,"o":"m 342 861 l 21 861 l 21 993 l 817 993 l 817 861 l 496 861 l 496 0 l 342 0 l 342 861 z "},"У":{"ha":843,"x_min":14,"x_max":829,"o":"m 336 290 l 14 993 l 174 993 l 415 454 l 418 454 l 676 993 l 829 993 l 350 0 l 197 0 l 336 290 z "},"Ў":{"ha":843,"x_min":14,"x_max":829,"o":"m 336 290 l 14 993 l 174 993 l 415 454 l 418 454 l 676 993 l 829 993 l 350 0 l 197 0 l 336 290 z "},"Ф":{"ha":1036,"x_min":43,"x_max":992,"o":"m 440 117 q 149 233 256 135 q 43 490 43 332 q 149 746 43 647 q 440 863 256 844 l 440 993 l 590 993 l 590 864 q 885 748 778 847 q 992 490 992 649 q 885 232 992 332 q 590 115 778 132 l 590 0 l 440 0 l 440 117 m 197 490 q 262 320 197 388 q 440 235 326 253 l 440 744 q 262 660 326 726 q 197 490 197 593 m 590 235 q 773 319 707 251 q 839 490 839 386 q 773 662 839 594 q 590 744 707 729 l 590 235 z "},"Х":{"ha":835,"x_min":-6,"x_max":836,"o":"m 331 507 l 18 993 l 188 993 l 418 618 l 419 618 l 651 993 l 819 993 l 507 510 l 836 0 l 658 0 l 415 396 l 414 396 l 174 0 l -6 0 l 331 507 z "},"Ч":{"ha":854,"x_min":61,"x_max":756,"o":"m 603 431 l 600 431 q 491 343 557 378 q 351 308 425 308 q 140 390 219 308 q 61 617 61 472 l 61 993 l 214 993 l 214 626 q 262 490 214 538 q 397 442 310 442 q 508 467 464 442 q 603 550 553 493 l 603 993 l 756 993 l 756 0 l 603 0 l 603 431 z "},"Ц":{"ha":1008,"x_min":99,"x_max":972,"o":"m 829 -1 l 99 -1 l 99 992 l 251 992 l 251 132 l 704 132 l 704 992 l 857 992 l 857 132 l 972 132 l 972 -181 l 829 -181 l 829 -1 z "},"Ш":{"ha":1228,"x_min":99,"x_max":1129,"o":"m 99 992 l 251 992 l 251 132 l 538 132 l 538 992 l 690 992 l 690 132 l 975 132 l 975 992 l 1129 992 l 1129 -1 l 99 -1 l 99 992 z "},"Щ":{"ha":1278,"x_min":99,"x_max":1242,"o":"m 1100 -1 l 99 -1 l 99 992 l 251 992 l 251 132 l 538 132 l 538 992 l 690 992 l 690 132 l 975 132 l 975 992 l 1129 992 l 1129 132 l 1242 132 l 1242 -181 l 1100 -181 l 1100 -1 z "},"Џ":{"ha":956,"x_min":99,"x_max":857,"o":"m 407 -1 l 99 -1 l 99 992 l 251 992 l 251 132 l 704 132 l 704 992 l 857 992 l 857 -1 l 550 -1 l 550 -181 l 407 -181 l 407 -1 z "},"Ь":{"ha":854,"x_min":99,"x_max":826,"o":"m 99 993 l 251 993 l 251 635 l 496 635 q 738 553 650 635 q 826 322 826 471 q 733 87 826 174 q 482 0 640 0 l 99 0 l 99 993 m 485 132 q 618 183 569 132 q 667 322 667 235 q 621 453 667 404 q 497 503 575 503 l 251 503 l 251 132 l 485 132 z "},"Ы":{"ha":1136,"x_min":99,"x_max":1038,"o":"m 99 993 l 251 993 l 251 635 l 446 635 q 688 553 600 635 q 776 322 776 471 q 683 87 776 174 q 432 0 590 0 l 99 0 l 99 993 m 436 132 q 569 183 519 132 q 618 322 618 235 q 572 453 618 404 q 449 503 526 503 l 251 503 l 251 132 l 436 132 m 885 993 l 1038 993 l 1038 0 l 885 0 l 885 993 z "},"Ъ":{"ha":944,"x_min":15,"x_max":915,"o":"m 188 861 l 15 861 l 15 993 l 342 993 l 342 635 l 585 635 q 827 553 739 635 q 915 322 915 471 q 822 87 915 174 q 571 0 729 0 l 188 0 l 188 861 m 575 132 q 707 183 658 132 q 756 322 756 235 q 710 454 756 406 q 588 503 665 503 l 342 503 l 342 132 l 575 132 z "},"Љ":{"ha":1297,"x_min":3,"x_max":1269,"o":"m 104 -21 q 47 -17 76 -21 q 3 -4 18 -12 l 3 128 q 81 114 42 114 q 163 147 136 114 q 193 263 190 179 l 224 993 l 772 993 l 772 635 l 939 635 q 1181 553 1093 635 q 1269 322 1269 471 q 1176 87 1269 174 q 925 0 1083 0 l 618 0 l 618 861 l 369 861 l 340 265 q 274 44 333 108 q 104 -21 214 -21 m 929 132 q 1061 183 1013 132 q 1110 322 1110 235 q 1064 453 1110 404 q 942 503 1018 503 l 772 503 l 772 132 l 929 132 z "},"Њ":{"ha":1340,"x_min":99,"x_max":1311,"o":"m 99 993 l 251 993 l 251 604 l 654 604 l 654 993 l 808 993 l 808 604 l 981 604 q 1223 526 1135 604 q 1311 306 1311 447 q 1219 79 1311 158 q 967 0 1128 0 l 654 0 l 654 472 l 251 472 l 251 0 l 99 0 l 99 993 m 971 132 q 1103 176 1056 132 q 1151 306 1151 219 q 1107 429 1151 386 q 983 472 1063 472 l 808 472 l 808 132 l 971 132 z "},"Ѕ":{"ha":878,"x_min":33,"x_max":836,"o":"m 472 -19 q 249 23 346 -19 q 95 145 151 65 q 33 335 39 225 l 192 335 q 267 170 200 229 q 468 111 335 111 q 676 271 676 111 q 647 364 676 331 q 567 414 617 397 q 399 461 518 431 q 230 517 296 489 q 118 599 164 544 q 72 742 72 654 q 165 941 72 869 q 419 1013 258 1013 q 694 929 590 1013 q 808 697 797 846 l 650 697 q 582 835 638 789 q 421 882 526 882 q 280 849 328 882 q 232 750 232 815 q 261 667 232 697 q 335 620 290 636 q 464 583 379 604 q 664 522 590 551 q 787 435 738 493 q 836 279 836 378 q 744 63 836 144 q 472 -19 651 -19 z "},"Є":{"ha":967,"x_min":53,"x_max":926,"o":"m 514 -19 q 271 42 375 -19 q 110 220 167 103 q 53 501 53 338 q 112 776 53 660 q 277 952 171 892 q 522 1013 383 1013 q 720 973 633 1013 q 860 862 807 933 q 926 697 914 790 l 768 697 q 688 831 751 782 q 522 881 625 881 q 311 797 394 881 q 214 563 228 714 l 576 563 l 576 439 l 214 439 q 306 197 228 282 q 511 113 383 113 q 691 170 619 113 q 768 324 763 228 l 926 324 q 870 146 922 224 q 726 24 818 68 q 514 -19 633 -19 z "},"Э":{"ha":965,"x_min":39,"x_max":914,"o":"m 456 -19 q 242 24 335 -19 q 96 146 149 68 q 39 324 43 224 l 197 324 q 276 170 204 228 q 456 113 347 113 q 660 198 582 113 q 751 439 738 283 l 390 439 l 390 563 l 751 563 q 656 797 738 714 q 447 881 574 881 q 278 831 343 881 q 197 697 214 782 l 39 697 q 106 862 51 790 q 248 973 160 933 q 449 1013 336 1013 q 693 952 588 1013 q 856 776 799 892 q 914 501 914 661 q 858 220 914 338 q 698 42 801 103 q 456 -19 594 -19 z "},"І":{"ha":350,"x_min":99,"x_max":251,"o":"m 99 993 l 251 993 l 251 0 l 99 0 l 99 993 z "},"Ї":{"ha":350,"x_min":-19,"x_max":368,"o":"m 99 993 l 251 993 l 251 0 l 99 0 l 99 993 m 214 1267 l 368 1267 l 368 1119 l 214 1119 l 214 1267 m -19 1267 l 135 1267 l 135 1119 l -19 1119 l -19 1267 z "},"Ј":{"ha":719,"x_min":25,"x_max":626,"o":"m 325 -19 q 94 73 163 -19 q 25 310 25 165 l 25 350 l 172 350 l 172 310 q 202 162 172 211 q 322 113 232 113 q 442 163 411 113 q 474 310 474 213 l 474 993 l 626 993 l 626 310 q 557 73 626 165 q 325 -19 488 -19 z "},"Ћ":{"ha":1017,"x_min":22,"x_max":957,"o":"m 258 861 l 22 861 l 22 993 l 717 993 l 717 861 l 413 861 l 413 532 l 415 532 q 524 619 458 586 q 676 653 590 653 q 883 577 808 653 q 957 363 957 501 l 957 0 l 803 0 l 803 335 q 631 519 803 519 q 471 463 529 519 q 413 300 413 406 l 413 0 l 258 0 l 258 861 z "},"Ю":{"ha":1331,"x_min":99,"x_max":1276,"o":"m 844 -19 q 544 101 657 -19 q 415 436 431 221 l 251 436 l 251 0 l 99 0 l 99 993 l 251 993 l 251 568 l 417 568 q 547 894 433 776 q 844 1013 660 1013 q 1075 951 978 1013 q 1224 773 1172 889 q 1276 497 1276 657 q 1224 221 1276 338 q 1075 42 1172 104 q 844 -19 978 -19 m 572 497 q 606 292 572 379 q 700 159 639 206 q 844 113 761 113 q 1044 215 971 113 q 1118 497 1118 318 q 1044 778 1118 676 q 844 881 971 881 q 646 778 719 881 q 572 497 572 675 z "},"Я":{"ha":907,"x_min":39,"x_max":808,"o":"m 39 8 q 56 44 50 18 q 69 128 61 69 q 96 283 81 219 q 150 401 111 347 q 260 468 189 454 l 260 471 q 122 553 172 492 q 72 707 72 614 q 164 917 72 842 q 418 993 256 993 l 808 993 l 808 0 l 654 0 l 654 400 l 419 400 q 296 354 338 400 q 241 247 254 308 q 222 99 228 186 q 216 34 219 57 q 206 0 213 11 l 39 0 l 39 8 m 228 701 q 281 573 228 617 q 438 529 335 529 l 654 529 l 654 861 l 429 861 q 276 821 325 861 q 228 701 228 781 z "},"Ђ":{"ha":1018,"x_min":22,"x_max":957,"o":"m 765 -254 q 658 -242 699 -254 l 658 -110 q 738 -122 696 -122 q 803 -47 803 -122 l 803 357 q 631 542 803 542 q 471 484 529 542 q 413 321 413 426 l 413 0 l 258 0 l 258 861 l 22 861 l 22 993 l 717 993 l 717 861 l 413 861 l 413 553 l 415 553 q 524 641 458 607 q 676 675 590 675 q 883 599 808 675 q 957 383 957 524 l 957 -62 q 905 -206 957 -158 q 765 -254 853 -254 z "},"Җ":{"ha":1311,"x_min":-10,"x_max":1340,"o":"m 356 494 l 17 993 l 178 993 l 478 550 l 579 550 l 579 993 l 733 993 l 733 550 l 838 550 l 1138 993 l 1294 993 l 956 494 l 1265 75 l 1340 75 l 1340 -181 l 1199 -181 l 1199 0 l 1142 0 l 836 417 l 733 417 l 733 0 l 579 0 l 579 417 l 476 417 l 171 0 l -10 0 l 356 494 z "},"Қ":{"ha":899,"x_min":99,"x_max":942,"o":"m 365 417 l 251 417 l 251 0 l 99 0 l 99 993 l 251 993 l 251 550 l 368 550 l 725 993 l 892 993 l 489 494 l 856 75 l 942 75 l 942 -181 l 800 -181 l 800 0 l 728 0 l 365 417 z "},"Ң":{"ha":990,"x_min":99,"x_max":951,"o":"m 99 993 l 251 993 l 251 578 l 739 578 l 739 993 l 893 993 l 893 75 l 951 75 l 951 -181 l 810 -181 l 810 0 l 739 0 l 739 446 l 251 446 l 251 0 l 99 0 l 99 993 z "},"Ү":{"ha":885,"x_min":10,"x_max":875,"o":"m 365 397 l 10 993 l 175 993 l 442 518 l 444 518 l 711 993 l 875 993 l 519 397 l 519 0 l 365 0 l 365 397 z "},"Ұ":{"ha":875,"x_min":6,"x_max":871,"o":"m 139 354 l 361 354 l 361 397 l 6 993 l 171 993 l 438 518 l 440 518 l 707 993 l 871 993 l 515 397 l 515 354 l 726 354 l 726 242 l 515 242 l 515 0 l 361 0 l 361 242 l 139 242 l 139 354 z "},"Ҳ":{"ha":835,"x_min":-6,"x_max":863,"o":"m 331 507 l 18 993 l 188 993 l 418 618 l 419 618 l 651 993 l 819 993 l 507 510 l 788 75 l 863 75 l 863 -181 l 721 -181 l 721 0 l 658 0 l 415 396 l 414 396 l 174 0 l -6 0 l 331 507 z "},"Ҷ":{"ha":854,"x_min":61,"x_max":828,"o":"m 603 431 l 600 431 q 491 343 557 378 q 351 308 425 308 q 140 390 219 308 q 61 617 61 472 l 61 993 l 214 993 l 214 626 q 262 490 214 538 q 397 442 310 442 q 508 467 464 442 q 603 550 553 493 l 603 993 l 756 993 l 756 75 l 828 75 l 828 -181 l 686 -181 l 686 0 l 603 0 l 603 431 z "},"Һ":{"ha":869,"x_min":99,"x_max":807,"o":"m 99 993 l 251 993 l 251 574 l 254 574 q 362 662 294 629 q 517 694 429 694 q 731 619 656 694 q 807 404 807 544 l 807 0 l 654 0 l 654 376 q 471 561 654 561 q 310 504 369 561 q 251 342 251 447 l 251 0 l 99 0 l 99 993 z "},"Ә":{"ha":1017,"x_min":50,"x_max":967,"o":"m 504 -21 q 269 42 374 -21 q 108 214 165 106 q 50 453 50 322 q 53 538 50 513 l 807 538 q 758 721 800 643 q 650 840 717 799 q 500 881 583 881 q 318 828 392 881 q 229 696 244 776 l 71 696 q 151 863 88 790 q 310 974 214 935 q 517 1013 406 1013 q 749 945 646 1013 q 909 761 851 878 q 967 499 967 644 q 908 231 967 349 q 743 46 849 113 q 504 -21 638 -21 m 210 406 q 247 256 210 324 q 351 150 283 189 q 508 111 419 111 q 704 190 626 111 q 801 406 782 269 l 210 406 z "},"Ӣ":{"ha":1022,"x_min":99,"x_max":924,"o":"m 99 993 l 251 993 l 251 233 l 254 233 l 769 993 l 924 993 l 924 0 l 769 0 l 769 758 l 767 758 l 251 0 l 99 0 l 99 993 m 326 1226 l 693 1226 l 693 1119 l 326 1119 l 326 1226 z "},"Ө":{"ha":1075,"x_min":50,"x_max":1025,"o":"m 538 -19 q 281 47 392 -19 q 110 231 171 114 q 50 497 50 349 q 110 763 50 646 q 281 947 171 881 q 538 1013 392 1013 q 794 947 683 1013 q 965 763 904 881 q 1025 497 1025 646 q 965 231 1025 349 q 794 47 904 114 q 538 -19 683 -19 m 213 435 q 308 202 228 292 q 538 113 389 113 q 767 202 686 113 q 863 435 847 292 l 213 435 m 863 560 q 767 792 847 703 q 538 881 686 881 q 308 792 389 881 q 213 560 228 703 l 863 560 z "},"Ӯ":{"ha":843,"x_min":14,"x_max":829,"o":"m 336 290 l 14 993 l 174 993 l 415 454 l 418 454 l 676 993 l 829 993 l 350 0 l 197 0 l 336 290 m 246 1226 l 613 1226 l 613 1119 l 246 1119 l 246 1226 z "},"а":{"ha":738,"x_min":40,"x_max":699,"o":"m 272 -19 q 103 36 167 -19 q 40 183 40 92 q 76 306 40 260 q 174 378 111 353 q 336 422 238 404 q 439 445 404 435 q 494 474 474 456 q 515 526 515 493 q 381 621 515 621 q 254 590 290 621 q 213 488 218 560 l 74 488 q 156 664 79 597 q 386 731 232 731 q 577 673 506 731 q 649 486 649 615 l 649 161 q 656 102 649 121 q 682 83 663 83 l 699 85 l 699 1 q 629 -7 664 -7 q 549 17 576 -7 q 517 100 522 42 l 514 100 q 418 12 479 43 q 272 -19 357 -19 m 182 193 q 303 90 182 90 q 457 138 399 90 q 515 276 515 186 l 515 378 q 462 352 500 364 q 360 326 424 340 q 223 277 264 307 q 182 193 182 247 z "},"б":{"ha":778,"x_min":53,"x_max":738,"o":"m 403 -21 q 146 90 239 -21 q 53 417 53 201 q 120 755 53 622 q 342 914 188 888 l 481 938 q 588 994 588 958 l 721 994 q 676 884 721 922 q 556 831 632 846 l 361 794 q 233 721 281 781 q 172 567 185 661 l 175 567 q 278 683 204 636 q 444 731 351 731 q 659 631 581 731 q 738 361 738 531 q 699 166 738 253 q 584 29 660 79 q 403 -21 508 -21 m 206 354 q 257 165 206 239 q 403 92 308 92 q 546 169 496 92 q 596 361 596 246 q 546 546 596 475 q 403 617 496 617 q 257 543 308 617 q 206 354 206 469 z "},"в":{"ha":700,"x_min":76,"x_max":663,"o":"m 76 708 l 400 708 q 568 658 507 708 q 629 525 629 608 q 592 426 629 468 q 499 372 556 385 l 499 369 q 617 316 571 360 q 663 204 663 272 q 597 53 663 107 q 417 0 532 0 l 76 0 l 76 708 m 404 113 q 492 138 463 113 q 521 210 521 163 q 492 283 521 257 q 417 310 464 310 l 213 310 l 213 113 l 404 113 m 394 411 q 464 439 438 411 q 490 508 490 467 q 465 573 490 550 q 394 596 440 596 l 213 596 l 213 411 l 394 411 z "},"г":{"ha":571,"x_min":76,"x_max":556,"o":"m 76 708 l 556 708 l 556 596 l 213 596 l 213 0 l 76 0 l 76 708 z "},"ѓ":{"ha":571,"x_min":76,"x_max":556,"o":"m 76 708 l 556 708 l 556 596 l 213 596 l 213 0 l 76 0 l 76 708 m 340 1007 l 500 1007 l 367 815 l 258 815 l 340 1007 z "},"ґ":{"ha":586,"x_min":76,"x_max":569,"o":"m 76 708 l 447 708 l 447 861 l 569 861 l 569 596 l 213 596 l 213 0 l 76 0 l 76 708 z "},"ғ":{"ha":622,"x_min":10,"x_max":606,"o":"m 10 401 l 126 401 l 126 708 l 606 708 l 606 596 l 263 596 l 263 401 l 494 401 l 494 306 l 263 306 l 263 0 l 126 0 l 126 306 l 10 306 l 10 401 z "},"д":{"ha":796,"x_min":10,"x_max":767,"o":"m 10 113 l 65 113 q 122 144 100 113 q 146 229 143 176 l 175 708 l 669 708 l 669 113 l 767 113 l 767 -181 l 643 -181 l 643 0 l 133 0 l 133 -181 l 10 -181 l 10 113 m 532 113 l 532 596 l 303 596 l 281 235 q 246 115 276 151 l 246 113 l 532 113 z "},"е":{"ha":765,"x_min":40,"x_max":726,"o":"m 390 -21 q 201 28 281 -21 q 81 161 122 76 q 40 356 40 246 q 83 551 40 467 q 204 683 125 636 q 390 731 283 731 q 638 633 550 731 q 726 369 726 536 q 725 318 726 329 l 181 318 q 238 156 183 222 q 393 90 293 90 q 522 131 476 90 q 579 218 567 171 l 718 218 q 606 44 688 110 q 390 -21 524 -21 m 585 425 q 530 565 585 510 q 386 619 475 619 q 243 566 300 619 q 181 425 186 513 l 585 425 z "},"ѐ":{"ha":765,"x_min":40,"x_max":726,"o":"m 390 -21 q 201 28 281 -21 q 81 161 122 76 q 40 356 40 246 q 83 551 40 467 q 204 683 125 636 q 390 731 283 731 q 638 633 550 731 q 726 369 726 536 q 725 318 726 329 l 181 318 q 238 156 183 222 q 393 90 293 90 q 522 131 476 90 q 579 218 567 171 l 718 218 q 606 44 688 110 q 390 -21 524 -21 m 585 425 q 530 565 585 510 q 386 619 475 619 q 243 566 300 619 q 181 425 186 513 l 585 425 m 208 1010 l 361 1010 l 432 818 l 325 818 l 208 1010 z "},"ё":{"ha":765,"x_min":40,"x_max":726,"o":"m 390 -21 q 201 28 281 -21 q 81 161 122 76 q 40 356 40 246 q 83 551 40 467 q 204 683 125 636 q 390 731 283 731 q 638 633 550 731 q 726 369 726 536 q 725 318 726 329 l 181 318 q 238 156 183 222 q 393 90 293 90 q 522 131 476 90 q 579 218 567 171 l 718 218 q 606 44 688 110 q 390 -21 524 -21 m 585 425 q 530 565 585 510 q 386 619 475 619 q 243 566 300 619 q 181 425 186 513 l 585 425 m 422 985 l 576 985 l 576 838 l 422 838 l 422 985 m 189 985 l 343 985 l 343 838 l 189 838 l 189 985 z "},"ж":{"ha":974,"x_min":0,"x_max":974,"o":"m 242 354 l 3 708 l 153 708 l 356 406 l 418 406 l 418 708 l 554 708 l 554 406 l 618 406 l 821 708 l 971 708 l 732 354 l 974 0 l 810 0 l 614 292 l 554 292 l 554 0 l 418 0 l 418 292 l 357 292 l 161 0 l 0 0 l 242 354 z "},"з":{"ha":649,"x_min":31,"x_max":608,"o":"m 311 -21 q 108 42 185 -21 q 31 208 31 106 l 167 208 q 208 125 167 157 q 324 93 250 93 q 430 122 392 93 q 468 203 468 150 q 434 278 468 250 q 343 306 400 306 l 254 306 l 254 411 l 339 411 q 425 439 396 411 q 454 515 454 467 q 417 590 454 564 q 315 617 381 617 q 211 586 249 617 q 174 507 174 556 l 36 507 q 72 623 36 572 q 171 702 107 674 q 318 731 235 731 q 514 676 438 731 q 590 525 590 622 q 553 423 590 468 q 454 361 517 378 l 454 360 q 568 302 528 344 q 608 200 608 260 q 528 38 608 96 q 311 -21 449 -21 z "},"и":{"ha":803,"x_min":76,"x_max":726,"o":"m 76 708 l 213 708 l 213 190 l 590 708 l 726 708 l 726 0 l 590 0 l 590 518 l 213 0 l 76 0 l 76 708 z "},"й":{"ha":803,"x_min":76,"x_max":726,"o":"m 76 708 l 213 708 l 213 190 l 590 708 l 726 708 l 726 0 l 590 0 l 590 518 l 213 0 l 76 0 l 76 708 z "},"ѝ":{"ha":803,"x_min":76,"x_max":726,"o":"m 76 708 l 213 708 l 213 190 l 590 708 l 726 708 l 726 0 l 590 0 l 590 518 l 213 0 l 76 0 l 76 708 m 229 1007 l 382 1007 l 453 815 l 346 815 l 229 1007 z "},"к":{"ha":685,"x_min":76,"x_max":700,"o":"m 300 292 l 213 292 l 213 0 l 76 0 l 76 708 l 213 708 l 213 406 l 304 406 l 528 708 l 688 708 l 419 356 l 700 0 l 529 0 l 300 292 z "},"ќ":{"ha":685,"x_min":76,"x_max":700,"o":"m 300 292 l 213 292 l 213 0 l 76 0 l 76 708 l 213 708 l 213 406 l 304 406 l 528 708 l 688 708 l 419 356 l 700 0 l 529 0 l 300 292 m 378 1007 l 538 1007 l 404 815 l 296 815 l 378 1007 z "},"л":{"ha":739,"x_min":11,"x_max":664,"o":"m 90 -21 q 11 -8 43 -21 l 11 101 q 67 92 43 92 q 111 117 97 92 q 128 200 125 142 l 156 708 l 664 708 l 664 0 l 526 0 l 526 596 l 282 596 l 260 186 q 210 30 254 81 q 90 -21 167 -21 z "},"м":{"ha":943,"x_min":76,"x_max":868,"o":"m 76 708 l 239 708 l 474 178 l 476 178 l 714 708 l 868 708 l 868 0 l 731 0 l 731 475 l 728 475 l 521 1 l 415 1 l 215 475 l 213 475 l 213 0 l 76 0 l 76 708 z "},"н":{"ha":775,"x_min":76,"x_max":699,"o":"m 563 304 l 213 304 l 213 0 l 76 0 l 76 708 l 213 708 l 213 417 l 563 417 l 563 708 l 699 708 l 699 0 l 563 0 l 563 304 z "},"о":{"ha":786,"x_min":39,"x_max":747,"o":"m 393 -21 q 204 26 285 -21 q 81 158 124 74 q 39 354 39 243 q 82 550 39 465 q 205 683 125 635 q 394 731 285 731 q 583 683 503 731 q 705 551 663 636 q 747 356 747 465 q 704 159 747 244 q 581 26 661 74 q 393 -21 501 -21 m 181 354 q 235 165 181 238 q 394 92 289 92 q 552 165 499 92 q 606 354 606 238 q 552 544 606 471 q 394 617 499 617 q 235 544 289 617 q 181 354 181 472 z "},"п":{"ha":761,"x_min":76,"x_max":685,"o":"m 76 708 l 685 708 l 685 0 l 549 0 l 549 596 l 213 596 l 213 0 l 76 0 l 76 708 z "},"р":{"ha":792,"x_min":76,"x_max":751,"o":"m 433 -19 q 301 10 356 -19 q 215 88 247 40 l 213 88 l 213 -246 l 76 -246 l 76 708 l 213 708 l 213 625 l 215 625 q 433 729 296 729 q 596 683 524 729 q 710 553 668 638 q 751 354 751 468 q 710 156 751 240 q 596 26 668 71 q 433 -19 524 -19 m 214 354 q 267 163 214 233 q 411 93 319 93 q 558 168 507 93 q 608 354 608 243 q 558 540 608 465 q 411 615 507 615 q 267 545 319 615 q 214 354 214 475 z "},"с":{"ha":738,"x_min":39,"x_max":706,"o":"m 388 -21 q 204 26 283 -21 q 82 159 125 74 q 39 354 39 244 q 82 549 39 464 q 203 682 125 635 q 386 729 282 729 q 544 694 475 729 q 656 595 614 658 q 706 451 697 532 l 565 451 q 517 567 558 518 q 388 617 475 617 q 231 541 282 617 q 181 354 181 465 q 231 168 181 243 q 388 93 282 93 q 518 142 476 93 q 565 263 560 190 l 706 263 q 660 117 701 182 q 547 16 618 53 q 388 -21 476 -21 z "},"т":{"ha":647,"x_min":17,"x_max":631,"o":"m 256 596 l 17 596 l 17 708 l 631 708 l 631 596 l 392 596 l 392 0 l 256 0 l 256 596 z "},"у":{"ha":701,"x_min":-1,"x_max":694,"o":"m 168 -249 q 81 -239 131 -249 l 81 -128 q 139 -132 117 -132 q 226 -101 186 -132 q 285 7 265 -69 l -1 708 l 147 708 l 354 167 l 357 167 l 551 708 l 694 708 l 414 -17 q 308 -197 364 -146 q 168 -249 251 -249 z "},"ў":{"ha":701,"x_min":-1,"x_max":694,"o":"m 168 -249 q 81 -239 131 -249 l 81 -128 q 139 -132 117 -132 q 226 -101 186 -132 q 285 7 265 -69 l -1 708 l 147 708 l 354 167 l 357 167 l 551 708 l 694 708 l 414 -17 q 308 -197 364 -146 q 168 -249 251 -249 z "},"ф":{"ha":914,"x_min":39,"x_max":874,"o":"m 389 -17 q 133 100 228 1 q 39 354 39 199 q 133 609 39 510 q 389 726 228 708 l 389 993 l 524 993 l 524 726 q 779 610 685 708 q 874 354 874 511 q 779 100 874 199 q 524 -17 685 1 l 524 -246 l 389 -246 l 389 -17 m 179 354 q 236 183 179 251 q 389 97 293 115 l 389 613 q 236 526 293 594 q 179 354 179 457 m 524 96 q 678 183 621 115 q 735 354 735 251 q 678 526 735 457 q 524 614 621 594 l 524 96 z "},"х":{"ha":676,"x_min":-11,"x_max":689,"o":"m 256 363 l 13 708 l 168 708 l 338 456 l 340 456 l 507 708 l 663 708 l 419 363 l 689 0 l 529 0 l 338 271 l 335 271 l 147 0 l -11 0 l 256 363 z "},"ч":{"ha":701,"x_min":44,"x_max":625,"o":"m 489 308 l 486 308 q 400 237 454 265 q 281 208 346 208 q 112 269 179 208 q 44 460 44 329 l 44 708 l 182 708 l 182 500 q 218 365 182 407 q 326 324 254 324 q 489 422 424 324 l 489 708 l 625 708 l 625 0 l 489 0 l 489 308 z "},"ц":{"ha":801,"x_min":76,"x_max":771,"o":"m 649 0 l 76 0 l 76 708 l 213 708 l 213 113 l 538 113 l 538 708 l 674 708 l 674 113 l 771 113 l 771 -181 l 649 -181 l 649 0 z "},"ш":{"ha":1010,"x_min":76,"x_max":935,"o":"m 76 708 l 210 708 l 210 113 l 439 113 l 439 708 l 572 708 l 572 113 l 801 113 l 801 708 l 935 708 l 935 0 l 76 0 l 76 708 z "},"щ":{"ha":1061,"x_min":76,"x_max":1032,"o":"m 908 0 l 76 0 l 76 708 l 210 708 l 210 113 l 439 113 l 439 708 l 572 708 l 572 113 l 801 113 l 801 708 l 935 708 l 935 113 l 1032 113 l 1032 -181 l 908 -181 l 908 0 z "},"џ":{"ha":750,"x_min":76,"x_max":674,"o":"m 315 0 l 76 0 l 76 708 l 213 708 l 213 113 l 538 113 l 538 708 l 674 708 l 674 0 l 438 0 l 438 -181 l 315 -181 l 315 0 z "},"ь":{"ha":643,"x_min":76,"x_max":621,"o":"m 76 708 l 213 708 l 213 454 l 375 454 q 555 393 489 454 q 621 228 621 332 q 554 61 621 122 q 374 0 488 0 l 76 0 l 76 708 m 368 113 q 449 143 419 113 q 479 226 479 174 q 451 311 479 281 q 368 342 422 342 l 213 342 l 213 113 l 368 113 z "},"ы":{"ha":869,"x_min":76,"x_max":793,"o":"m 76 708 l 213 708 l 213 454 l 336 454 q 517 393 451 454 q 582 228 582 332 q 515 61 582 122 q 335 0 449 0 l 76 0 l 76 708 m 329 113 q 411 143 381 113 q 442 226 442 174 q 413 311 442 281 q 329 342 383 342 l 213 342 l 213 113 l 329 113 m 657 708 l 793 708 l 793 0 l 657 0 l 657 708 z "},"ъ":{"ha":715,"x_min":13,"x_max":693,"o":"m 149 596 l 13 596 l 13 708 l 285 708 l 285 454 l 447 454 q 627 393 561 454 q 693 228 693 332 q 626 61 693 122 q 446 0 560 0 l 149 0 l 149 596 m 440 113 q 522 143 492 113 q 551 226 551 174 q 523 311 551 281 q 440 342 494 342 l 285 342 l 285 113 l 440 113 z "},"љ":{"ha":996,"x_min":11,"x_max":972,"o":"m 90 -21 q 11 -8 43 -21 l 11 103 q 67 93 36 93 q 111 117 97 93 q 128 201 125 142 l 156 708 l 603 708 l 603 454 l 726 454 q 907 393 842 454 q 972 228 972 332 q 906 61 972 122 q 725 0 839 0 l 467 0 l 467 596 l 282 596 l 260 188 q 210 30 254 81 q 90 -21 167 -21 m 719 113 q 801 143 771 113 q 832 226 832 174 q 803 311 832 281 q 719 342 774 342 l 603 342 l 603 113 l 719 113 z "},"њ":{"ha":1001,"x_min":76,"x_max":979,"o":"m 472 324 l 213 324 l 213 0 l 76 0 l 76 708 l 213 708 l 213 438 l 472 438 l 472 708 l 610 708 l 610 438 l 733 438 q 914 381 849 438 q 979 219 979 324 q 913 58 979 115 q 732 0 847 0 l 472 0 l 472 324 m 726 113 q 808 140 779 113 q 838 218 838 167 q 726 324 838 324 l 610 324 l 610 113 l 726 113 z "},"ѕ":{"ha":678,"x_min":29,"x_max":647,"o":"m 356 -19 q 116 51 200 -19 q 29 236 32 122 l 167 236 q 216 130 171 169 q 354 90 261 90 q 471 120 436 90 q 506 194 506 150 q 481 258 506 236 q 427 288 456 281 q 319 313 399 296 q 183 353 238 332 q 92 415 129 374 q 54 525 54 457 q 126 674 54 618 q 324 729 197 729 q 538 665 463 729 q 621 503 613 601 l 483 503 q 440 587 474 554 q 326 619 406 619 q 228 596 260 619 q 196 531 196 572 q 214 482 196 500 q 260 455 232 464 q 342 435 288 446 q 375 428 353 433 q 515 386 460 408 q 609 319 571 364 q 647 201 647 275 q 571 39 647 97 q 356 -19 494 -19 z "},"є":{"ha":718,"x_min":40,"x_max":688,"o":"m 376 -21 q 192 27 268 -21 q 78 160 117 75 q 40 354 40 244 q 81 548 40 463 q 200 681 122 633 q 382 729 278 729 q 593 663 514 729 q 688 488 672 596 l 547 488 q 497 581 539 546 q 382 617 456 617 q 244 564 294 617 q 183 408 194 511 l 428 408 l 428 301 l 183 301 q 375 93 203 93 q 494 130 449 93 q 547 226 539 167 l 688 226 q 593 47 676 114 q 376 -21 510 -21 z "},"э":{"ha":718,"x_min":29,"x_max":678,"o":"m 347 -21 q 125 47 210 -21 q 29 226 40 114 l 171 226 q 226 131 179 168 q 350 93 274 93 q 535 301 518 93 l 290 301 l 290 408 l 535 408 q 476 564 525 511 q 342 617 428 617 q 224 581 268 617 q 171 488 179 544 l 29 488 q 128 663 46 596 q 340 729 210 729 q 522 682 446 729 q 638 550 599 635 q 678 354 678 465 q 592 82 678 185 q 347 -21 507 -21 z "},"і":{"ha":289,"x_min":68,"x_max":222,"o":"m 76 708 l 213 708 l 213 0 l 76 0 l 76 708 m 68 982 l 222 982 l 222 835 l 68 835 l 68 982 z "},"ї":{"ha":289,"x_min":-11,"x_max":300,"o":"m 160 979 l 300 979 l 300 838 l 160 838 l 160 979 m -11 979 l 129 979 l 129 838 l -11 838 l -11 979 m 76 708 l 213 708 l 213 0 l 76 0 l 76 708 z "},"ј":{"ha":289,"x_min":-42,"x_max":222,"o":"m 43 -251 q -42 -243 11 -251 l -42 -131 q 13 -135 -8 -135 q 61 -112 46 -135 q 76 -32 76 -89 l 76 708 l 213 708 l 213 -37 q 167 -199 213 -147 q 43 -251 122 -251 m 68 982 l 222 982 l 222 835 l 68 835 l 68 982 z "},"ћ":{"ha":756,"x_min":-7,"x_max":685,"o":"m -7 904 l 76 904 l 76 993 l 213 993 l 213 904 l 431 904 l 431 811 l 213 811 l 213 619 l 215 619 q 306 698 247 667 q 449 729 364 729 q 619 669 553 729 q 685 492 685 608 l 685 0 l 549 0 l 549 454 q 513 571 549 529 q 404 613 478 613 q 265 564 317 613 q 213 435 213 515 l 213 0 l 76 0 l 76 811 l -7 811 l -7 904 z "},"ю":{"ha":982,"x_min":76,"x_max":942,"o":"m 632 -21 q 421 65 503 -21 q 325 299 339 150 l 213 299 l 213 0 l 76 0 l 76 708 l 213 708 l 213 411 l 325 411 q 422 645 339 560 q 633 731 504 731 q 796 685 726 731 q 903 554 865 639 q 942 356 942 469 q 903 156 942 240 q 796 25 865 71 q 632 -21 726 -21 m 464 354 q 509 161 464 231 q 632 92 554 92 q 755 161 710 92 q 800 354 800 231 q 756 547 800 478 q 632 617 711 617 q 508 547 553 617 q 464 354 464 478 z "},"я":{"ha":685,"x_min":26,"x_max":608,"o":"m 26 6 q 40 34 35 14 q 50 90 44 54 q 71 194 58 151 q 113 272 83 236 q 194 315 142 307 l 194 317 q 92 377 132 331 q 51 492 51 424 q 117 648 51 588 q 307 708 183 708 l 608 708 l 608 0 l 472 0 l 472 258 l 329 258 q 244 228 274 258 q 205 160 215 199 q 189 64 194 121 q 187 42 189 60 q 183 15 185 25 q 176 0 181 4 l 26 0 l 26 6 m 193 490 q 224 404 193 440 q 319 368 254 368 l 472 368 l 472 596 l 317 596 q 224 565 254 596 q 193 490 193 535 z "},"ђ":{"ha":756,"x_min":-7,"x_max":685,"o":"m 508 -251 q 411 -240 460 -251 l 411 -129 q 485 -135 456 -135 q 533 -111 518 -135 q 549 -32 549 -87 l 549 454 q 513 571 549 529 q 404 613 478 613 q 265 564 317 613 q 213 435 213 515 l 213 0 l 76 0 l 76 811 l -7 811 l -7 904 l 76 904 l 76 993 l 213 993 l 213 904 l 431 904 l 431 811 l 213 811 l 213 619 l 215 619 q 306 698 247 667 q 449 729 364 729 q 619 669 553 729 q 685 492 685 608 l 685 -37 q 637 -199 685 -146 q 508 -251 589 -251 z "},"җ":{"ha":974,"x_min":0,"x_max":996,"o":"m 242 354 l 3 708 l 153 708 l 356 406 l 418 406 l 418 708 l 554 708 l 554 406 l 618 406 l 821 708 l 971 708 l 732 354 l 908 96 l 996 96 l 996 -181 l 874 -181 l 874 0 l 810 0 l 614 292 l 554 292 l 554 0 l 418 0 l 418 292 l 357 292 l 161 0 l 0 0 l 242 354 z "},"қ":{"ha":685,"x_min":76,"x_max":707,"o":"m 300 292 l 213 292 l 213 0 l 76 0 l 76 708 l 213 708 l 213 406 l 304 406 l 528 708 l 688 708 l 419 356 l 625 96 l 707 96 l 707 -181 l 585 -181 l 585 0 l 529 0 l 300 292 z "},"ң":{"ha":775,"x_min":76,"x_max":757,"o":"m 563 304 l 213 304 l 213 0 l 76 0 l 76 708 l 213 708 l 213 417 l 563 417 l 563 708 l 699 708 l 699 96 l 757 96 l 757 -181 l 635 -181 l 635 0 l 563 0 l 563 304 z "},"ү":{"ha":699,"x_min":-1,"x_max":697,"o":"m 285 54 l -1 708 l 149 708 l 353 213 l 356 213 l 556 708 l 697 708 l 421 54 l 421 -246 l 285 -246 l 285 54 z "},"ұ":{"ha":699,"x_min":-1,"x_max":697,"o":"m 107 -11 l 285 -11 l 285 54 l -1 708 l 149 708 l 353 213 l 356 213 l 556 708 l 697 708 l 421 54 l 421 -11 l 599 -11 l 599 -107 l 421 -107 l 421 -246 l 285 -246 l 285 -107 l 107 -107 l 107 -11 z "},"ҳ":{"ha":676,"x_min":-11,"x_max":706,"o":"m 256 363 l 13 708 l 168 708 l 338 456 l 340 456 l 507 708 l 663 708 l 419 363 l 618 96 l 706 96 l 706 -181 l 583 -181 l 583 0 l 529 0 l 338 271 l 335 271 l 147 0 l -11 0 l 256 363 z "},"ҷ":{"ha":701,"x_min":44,"x_max":671,"o":"m 489 308 l 486 308 q 400 237 454 265 q 281 208 346 208 q 112 269 179 208 q 44 460 44 329 l 44 708 l 182 708 l 182 500 q 218 365 182 407 q 326 324 254 324 q 489 422 424 324 l 489 708 l 625 708 l 625 96 l 671 96 l 671 -181 l 549 -181 l 549 0 l 489 0 l 489 308 z "},"һ":{"ha":756,"x_min":76,"x_max":685,"o":"m 549 454 q 513 571 549 529 q 404 613 478 613 q 265 564 317 613 q 213 435 213 515 l 213 0 l 76 0 l 76 993 l 213 993 l 213 619 l 215 619 q 306 698 247 667 q 449 729 364 729 q 619 669 553 729 q 685 492 685 608 l 685 0 l 549 0 l 549 454 z "},"ә":{"ha":742,"x_min":40,"x_max":701,"o":"m 371 -21 q 194 26 269 -21 q 80 157 119 74 q 40 347 40 240 q 44 404 40 369 l 557 404 q 497 562 547 507 q 367 617 446 617 q 246 586 292 617 q 189 503 200 556 l 49 503 q 157 669 71 610 q 368 729 243 729 q 614 626 526 729 q 701 354 701 524 q 662 161 701 246 q 547 28 622 76 q 371 -21 472 -21 m 183 297 q 229 152 183 211 q 371 93 275 93 q 499 145 451 93 q 557 297 546 197 l 183 297 z "},"ӣ":{"ha":803,"x_min":76,"x_max":726,"o":"m 76 708 l 213 708 l 213 190 l 590 708 l 726 708 l 726 0 l 590 0 l 590 518 l 213 0 l 76 0 l 76 708 m 221 942 l 588 942 l 588 835 l 221 835 l 221 942 z "},"ө":{"ha":786,"x_min":39,"x_max":747,"o":"m 393 -21 q 204 26 285 -21 q 81 158 124 74 q 39 354 39 243 q 82 550 39 465 q 205 683 125 635 q 394 731 285 731 q 583 683 503 731 q 705 551 663 636 q 747 356 747 465 q 704 159 747 244 q 581 26 661 74 q 393 -21 501 -21 m 183 301 q 249 149 196 206 q 394 92 301 92 q 538 149 486 92 q 603 301 590 206 l 183 301 m 603 408 q 538 560 590 504 q 394 617 486 617 q 249 560 301 617 q 183 408 196 504 l 603 408 z "},"ӯ":{"ha":701,"x_min":-1,"x_max":694,"o":"m 168 -249 q 81 -239 131 -249 l 81 -128 q 139 -132 117 -132 q 226 -101 186 -132 q 285 7 265 -69 l -1 708 l 147 708 l 354 167 l 357 167 l 551 708 l 694 708 l 414 -17 q 308 -197 364 -146 q 168 -249 251 -249 m 164 942 l 531 942 l 531 835 l 164 835 l 164 942 z "},"᎚":{"ha":911,"x_min":0,"x_max":0,"o":""}}}
